<?xml version="1.0" standalone="no"?><!DOCTYPE svg PUBLIC "-//W3C//DTD SVG 1.1//EN" "http://www.w3.org/Graphics/SVG/1.1/DTD/svg11.dtd"><svg class="icon" width="32px" height="32.00px" viewBox="0 0 1024 1024" version="1.1" xmlns="http://www.w3.org/2000/svg"><path fill="#000000" d="M383.488 86.528a43.434667 43.434667 0 0 1 42.24 12.842667c4.394667 4.693333 7.082667 9.6 7.978667 11.221333 2.432 4.394667 5.461333 10.837333 9.130666 18.688 8.661333 18.645333 22.869333 51.370667 57.088 153.728 34.133333 102.058667 88.149333 273.877333 116.181334 362.581333 23.594667 74.88 27.776 87.850667 32 101.845334 4.266667-16.085333 8.405333-31.914667 11.818666-46.08 10.496-43.605333 13.610667-67.754667 17.706667-89.6 4.181333-22.229333 8.618667-36.821333 13.269333-49.322667 8.106667-21.674667 16.64-36.565333 24.832-47.146667 10.794667-13.952 24.149333-23.253333 35.968-30.208 21.248-12.458667 44.117333-16.213333 58.026667-18.218666 8.32-1.194667 15.701333-1.92 21.333333-2.432 6.4-0.597333 9.130667-0.896 10.752-1.194667 9.216-1.536 19.072-2.133333 31.488-3.157333l1.365334-0.085334h1.408c42.154667-0.64 54.698667 0.128 65.109333 2.56v-0.042666c1.152 0.256 3.157333 0.597333 6.4 1.109333a42.666667 42.666667 0 0 1-13.397333 84.309333 206.933333 206.933333 0 0 1-11.264-2.090666l-0.64-0.128h-0.085334a62.848 62.848 0 0 0-4.138666-0.341334c-6.229333-0.256-17.664-0.426667-39.424-0.128-13.994667 1.109333-18.346667 1.450667-22.613334 2.176-5.504 0.938667-12.117333 1.536-16.853333 1.962667-5.461333 0.512-11.093333 1.066667-17.194667 1.962667-12.928 1.877333-21.248 3.968-27.050666 7.381333-7.637333 4.437333-10.410667 7.168-11.690667 8.789333-2.048 2.645333-6.741333 9.6-12.373333 24.661334-2.944 7.936-6.058667 17.834667-9.386667 35.370666-3.370667 18.005333-7.424 47.445333-18.602667 93.866667-11.093333 45.994667-28.672 108.330667-38.570666 141.226667l-10.368 34.602666c-1.706667 5.589333-2.858667 9.258667-4.096 12.458667a44.458667 44.458667 0 0 1-23.637334 25.173333 43.264 43.264 0 0 1-48.384-9.088 46.08 46.08 0 0 1-11.221333-19.114666c-2.389333-7.808-6.826667-21.205333-15.786667-51.2-6.144-20.608-16.768-57.770667-22.144-75.946667-5.376-18.304-5.717333-18.773333-33.962666-108.245333-28.16-89.088-81.92-260.010667-115.754667-361.216-6.058667-18.218667-11.562667-34.048-16.384-47.914667-8.746667 38.528-18.261333 80.810667-24.789333 108.842667-10.496 44.928-13.653333 56.32-18.986667 69.034666-4.010667 9.642667-9.6 22.186667-17.450667 34.645334-5.973333 9.429333-11.776 18.517333-17.109333 26.026666-4.48 6.229333-11.818667 16.042667-21.12 22.869334-1.92 1.365333-5.546667 3.925333-10.709333 6.229333a71.424 71.424 0 0 1-13.056 4.266667c-7.168 1.664-17.408 3.242667-32.256 5.290666-28.288 3.84-85.333333 12.202667-116.48 15.317334-17.28 1.706667-27.605333 2.56-33.834667 2.986666a131.413333 131.413333 0 0 1-7.978667 0.256c-1.024 0-2.901333 0-5.034666-0.256a43.648 43.648 0 0 1-27.221334-13.226666 42.666667 42.666667 0 0 1 32.981334-71.893334c0.426667 0 1.109333 0 2.048-0.085333 4.608-0.256 13.653333-1.024 30.549333-2.688 29.013333-2.901333 83.157333-10.837333 113.365333-14.933333 7.466667-1.066667 12.970667-1.834667 17.066667-2.474667l1.450667-0.298667 0.853333-1.066666c3.712-5.162667 8.32-12.373333 14.293333-21.76 4.053333-6.485333 7.509333-13.952 10.88-22.058667 2.133333-4.949333 3.84-8.96 14.634667-55.466667 10.666667-45.653333 29.44-129.024 39.381333-172.970666 10.154667-44.714667 11.946667-50.261333 14.122667-56.704l2.346667-6.058667c1.024-2.346667 2.261333-4.864 3.84-7.424 2.176-3.626667 9.728-15.530667 25.301333-20.906667l3.84-1.109333z m-279.509333 389.248l-0.170667-0.085333-0.341333-0.085334 0.512 0.170667z"  /></svg>