<?xml version="1.0" standalone="no"?><!DOCTYPE svg PUBLIC "-//W3C//DTD SVG 1.1//EN" "http://www.w3.org/Graphics/SVG/1.1/DTD/svg11.dtd"><svg class="icon" width="32px" height="32.00px" viewBox="0 0 1024 1024" version="1.1" xmlns="http://www.w3.org/2000/svg"><path fill="#000000" d="M520.32 66.688c9.429333 0 18.133333 3.114667 25.173333 8.32a42.496 42.496 0 0 1 18.730667 17.408l1.962667 3.413333 1.664 2.304c2.261333 3.242667 6.656 9.301333 15.232 21.034667 17.066667 23.381333 49.92 68.053333 80.213333 111.232 30.293333 43.221333 57.344 83.882667 71.381333 104.704 14.592 21.632 14.848 21.461333 37.973334 55.466667a4210.474667 4210.474667 0 0 1 94.464 144.128c30.72 49.92 49.536 86.314667 61.44 111.658666 11.904 25.472 16.810667 39.594667 21.333333 51.328 2.304 5.76 4.693333 11.648 7.168 17.493334 2.304 5.589333 4.778667 11.562667 6.784 16.682666 4.608 11.989333 6.912 20.48 9.130667 34.048 1.536 9.429333 4.906667 28.8 5.248 44.117334 0.256 13.994667 1.322667 17.578667 2.090666 30.037333 0.213333 4.181333 0.64 12.629333-1.578666 21.546667a50.048 50.048 0 0 1-23.466667 31.744 66.773333 66.773333 0 0 1-25.6 7.765333c-8.32 1.152-21.845333 2.56-44.757333 4.565333-44.032 3.84-126.976 10.794667-259.712 12.714667-132.181333 1.962667-308.48-0.981333-398.506667-2.858667a3672.277333 3672.277333 0 0 1-83.114667-2.218666c-14.549333-0.725333-22.186667-1.706667-31.573333-4.821334a392.704 392.704 0 0 1-40.32-15.104c-7.893333-3.754667-30.933333-15.104-36.053333-41.941333-2.688-14.250667 0.426667-26.965333 5.290666-37.930667l6.954667-15.530666c2.56-5.973333 5.632-13.909333 10.112-26.794667 8.96-25.6 26.496-76.757333 40.192-110.506667 14.762667-36.522667 25.813333-54.826667 48.896-84.650666 21.802667-28.16 52.138667-64.128 91.178667-121.856 40.533333-60.032 84.48-133.888 129.152-202.24a2931.498667 2931.498667 0 0 1 99.84-142.72c9.258667-12.586667 14.037333-19.029333 16.512-22.314667l2.773333-3.669333c0.085333-0.085333 1.408-1.706667 3.114667-3.498667a42.666667 42.666667 0 0 1 27.989333-12.970667l2.005333-0.085333h0.682667z m1.109333 112.768A2764.885333 2764.885333 0 0 0 438.826667 298.666667c-40.448 61.866667-90.282667 144.768-129.877334 203.349333-41.088 60.8-74.410667 100.565333-94.421333 126.378667-18.688 24.106667-25.642667 35.669333-37.248 64.298666-12.672 31.402667-29.354667 79.786667-38.784 106.752-3.712 10.581333-6.741333 18.517333-9.258667 24.789334l9.386667 3.242666c1.024 0.128 3.541333 0.426667 9.130667 0.682667 12.544 0.64 35.413333 1.152 80.682666 2.090667 90.026667 1.877333 264.96 4.778667 395.52 2.858666 130.005333-1.877333 210.773333-8.618667 253.482667-12.373333l15.744-1.536c-0.128-2.346667-0.256-4.778667-0.298667-7.381333-0.170667-7.808-2.176-19.882667-4.181333-32.213334-1.28-8.106667-2.133333-10.794667-4.437333-16.896a696.704 696.704 0 0 0-6.016-14.762666 980.906667 980.906667 0 0 1-7.808-19.2c-5.205333-13.397333-8.746667-23.936-19.157334-46.122667-10.453333-22.272-27.733333-55.808-56.832-103.125333a4122.752 4122.752 0 0 0-92.330666-140.885334c-21.162667-31.061333-24.362667-35.242667-38.229334-55.765333-14.421333-21.418667-40.789333-61.056-70.485333-103.424-25.941333-36.992-53.802667-75.093333-71.978667-99.925333zM466.346667 694.528a42.666667 42.666667 0 0 1 59.861333-7.338667l2.005333 1.536 0.512 0.256c0.64 0.384 2.986667 1.450667 8.746667 3.413334a42.666667 42.666667 0 0 1-27.605333 80.810666 142.677333 142.677333 0 0 1-21.717334-9.130666c-6.997333-3.797333-11.861333-7.637333-14.464-9.642667a42.666667 42.666667 0 0 1-7.338666-59.904z m12.928-372.053333a42.666667 42.666667 0 0 1 60.373333 0c5.333333 5.376 7.850667 10.837333 8.277333 11.690666a49.066667 49.066667 0 0 1 2.858667 7.808c0.341333 1.237333 0.512 2.304 0.64 2.816 0.256 1.194667 0.426667 2.432 0.597333 3.498667 0.384 2.218667 0.768 5.205333 1.237334 9.130667 0.896 7.893333 2.133333 20.48 3.754666 40.106666 1.237333 15.402667 1.962667 35.925333 2.432 55.68l0.981334 50.986667v0.426667c0.341333 28.501333-0.128 40.533333-1.28 60.16v0.810666l-0.128 0.768c-1.024 10.88-2.901333 21.589333-4.309334 30.464a42.666667 42.666667 0 0 1-84.309333-13.269333c1.792-11.178667 2.986667-17.493333 3.669333-24.746667 0.981333-16.938667 1.28-27.136 1.024-52.864l-0.981333-50.688c-0.426667-18.56-1.024-37.12-2.133333-50.901333a1092.821333 1092.821333 0 0 0-3.498667-37.034667l-0.725333-5.674666 0.512 2.005333a42.624 42.624 0 0 1 11.008-41.130667z m-5.973334 52.864l0.469334 0.64-1.194667-1.962667c0.256 0.426667 0.426667 0.853333 0.725333 1.28zM471.04 371.2l0.213333 0.341333-0.426666-0.981333 0.213333 0.64z"  /></svg>