<?xml version="1.0" standalone="no"?><!DOCTYPE svg PUBLIC "-//W3C//DTD SVG 1.1//EN" "http://www.w3.org/Graphics/SVG/1.1/DTD/svg11.dtd"><svg class="icon" width="32px" height="31.97px" viewBox="0 0 1025 1024" version="1.1" xmlns="http://www.w3.org/2000/svg"><path fill="#000000" d="M10.400853 119.893333a42.666667 42.666667 0 0 1 66.176-27.904c4.181333-1.365333 8.576-2.133333 13.226667-2.133333l24.490667 0.341333h0.768l0.682666 0.085334c9.045333 0.725333 46.165333 1.237333 106.026667 2.816l-0.042667 0.042666c34.56 0.597333 99.285333 1.28 227.413334 0.213334 128.938667-1.066667 315.605333-3.84 411.946666-4.906667a3548.714667 3548.714667 0 0 1 88.064-0.384c6.784 0.128 12.8 0.384 17.834667 1.024 6.485333 0.853333 14.592 2.944 22.698667 8.661333 4.949333 3.456 10.538667 8.746667 14.762666 16.554667 3.584 6.656 4.949333 13.013333 5.632 17.066667 1.28 7.509333 1.493333 16.810667 1.578667 26.538666 0.170667 28.16 0.426667 56.021333-0.128 79.402667-0.512 21.973333-1.792 45.056-6.101333 61.354667-2.56 9.770667-6.229333 21.717333-12.202667 32.512-5.973333 10.837333-16.853333 25.258667-35.968 32.085333a161.536 161.536 0 0 1-30.293333 6.656c1.493333 14.805333 2.56 39.125333 2.816 98.133333v0.298667l-0.042667 0.384a25582.506667 25582.506667 0 0 1-4.949333 247.04c-1.493333 61.525333-1.877333 65.408-2.005334 69.162667-0.554667 12.8-0.682667 29.269333-3.584 55.082666-1.024 8.96-2.730667 23.466667-6.314666 36.48-1.792 6.485333-4.693333 15.104-9.856 23.253334-5.12 8.106667-15.146667 20.010667-32.426667 24.661333-10.837333 2.901333-21.888 4.650667-28.842667 5.888-17.621333 3.2-63.445333 4.864-118.528 2.730667-23.466667-0.938667-30.677333-2.133333-77.866666-2.944-46.165333-0.768-131.413333-1.194667-180.736-2.346667-50.602667-1.194667-68.736-3.584-84.352-4.565333-41.258667-2.517333-69.973333-6.997333-109.653334-7.68-27.306667-0.426667-54.485333-0.554667-76.672-1.28-21.034667-0.768-43.52-2.133333-60.16-6.954667a54.4 54.4 0 0 1-29.994666-20.181333c-9.301333-13.098667-9.386667-27.392-9.429334-29.397334-0.298667-6.186667-0.981333-12.501333-2.005333-24.618666-0.981333-11.52-2.090667-26.154667-2.901333-46.208-0.853333-20.864-2.133333-54.698667-4.096-122.282667-2.048-67.712-4.693333-165.674667-6.698667-221.397333-1.962667-55.253333-3.2-67.413333-4.352-79.274667a43.648 43.648 0 0 1-0.213333-3.669333l-2.56-0.426667a214.485333 214.485333 0 0 1-14.378667-2.730667c-9.898667-2.346667-26.197333-7.253333-39.466667-21.077333-7.04-7.253333-9.770667-15.36-10.24-16.768a66.858667 66.858667 0 0 1-2.261333-7.978667 141.568 141.568 0 0 1-2.133333-13.354666 419.072 419.072 0 0 1-2.389334-33.621334 655.189333 655.189333 0 0 1 3.114667-90.752c2.048-18.346667 3.456-35.285333 6.613333-53.632zM160.160853 368c1.066667 12.586667 2.304 31.146667 3.754667 72.106667 2.005333 56.064 4.693333 154.666667 6.698667 221.909333 2.005333 67.370667 3.242667 100.906667 4.053333 121.429333 0.768 18.474667 1.706667 31.872 2.645333 42.368l0.128 2.048c5.376 0.384 11.818667 0.810667 19.456 1.066667 21.162667 0.725333 46.037333 0.768 75.093334 1.28 40.661333 0.64 81.92 5.888 113.450666 7.808 19.456 1.194667 32.554667 3.242667 81.152 4.394667 49.92 1.152 131.114667 1.493333 180.224 2.346666 48 0.853333 59.946667 2.261333 79.701334 2.986667 54.869333 2.133333 92.373333 0 99.968-1.408l5.802666-1.066667 0.341334-1.536c0.64-4.224 1.194667-8.661333 1.706666-13.354666 2.474667-21.888 2.517333-34.304 3.114667-48.853334 0.128-3.456 0.512-6.826667 2.005333-67.797333 1.493333-61.098667 4.138667-179.242667 4.949334-245.333333l-0.512-46.293334c-0.512-28.16-1.578667-39.637333-2.346667-46.08-19.285333 0.085333-54.314667 0-124.245333-0.682666-125.056-1.109333-356.096-3.626667-477.013334-5.632-34.816-0.597333-60.672-1.194667-80.128-1.706667z m487.253334 87.168a42.666667 42.666667 0 0 1 9.557333 84.864c-19.968 2.261333-33.877333 3.370667-48.384 3.925333-13.525333 0.554667-25.002667 0.554667-53.76 3.669334-29.738667 3.285333-75.605333 9.642667-106.197333 13.909333l-57.642667 7.893333a42.666667 42.666667 0 0 1-11.52-84.522666l57.472-7.936c30.037333-4.138667 77.354667-10.752 108.629333-14.165334 32.256-3.541333 46.933333-3.584 59.648-4.053333 11.776-0.469333 23.466667-1.450667 42.24-3.584z m214.570666-281.386667c-95.701333 1.066667-283.264 3.84-412.16 4.906667a8942.506667 8942.506667 0 0 1-229.973333-0.256h-0.426667c-54.058667-1.450667-95.402667-2.133333-109.141333-3.072-5.034667-0.213333-11.946667-0.170667-20.565333-0.170667l-0.341334-0.042666-0.768 7.68a569.984 569.984 0 0 0-1.92 93.013333 313.173333 313.173333 0 0 1 15.616 2.901333l2.688 0.554667c1.450667 0.341333 3.2 0.682667 5.717334 1.152 2.474667 0.426667 8.448 1.92 130.986666 3.968 120.576 1.962667 351.402667 4.522667 476.416 5.632 125.866667 1.152 135.978667 0.682667 143.36 0.213333 16.938667-1.066667 32.512-2.261333 45.184-3.754666 5.461333-0.597333 10.112-1.322667 13.909334-2.005334a116.906667 116.906667 0 0 0 2.304-7.68c1.365333-5.077333 2.730667-18.304 3.285333-41.514666 0.426667-18.005333 0.298667-39.04 0.128-62.037334-14.464 0-34.986667 0.170667-64.298667 0.512z"  /></svg>