<?xml version="1.0" standalone="no"?><!DOCTYPE svg PUBLIC "-//W3C//DTD SVG 1.1//EN" "http://www.w3.org/Graphics/SVG/1.1/DTD/svg11.dtd"><svg class="icon" width="32px" height="32.00px" viewBox="0 0 1024 1024" version="1.1" xmlns="http://www.w3.org/2000/svg"><path fill="#000000" d="M416.060732 0.506208c25.732236-0.84368 58.804487-1.012416 86.224083 2.826328 54.417352 7.593119 91.243979 13.794166 98.373074 14.975317 10.419446 1.68736 26.449364 3.712191 45.474345 10.967839 11.769334 4.429319 28.600748 10.377262 43.027674 16.620493 14.426926 6.201047 32.059835 14.975318 45.980554 27.88362 15.481526 14.426926 30.245924 31.216155 41.93089 46.275842 10.967838 14.089454 21.766941 29.950636 27.124308 42.183994 3.543455 8.014959 15.31279 33.831563 21.387284 84.325803 3.459087 28.600748 4.218399 63.233807 1.982648 92.804787a336.206431 336.206431 0 0 1-15.228422 79.305908c-6.960359 21.935677-15.818998 45.727449-23.87614 60.998056-11.220942 21.429469-29.064772 59.943455-71.544054 94.281226-5.863575 4.766791-11.600598 9.280479-17.379805 13.62543 2.1092 10.039791 5.779207 28.769484 12.739566 75.467165 6.580703 37.881227 18.940613 104.531937 27.757068 153.802842 9.027375 50.325505 13.161406 77.660733 17.632909 99.638593 3.796559 18.645325 6.918175 34.590875 8.436799 45.980554 0.674944 5.104263 1.47644 12.486462 0.970232 19.531189a48.469409 48.469409 0 0 1-5.947943 20.206133 43.322962 43.322962 0 0 1-43.997906 21.766941 76.353029 76.353029 0 0 1-20.374869-6.496335 373.539266 373.539266 0 0 1-19.995213-10.124159c-16.240838-8.605535-40.074794-21.935677-72.556469-42.56365a2820.885856 2820.885856 0 0 1-92.129843-61.715183c-4.851159-3.37472-8.689903-6.158863-11.684966-8.268063l-3.079432 1.560808c-7.846223 4.176215-19.193717 10.630366-40.623186 22.568437-32.776963 18.307853-93.521914 51.675393-125.244278 68.422438-15.439342 8.183695-25.732236 13.287958-32.608227 16.072102-2.1092 0.84368-9.533583 4.007479-18.350038 4.429319a42.901122 42.901122 0 0 1-44.715033-36.320419c-1.0546-6.749439-0.21092-13.077038-0.126552-13.878534 0.253104-2.488856 0.674944-5.188631 1.096784-7.761855 0.885864-5.272999 2.193568-12.064622 3.838743-19.995213 3.332536-16.029918 8.310247-38.387434 14.764398-66.102318 7.297831-31.005236 20.670157-93.732834 30.372476-129.715781 5.905759-21.809125 12.233358-48.933433 17.970381-73.990726 3.37472-14.553478 6.665071-28.980404 9.491399-40.791922l-3.37472-1.223335c-27.925804-10.799102-54.839192-24.340164-75.762453-50.072401a372.147194 372.147194 0 0 1-30.625579-45.980554c-9.280479-16.15647-18.687509-34.422139-23.833957-48.595961-3.712191-10.208527-13.161406-40.074794-19.826477-93.90157a797.86806 797.86806 0 0 1-5.863575-86.899027c-0.084368-22.230965 1.096784-37.670307 4.977711-50.789529 0.928048-3.248168 1.434256-5.694839 2.95288-12.106806 1.434256-5.694839 3.248168-12.739566 6.243231-21.007629 6.074495-16.662678 15.94555-35.772027 33.494091-60.744951 18.476589-26.19626 39.61077-55.55632 64.625878-77.871653 18.434405-16.451758 31.848915-26.364996 40.918475-31.553628 12.14899-7.002543 27.208676-15.186238 40.918474-21.935676 6.833807-3.290352 13.920718-6.538519 20.459237-9.069559 5.188631-2.024832 14.806582-5.526103 24.888556-6.074495l22.694989-0.970232z m205.520418 629.089901c-20.838893 8.478983-46.486761 18.856245-64.499327 25.943156-24.002693 9.449215-34.337771 13.20359-44.630665 16.873598a42.14181 42.14181 0 0 1-45.685266-11.558415c-15.059686-1.729544-37.417203-6.327599-72.556469-15.903365l-0.42184-0.084368h-0.042184c-2.235752 9.491399-4.851159 21.091997-7.846223 34.084667-5.694839 24.888556-12.35991 53.573672-18.771877 77.196709-9.280479 34.253403-21.513837 92.382947-29.613164 126.931637l-1.349888 5.779207c27.925804-15.186238 59.057591-32.228571 79.474645-43.618249 20.037397-11.178758 33.240987-18.729693 42.183994-23.454301 9.660135-5.062079 17.548541-8.732087 27.546148-11.263126l4.977711-1.012416a79.727748 79.727748 0 0 1 22.484069-0.168736l6.201047 1.0546 6.369783 1.687359c2.193568 0.717128 4.429319 1.68736 6.749439 2.784144 3.712191 1.89828 6.918175 4.007479 8.943007 5.399551 3.37472 2.32012 10.630366 7.593119 19.404637 13.709798 19.826477 13.920718 58.171728 40.074794 88.923859 59.648168 7.382199 4.640239 14.25819 8.943007 20.670157 12.823934-3.416904-19.489005-7.593119-43.702618-13.077038-74.707853-8.647719-48.216305-21.218549-116.216903-27.841436-154.266866l-0.168736-1.012416a2525.93537 2525.93537 0 0 0-7.424383-46.866417zM490.642033 86.899027c-26.449364-3.712191-63.697831-2.615408-90.020643-1.265519l-1.771728 0.63276c-3.416904 1.307704-8.099327 3.37472-13.83635 6.158863-11.389678 5.568287-24.635452 12.823934-36.067315 19.320269-1.560808 0.928048-9.913239 6.411967-26.575916 21.302917-16.747046 14.933134-32.734779 36.404787-51.844128 63.529095-14.342558 20.417053-20.206133 32.903515-23.159013 41.045026-1.47644 4.134031-2.53104 7.804039-3.543455 11.980254-0.84368 3.501271-2.277936 10.166343-4.00748 16.029918-0.253104 0.84368-1.602992 6.158863-1.560807 26.744652 0.084368 19.742109 1.89828 50.409873 5.188631 76.774869 5.905759 47.921017 14.04727 71.586238 15.439342 75.424981 2.657592 7.297831 9.111743 20.543605 17.632909 35.308003 8.436799 14.595662 17.042334 27.588332 22.948093 34.801794 7.044727 8.647719 17.421989 15.650262 40.791922 24.719821 17.843829 6.875991 50.789529 16.662678 76.142109 24.129244l24.5089 6.411967c20.838893 5.104263 31.764547 6.875991 37.121915 7.382199 4.134031 0.295288 3.796559 0.126552 13.83635 0.717128 6.538519 0.42184 12.655198 2.235752 18.054749 5.230816 4.555871-1.771728 9.913239-3.712191 16.240838-6.201048 23.327749-9.196111 59.901271-23.960509 81.077636-32.776963 21.218549-8.774271 35.350187-18.687509 56.61092-35.898579 26.997756-21.809125 37.712491-44.67285 49.945849-68.000598 4.471503-8.521167 11.558414-26.575916 18.139117-47.246073 5.821391-18.434405 9.744503-36.615707 11.51623-60.070007a420.532235 420.532235 0 0 0-1.602991-76.395213c-4.808975-39.652954-13.41451-57.24368-14.933134-60.702767a115.921615 115.921615 0 0 0-4.724608-7.930591 315.958114 315.958114 0 0 0-44.504113-52.476889c-2.95288-2.74196-9.660135-6.918175-21.977861-12.233358-12.233358-5.315183-24.635452-9.533583-39.61077-15.228422-9.364847-3.585639-16.114286-4.471503-29.022588-6.580703-7.171279-1.138968-43.069858-7.171279-96.43261-14.637846z"  /></svg>