<?xml version="1.0" standalone="no"?><!DOCTYPE svg PUBLIC "-//W3C//DTD SVG 1.1//EN" "http://www.w3.org/Graphics/SVG/1.1/DTD/svg11.dtd"><svg class="icon" width="32px" height="32.00px" viewBox="0 0 1024 1024" version="1.1" xmlns="http://www.w3.org/2000/svg"><path fill="#000000" d="M247.338667 86.272c16.213333 1.706667 32.938667 4.309333 56.490666 4.693333 48.426667 0.853333 142.165333 1.962667 191.445334 2.474667 49.664 0.512 49.706667 0.213333 50.261333 0.128 3.712-0.298667 6.442667-0.426667 11.818667-0.938667a42.666667 42.666667 0 0 1 41.301333 13.824c-0.981333-1.152-0.981333-0.981333 1.536 1.365334 2.048 1.877333 4.992 4.48 8.789333 7.765333 7.68 6.528 18.474667 15.317333 32 25.514667 7.253333 5.461333 12.8 10.538667 18.005334 15.36 5.248 4.864 9.813333 9.173333 16.384 14.933333 10.837333 9.514667 32.213333 26.154667 46.08 36.949333 11.093333 8.618667 18.048 13.525333 34.432 26.453334 17.28 13.653333 47.872 38.485333 64.298666 51.797333 11.989333 9.685333 17.834667 14.506667 23.210667 18.858667l5.376 4.266666 3.413333 2.304c7.338667 5.589333 11.264 12.117333 12.970667 15.274667 2.304 4.266667 3.712 8.277333 4.565333 11.093333 1.706667 5.632 2.645333 11.562667 3.328 16.64 1.365333 10.496 2.048 23.68 2.304 37.930667 0.213333 10.922667 0.512 10.069333 1.962667 78.72 1.450667 66.816 4.096 198.272 5.290667 267.392 1.28 72.277333-1.066667 87.466667-5.973334 106.88a188.245333 188.245333 0 0 1-10.026666 30.037333c-3.157333 7.082667-9.898667 20.693333-23.424 29.525334-14.421333 9.386667-30.378667 10.154667-40.192 10.624-11.221333 0.512-29.269333 0.554667-54.741334 1.066666-48.384 0.981333-138.922667 0.341333-229.248 0.213334-90.88-0.128-180.48-0.384-228.010666-0.768-28.757333-0.213333-48.512-2.133333-63.232-5.504-16.938667-3.84-25.984-9.557333-31.402667-12.842667a50.176 50.176 0 0 1-15.872-15.573333 66.688 66.688 0 0 1-5.845333-11.562667c-2.133333-5.290667-4.181333-12.074667-5.589334-16.64-7.168-22.698667-11.52-50.090667-15.189333-92.032-2.645333-30.336-3.84-77.44-4.608-101.12-0.981333-29.141333-0.213333-37.632 0.426667-46.250667 0.341333-4.992 1.152-14.378667 4.992-89.770666 3.456-68.266667 9.728-196.394667 13.098666-263.978667 3.584-70.613333 4.053333-75.434667 4.437334-83.2 0.512-11.093333 1.28-22.144 2.005333-33.066667 0.341333-5.76 1.109333-15.018667 4.053333-24.32l1.408-3.84c3.584-8.874667 9.642667-16.512 17.749334-22.058666 8.277333-5.717333 16.725333-7.808 22.314666-8.661334 10.24-1.621333 21.034667-0.597333 27.605334 0.042667z m447.061333 627.413333l-373.674667 10.794667c-49.493333 1.408-72.661333 2.005333-83.626666 2.304 0.469333 10.24 1.024 20.010667 1.749333 28.245333 3.541333 40.106667 7.253333 59.989333 11.477333 73.6 6.912 1.194667 19.370667 2.56 41.344 2.688 47.189333 0.426667 136.533333 0.64 227.413334 0.768 91.477333 0.128 180.266667 0.725333 227.413333-0.213333l45.653333-0.853333c0.512-1.834667 1.194667-3.84 1.749334-6.101334 1.962667-7.637333 4.608-13.141333 3.413333-84.394666l-0.64-29.994667c-7.850667 0.298667-28.330667 0.981333-102.272 3.157333zM257.450667 182.186667c-0.341333 7.04-0.981333 15.061333-4.437334 83.456-3.370667 67.029333-9.642667 196.010667-13.098666 263.978666-3.84 75.648-4.693333 85.76-5.12 91.562667-0.298667 3.882667-0.554667 6.357333-0.64 11.136v9.173333l3.242666-0.085333c11.648-0.341333 34.773333-0.938667 80.896-2.304a1712046.336 1712046.336 0 0 0 476.714667-13.909333c-1.109333-55.936-2.133333-114.090667-2.986667-151.722667-1.408-64.853333-1.792-69.973333-1.962666-78.933333a335.957333 335.957333 0 0 0-1.237334-23.552l-22.314666-18.133334c-16.64-13.482667-46.762667-37.888-63.573334-51.2-17.749333-14.037333-18.176-13.824-33.834666-26.026666-12.8-9.941333-36.778667-28.458667-49.962667-40.064-7.808-6.826667-13.781333-12.501333-18.133333-16.554667a142.976 142.976 0 0 0-11.52-9.898667c-5.546667-4.181333-10.752-8.277333-15.530667-12.074666 0.341333 6.186667 0.768 12.373333 1.024 18.176 0.554667 12.245333 0.981333 22.4 1.450667 29.184 0.981333 14.677333 0.341333 16.554667 1.664 29.184 0.981333 9.472 6.698667 49.493333-0.512 96.810666-1.365333 8.832-4.48 23.637333-15.786667 35.328-14.506667 15.018667-32.682667 14.762667-33.621333 14.805334-3.584 0.213333-6.186667 0.512-37.461334 1.066666-30.933333 0.512-89.216 1.237333-120.192 1.152-6.869333 0-15.786667 0-23.637333-1.024a61.098667 61.098667 0 0 1-33.194667-14.336 61.738667 61.738667 0 0 1-18.389333-31.658666 178.901333 178.901333 0 0 1-3.968-25.941334c-3.413333-34.602667-6.912-100.522667-8.96-133.248-1.28-21.248-1.92-33.408-2.261333-41.344-8.149333-0.554667-15.658667-1.237333-22.186667-1.92l-0.469333 8.96z m543.189333 197.845333l3.242667 2.176-3.584-2.517333 0.341333 0.341333zM367.573333 211.328c2.048 33.365333 5.205333 92.629333 8.277334 126.08 31.146667 0 84.224-0.597333 113.408-1.109333l6.101333-0.170667c1.450667-25.002667-1.28-44.928-2.133333-53.589333-1.365333-12.672-1.621333-27.648-1.962667-32.341334-0.512-8.106667-1.024-19.797333-1.536-31.146666a1145.130667 1145.130667 0 0 0-1.834667-32.981334c-0.341333-2.602667-0.426667-3.754667-0.597333-4.736l-0.554667-2.688c-32.298667-0.341333-79.274667-0.981333-121.130666-1.536 0.384 6.997333 0.938667 17.536 1.962666 34.218667z"  /></svg>