<?xml version="1.0" standalone="no"?><!DOCTYPE svg PUBLIC "-//W3C//DTD SVG 1.1//EN" "http://www.w3.org/Graphics/SVG/1.1/DTD/svg11.dtd"><svg class="icon" width="32px" height="32.00px" viewBox="0 0 1024 1024" version="1.1" xmlns="http://www.w3.org/2000/svg"><path fill="#000000" d="M567.082667 854.272a42.666667 42.666667 0 0 1 65.92 54.186667l-1.962667 2.346666-1.365333 1.621334c-0.213333 0.298667-0.426667 0.469333-0.554667 0.597333-5.077333 7.722667-13.44 17.664-34.005333 37.845333l-1.664 1.621334-1.792 1.408c-5.546667 4.394667-13.226667 9.813333-23.765334 13.909333a104.661333 104.661333 0 0 1-32.853333 6.442667c-11.136 0.597333-34.133333 1.621333-51.797333-1.28-22.698667-3.712-41.514667-9.856-58.624-20.48-15.744-9.728-29.568-24.405333-41.984-39.722667a42.666667 42.666667 0 0 1 66.346666-53.717333c10.666667 13.141333 17.194667 18.816 20.48 20.906666 5.162667 3.157333 12.629333 6.4 27.605334 8.832 7.082667 1.194667 20.906667 0.938667 33.578666 0.256a30.208 30.208 0 0 0 6.229334-0.768l0.341333-0.213333a371.2 371.2 0 0 0 18.773333-19.456l1.493334-1.834667 0.256-0.298666 0.682666-1.152 1.152-1.706667a91.776 91.776 0 0 1 5.973334-7.552l1.536-1.792z m9.813333-811.221333c11.050667 0.554667 21.76 1.109333 32.853333 3.114666 11.690667 2.133333 22.442667 5.546667 35.029334 10.666667 19.797333 7.936 56.32 23.210667 77.994666 33.237333 23.04 10.666667 33.578667 17.408 45.653334 29.738667 8.832 9.002667 19.157333 21.205333 28.8 36.096 9.557333 14.805333 18.048 31.530667 24.874666 49.152 6.826667 17.749333 11.776 35.797333 15.573334 55.381333 3.968 20.608 6.4 41.984 8.32 94.378667 1.834667 50.773333 3.328 135.424 4.736 181.077333 1.493333 46.933333 3.072 58.453333 3.754666 63.701334l0.554667 3.882666v0.256c2.901333 8.746667 5.973333 19.584 14.933333 31.317334 3.413333 4.522667 11.136 13.056 21.888 22.528 7.509333 6.656 21.461333 17.493333 36.437334 31.829333 0.682667 0.64 3.2 2.986667 5.546666 5.802667a44.373333 44.373333 0 0 1 10.581334 28.714666 43.52 43.52 0 0 1-31.232 41.898667 54.613333 54.613333 0 0 1-16.64 2.176c-5.802667-0.042667-13.568-0.853333-19.328-1.493333-6.784-0.682667-14.165333-1.493333-22.058667-2.090667-16.170667-1.152-34.218667-1.493333-45.525333-1.834667-9.941333-0.256-11.264-0.469333-126.165334-0.256-114.730667 0.170667-335.445333 0.810667-451.968 1.109334-116.48 0.298667-128.426667 0.298667-140.416 0.298666a42.666667 42.666667 0 1 1 0-85.333333l41.130667-0.128a42.453333 42.453333 0 0 1 10.666667-13.568l9.386666-6.997333c0.725333-0.64 1.28-1.237333 1.834667-1.834667 2.602667-3.157333 5.418667-7.338667 11.178667-16.384 1.322667-2.688 1.706667-3.328 2.346666-5.717333 0.896-3.370667 2.389333-10.709333 2.688-25.301334 0.512-24.533333 1.194667-71.765333 3.413334-109.824 2.304-39.253333 6.186667-68.864 15.658666-110.378666 9.216-40.192 23.381333-90.666667 30.293334-115.754667 6.912-24.917333 7.552-28.245333 13.269333-44.373333 5.12-14.592 15.701333-43.306667 28.586667-68.224 12.8-24.704 26.922667-44.970667 36.992-56.917334a121.173333 121.173333 0 0 1 28.8-25.984c14.592-9.216 32.298667-15.488 54.485333-18.517333a2321.152 2321.152 0 0 1 112.128-12.714667C531.626667 42.666667 558.506667 42.154667 576.896 43.050667z m-4.138667 85.248c-13.397333-0.64-36.266667-0.341333-71.893333 2.56-35.498667 2.901333-82.304 8.704-107.349333 12.16-12.458667 1.706667-18.133333 4.565333-20.693334 6.186666a38.528 38.528 0 0 0-9.045333 8.832 241.152 241.152 0 0 0-26.453333 41.130667 492.842667 492.842667 0 0 0-23.936 57.472c-4.48 12.586667-4.266667 12.501333-11.434667 38.570667-7.168 25.984-20.650667 74.24-29.312 112.085333-8.362667 36.608-11.690667 61.482667-13.738667 96.341333-2.090667 36.053333-2.688 80.981333-3.242666 106.666667-0.426667 19.498667-2.432 34.176-5.76 46.122667-2.944 10.709333-6.869333 18.432-8.490667 21.632 118.784-0.341333 330.368-0.853333 441.898667-1.066667 69.546667-0.128 97.834667-0.042667 111.957333 0.085333-14.592-22.613333-20.181333-43.52-21.589333-47.658666a93.013333 93.013333 0 0 1-3.754667-18.346667c-1.28-9.386667-2.944-24.192-4.48-72.448-1.536-49.664-2.816-128.426667-4.693333-180.736-1.877333-50.645333-4.096-66.986667-6.869334-81.322667a234.069333 234.069333 0 0 0-11.392-40.789333 184.32 184.32 0 0 0-16.896-33.493333 148.224 148.224 0 0 0-18.133333-22.784 20.778667 20.778667 0 0 0-4.224-3.626667 138.965333 138.965333 0 0 0-16.298667-8.405333 1990.826667 1990.826667 0 0 0-74.026666-31.488 90.794667 90.794667 0 0 0-18.346667-5.845334 173.184 173.184 0 0 0-21.802667-1.834666z"  /></svg>