<?xml version="1.0" standalone="no"?><!DOCTYPE svg PUBLIC "-//W3C//DTD SVG 1.1//EN" "http://www.w3.org/Graphics/SVG/1.1/DTD/svg11.dtd"><svg class="icon" width="32px" height="32.00px" viewBox="0 0 1024 1024" version="1.1" xmlns="http://www.w3.org/2000/svg"><path fill="#000000" d="M480.256 25.984A42.709333 42.709333 0 0 1 526.08 12.288c5.632 1.749333 11.093333 3.754667 14.293333 4.864L540.458667 17.066667c6.229333 2.005333 11.861333 4.053333 18.005333 6.528l21.034667 9.130666 0.896 0.426667 0.896 0.426667c12.074667 6.144 22.613333 11.52 31.488 15.786666a254.805333 254.805333 0 0 0 14.293333 6.4 304.042667 304.042667 0 0 1 127.274667 47.658667c13.568 7.68 16.213333 10.666667 28.330666 15.104 19.669333 7.253333 46.634667 16.938667 77.226667 36.096 17.92 11.221333 33.28 21.034667 44.842667 28.842667 5.76 3.925333 11.093333 7.68 15.402666 11.008 3.242667 2.474667 9.685333 7.552 14.549334 13.909333 4.992 6.528 10.752 15.573333 14.208 27.989333l1.365333 5.461334 1.664 8.32c1.792 9.770667 4.181333 26.666667 8.661333 74.112 5.546667 59.648 15.701333 173.013333 20.736 250.197333 5.077333 77.354667 5.12 118.016 4.138667 140.629333-0.426667 10.624-1.152 19.285333-2.688 26.282667-0.853333 3.882667-2.133333 8.533333-4.48 13.312-2.56 5.12-5.418667 8.704-5.802667 9.216-6.869333 8.789333-23.850667 25.088-64.810666 53.717333-27.776 19.413333-71.253333 47.914667-93.098667 62.72-10.965333 7.424-17.109333 11.904-21.76 15.317334-4.736 3.413333-9.173333 6.698667-15.36 10.666666-27.733333 18.005333-55.381333 31.914667-72.746667 39.765334-7.637333 3.413333-19.712 7.637333-30.933333 11.605333-12.373333 4.352-27.093333 9.642667-43.349333 16.128-11.093333 4.437333-27.349333 12.672-50.858667 19.029333-27.776 7.509333-59.221333 15.488-79.701333 15.914667-11.861333 0.256-27.221333 0-42.581334-2.005333-14.336-1.834667-33.493333-5.674667-49.664-15.36-5.632-3.370667-10.837333-6.656-15.530666-9.557334-4.736-2.986667-8.832-5.504-12.672-7.765333a96.426667 96.426667 0 0 0-16.981334-8.533333c-10.069333-3.498667-34.304-10.581333-62.08-22.016-27.861333-11.52-59.733333-27.392-75.946666-35.541334-17.621333-8.917333-17.365333-9.045333-25.173334-12.629333-21.546667-9.984-48.896-22.058667-68.864-36.394667a983.04 983.04 0 0 1-28.586666-21.034666c-6.954667-5.376-16.64-13.226667-23.168-21.888a99.285333 99.285333 0 0 1-16.469334-30.549334c-4.181333-12.757333-6.4-27.733333-7.850666-46.506666-1.92-24.96-4.821333-68.309333-4.565334-146.346667 0.256-77.525333 3.541333-186.453333 7.04-246.186667 3.285333-56.32 6.314667-75.776 14.464-91.52l6.570667-11.434666c7.424-11.52 18.261333-23.808 39.424-41.173334 18.986667-15.616 40.789333-36.266667 65.621333-50.773333 19.925333-11.605333 44.416-23.381333 65.194667-32.981333 19.925333-9.216 35.114667-15.36 51.157333-21.76 13.482667-5.418667 36.309333-14.890667 52.053334-21.248 22.912-9.301333 24.277333-10.709333 41.258666-17.877334 29.312-12.330667 55.466667-22.058667 68.522667-26.026666 6.4-1.962667 13.098667-3.882667 19.2-5.717334z m396.458667 318.933333c-10.112 4.864-23.125333 11.093333-39.936 18.645334l-1.152 0.512c-40.96 17.066667-107.946667 43.349333-149.76 59.008-41.130667 15.36-61.013333 21.333333-67.541334 23.637333-4.266667 1.536-7.424 2.944-11.178666 4.693333-3.584 1.706667-9.301333 4.608-15.957334 7.424-8.149333 3.498667-17.749333 8.149333-29.568 13.824-4.736 2.261333-9.813333 4.565333-15.061333 7.04 0 1.024 0 2.090667-0.128 3.114667l-0.042667 0.341333-0.170666 3.413334c-0.341333 6.4-0.896 19.285333-2.048 45.354666a20184.064 20184.064 0 0 0-9.045334 234.922667 5795.754667 5795.754667 0 0 0-2.645333 150.058667c7.296-1.792 15.573333-3.882667 24.832-6.4 17.28-4.693333 21.717333-8.064 41.472-15.957334 17.92-7.125333 34.005333-12.8 46.592-17.28 13.738667-4.864 20.821333-7.381333 24.106667-8.874666 14.506667-6.528 38.186667-18.474667 61.610666-33.621334 3.84-2.474667 6.186667-4.224 11.392-8.064 5.290667-3.84 12.330667-8.917333 24.277334-16.981333 23.936-16.213333 64.725333-42.922667 92.074666-62.037333 22.528-15.744 34.816-25.941333 41.045334-31.402667l0.341333-4.693333c0.768-18.432 0.938667-55.765333-4.010667-131.498667-4.650667-70.826667-13.781333-173.397333-19.498666-235.178667z m-734.72 6.528a5325.226667 5325.226667 0 0 0-6.912 241.493334c-0.256 75.52 2.56 116.565333 4.352 139.434666 1.28 16.725333 2.858667 23.68 3.84 26.666667 0.384 1.237333 0.554667 1.706667 2.944 4.906667l0.938666 0.896c1.536 1.365333 3.797333 3.285333 6.997334 5.802666 6.528 5.077333 15.146667 11.264 25.984 19.029334 11.690667 8.405333 29.568 16.512 54.997333 28.245333 9.386667 4.352 13.056 6.528 27.733333 13.909333 16.170667 8.106667 45.482667 22.698667 70.058667 32.853334 24.661333 10.197333 42.325333 15.061333 57.258667 20.181333 12.288 4.224 23.338667 10.24 32.768 15.872 4.778667 2.816 9.685333 5.888 14.293333 8.746667l9.898667 6.101333c0.298667-42.325333 0.768-87.722667 2.688-151.296 2.389333-79.36 6.826667-183.893333 9.088-236.074667l1.109333-24.917333a86.4 86.4 0 0 1-17.365333-3.925333 958.208 958.208 0 0 1-65.28-24.576c-25.898667-11.008-51.370667-23.808-65.024-30.464-13.653333-6.656-19.2-9.045333-41.941334-21.034667-21.461333-11.306667-61.226667-32.170667-85.674666-46.72-16.426667-9.813333-30.08-18.944-42.538667-28.074667l-0.213333 2.944z m397.738666 149.76l0.298667-0.341333 0.341333-0.682667-0.64 1.066667z m-18.944-398.378666l-8.96 2.645333c-7.168 2.133333-16.341333 4.949333-25.941333 7.893333-8.917333 2.688-31.914667 11.093333-60.245333 23.04-7.978667 3.328-22.613333 10.24-42.325334 18.261334-14.421333 5.845333-38.954667 16-52.352 21.333333a929.28 929.28 0 0 0-47.189333 20.096c-20.352 9.386667-41.728 19.797333-57.898667 29.226667-16.298667 9.514667-27.434667 20.48-51.413333 40.362666 15.914667 12.928 31.872 24.405333 53.973333 37.546667 22.016 13.184 59.392 32.768 81.792 44.629333 21.162667 11.136 24.576 12.373333 39.594667 19.754667 15.018667 7.338667 37.717333 18.816 60.928 28.714667 22.997333 9.770667 46.08 17.664 59.434667 22.229333 0.597333 0.213333 0.597333 0.170667 0.213333 0.128-0.298667 0-0.213333 0 0.682667-0.128 2.730667-0.512 7.68-2.090667 18.858666-6.869333 11.776-5.034667 23.381333-10.581333 34.858667-16.042667 11.093333-5.290667 22.656-10.922667 32.938667-15.274667 4.437333-1.92 7.338667-3.413333 12.672-5.973333 5.205333-2.432 11.264-5.205333 19.328-8.106667 12.202667-4.309333 24.490667-7.509333 66.218666-23.168 40.832-15.274667 106.24-40.917333 146.048-57.514666 25.642667-11.605333 41.472-19.2 50.986667-24.064 3.968-2.005333 6.570667-3.498667 8.192-4.352l-4.309333-3.029334a1507.541333 1507.541333 0 0 0-42.282667-27.178666c-22.272-13.952-41.642667-21.034667-61.568-28.373334-20.736-7.68-35.626667-18.005333-40.832-20.949333a219.221333 219.221333 0 0 0-40.789333-18.389333 1703.722667 1703.722667 0 0 0-65.962667-20.821334 193.706667 193.706667 0 0 1-29.610667-12.117333c-9.728-4.650667-20.992-10.410667-32.256-16.128a385.834667 385.834667 0 0 0-19.541333-8.362667l-3.242667 0.981334z"  /></svg>