<?xml version="1.0" standalone="no"?><!DOCTYPE svg PUBLIC "-//W3C//DTD SVG 1.1//EN" "http://www.w3.org/Graphics/SVG/1.1/DTD/svg11.dtd"><svg class="icon" width="32px" height="32.00px" viewBox="0 0 1024 1024" version="1.1" xmlns="http://www.w3.org/2000/svg"><path fill="#000000" d="M733.909333 274.048a42.666667 42.666667 0 0 1 69.12 50.048c-4.522667 6.4-10.069333 12.16-39.253333 40.533333-31.402667 30.464-90.922667 87.466667-125.482667 121.258667-10.837333 10.581333-18.773333 18.602667-24.746666 24.576l6.912 7.850667a1351.125333 1351.125333 0 0 0 76.032 78.293333c28.288 26.624 54.613333 47.914667 69.12 59.52l8.533333 6.826667 4.906667 3.925333c2.218667 1.749333 4.181333 3.413333 6.485333 5.632a42.666667 42.666667 0 0 1-59.221333 61.44l-0.725334-0.554667-4.736-3.84c-2.218667-1.706667-4.992-3.968-8.704-6.954666a1233.92 1233.92 0 0 1-74.112-63.829334 1437.397333 1437.397333 0 0 1-81.322666-83.669333c-18.773333-21.12-27.52-32.853333-32.682667-42.154667-1.066667-1.962667-9.770667-16.042667-6.144-34.304 1.706667-8.533333 5.376-14.72 7.552-17.92 1.962667-2.901333 4.138667-5.461333 4.949333-6.4l4.949334-5.76a1103.36 1103.36 0 0 1 43.306666-43.733333c34.432-33.621333 95.274667-91.946667 125.696-121.472a1479.808 1479.808 0 0 0 29.098667-28.8l0.469333-0.512z m-265.557333-18.261333a42.666667 42.666667 0 0 1 40.234667 56.96c-0.64 1.877333-1.28 3.541333-1.834667 4.778666-1.109333 2.56-2.474667 5.376-4.053333 8.32-3.157333 5.973333-7.850667 14.08-14.72 24.917334-11.52 18.176-31.573333 39.04-59.605334 67.626666-29.738667 30.293333-73.216 72.277333-95.232 93.824l-0.298666 0.256c4.821333 7.082667 11.136 15.402667 19.2 24.32 10.154667 11.221333 23.04 23.424 34.389333 32.981334 10.069333 8.533333 18.005333 14.506667 24.874667 19.712 6.272 4.778667 13.824 10.453333 20.309333 16.64 8.576 8.192 19.584 19.157333 27.946667 27.008 10.453333 9.130667 13.653333 11.52 17.066666 14.421333l0.213334 0.128 0.384 0.341333h0.085333l1.706667 1.194667a42.666667 42.666667 0 0 1-46.506667 71.552 95.701333 95.701333 0 0 1-10.666667-7.850667v-0.042666c-1.792-1.450667-7.722667-6.058667-19.285333-16.213334l-0.469333-0.426666-0.512-0.469334c-8.192-7.68-22.954667-22.272-28.928-27.989333a172.757333 172.757333 0 0 0-12.970667-10.325333 669.525333 669.525333 0 0 1-28.245333-22.485334c-13.653333-11.52-29.482667-26.368-42.666667-40.96a306.986667 306.986667 0 0 1-31.018667-40.405333 169.301333 169.301333 0 0 1-15.786666-29.824c-0.597333-1.706667-4.778667-11.946667-2.56-25.002667 2.005333-11.690667 7.936-19.754667 10.538666-23.125333 5.034667-6.4 13.568-14.72 23.552-24.490667 22.698667-22.186667 65.024-63.061333 93.909334-92.544 30.634667-31.232 43.008-44.8 48.512-53.504 6.058667-9.514667 9.514667-15.658667 11.349333-19.072l0.768-1.621333a42.666667 42.666667 0 0 1 40.32-28.586667z m-42.24 36.352c0 0.213333 0 0.426667-0.085333 0.682666l0.341333-2.048-0.256 1.365334z"  /></svg>