<?xml version="1.0" standalone="no"?><!DOCTYPE svg PUBLIC "-//W3C//DTD SVG 1.1//EN" "http://www.w3.org/Graphics/SVG/1.1/DTD/svg11.dtd"><svg class="icon" width="32px" height="32.00px" viewBox="0 0 1024 1024" version="1.1" xmlns="http://www.w3.org/2000/svg"><path fill="#000000" d="M354.474667 180.736a42.666667 42.666667 0 0 1 59.136 11.776c-1.450667-2.176-2.517333-3.328-1.152-1.749333 0.853333 1.024 2.645333 3.029333 5.888 6.570666 6.442667 7.04 18.176 19.541333 39.168 41.301334 17.621333 18.261333 43.306667 43.733333 70.016 70.229333 26.453333 26.24 53.888 53.418667 74.282666 74.496 40.448 41.728 53.546667 58.538667 61.397334 70.826667 2.56 4.096 12.586667 18.730667 9.856 38.997333-1.109333 8.277333-4.053333 14.933333-6.101334 19.157333-2.133333 4.266667-4.693333 8.533333-6.954666 12.245334-10.24 16.64-29.525333 45.653333-66.645334 85.461333-36.352 39.04-89.301333 87.68-118.784 114.048-30.336 27.136-36.693333 31.36-42.794666 36.096a192.64 192.64 0 0 0-15.189334 13.610667 42.666667 42.666667 0 0 1-59.264-61.44c7.552-7.296 14.677333-13.738667 22.144-19.541334 5.290667-4.096 9.941333-6.997333 38.229334-32.341333 29.226667-26.154667 79.701333-72.618667 113.194666-108.586667 26.752-28.714667 42.24-50.261333 51.2-63.914666a835.925333 835.925333 0 0 0-41.557333-45.226667 5705.813333 5705.813333 0 0 0-73.088-73.301333c-26.453333-26.197333-52.906667-52.48-71.381333-71.594667a2474.965333 2474.965333 0 0 1-40.618667-42.837333 145.664 145.664 0 0 1-12.757333-15.104 42.666667 42.666667 0 0 1 11.776-59.178667z"  /></svg>