<?xml version="1.0" standalone="no"?><!DOCTYPE svg PUBLIC "-//W3C//DTD SVG 1.1//EN" "http://www.w3.org/Graphics/SVG/1.1/DTD/svg11.dtd"><svg class="icon" width="32px" height="32.00px" viewBox="0 0 1024 1024" version="1.1" xmlns="http://www.w3.org/2000/svg"><path fill="#000000" d="M520.021333 268.245333a42.666667 42.666667 0 0 1 60.330667 1.621334c6.656 7.04 19.072 18.56 45.056 39.466666 14.890667 11.946667 41.941333 31.658667 70.144 59.136 28.032 27.306667 57.216 61.653333 72.96 81.109334 11.946667 14.805333 20.394667 27.605333 25.301333 40.064 5.845333 14.677333 5.418667 25.898667 5.333334 31.36-0.341333 14.592-7.466667 24.746667-9.386667 27.477333-1.92 2.816-5.376 7.338667-7.082667 9.6-6.912 9.216-17.962667 23.210667-44.074666 49.536a3269.973333 3269.973333 0 0 1-94.506667 90.026667c-28.928 26.624-45.952 41.386667-55.082667 49.493333a222.634667 222.634667 0 0 0-7.936 7.338667c-0.469333 0.426667-0.682667 0.682667-0.725333 0.768l-0.597333 0.768a42.666667 42.666667 0 0 1-66.090667-54.058667c4.522667-5.546667 8.533333-9.472 18.517333-18.432 9.813333-8.789333 25.813333-22.613333 54.186667-48.682667a3195.946667 3195.946667 0 0 0 91.648-87.253333 452.266667 452.266667 0 0 0 31.530667-34.517333 179.114667 179.114667 0 0 0-7.424-9.813334 920.234667 920.234667 0 0 0-66.090667-73.685333c-24.32-23.68-45.568-38.826667-64.085333-53.76-27.178667-21.802667-43.008-36.138667-53.546667-47.274667a42.666667 42.666667 0 0 1 1.621333-60.288zM242.432 253.44a42.666667 42.666667 0 0 1 53.674667 17.237333l0.64 0.853334 2.517333 3.413333c3.754667 5.12 12.16 16.426667 37.546667 43.946667 24.405333 26.581333 69.973333 73.728 97.024 103.765333 28.714667 31.914667 40.661333 48.853333 47.616 59.221333 2.474667 3.669333 5.930667 8.789333 8.277333 13.738667a46.677333 46.677333 0 0 1 3.797333 31.232c-1.706667 7.68-4.906667 13.397333-7.168 17.066667-2.133333 3.541333-5.034667 7.68-8.448 12.501333a543.573333 543.573333 0 0 1-42.112 51.925333c-19.669333 21.589333-50.176 51.626667-67.456 69.930667-18.517333 19.498667-28.885333 32.426667-35.498666 40.533333a128.853333 128.853333 0 0 1-15.317334 16.64c-2.901333 2.56-6.314667 5.333333-9.088 7.594667a42.666667 42.666667 0 0 1-54.229333-65.877333c3.072-2.517333 5.290667-4.352 6.912-5.802667l0.256-0.213333 0.213333-0.213334c0.682667-0.768 2.133333-2.432 5.333334-6.314666 6.570667-7.978667 18.645333-23.04 39.466666-45.056 22.016-23.210667 46.165333-46.549333 66.304-68.693334 12.842667-14.08 22.016-25.770667 28.586667-34.474666a584.96 584.96 0 0 0-30.848-36.650667c-27.861333-30.933333-68.266667-72.405333-96.426667-102.997333-27.178667-29.525333-37.546667-43.178667-43.434666-51.114667-3.712-5.034667-7.509333-9.984-10.112-15.957333a42.666667 42.666667 0 0 1 21.973333-56.234667z m56.192 21.973333l-1.066667-2.261333a36.992 36.992 0 0 0-0.554666-0.981333l1.621333 3.242666z"  /></svg>