<?xml version="1.0" standalone="no"?><!DOCTYPE svg PUBLIC "-//W3C//DTD SVG 1.1//EN" "http://www.w3.org/Graphics/SVG/1.1/DTD/svg11.dtd"><svg class="icon" width="32px" height="32.00px" viewBox="0 0 1024 1024" version="1.1" xmlns="http://www.w3.org/2000/svg"><path fill="#000000" d="M497.706667 507.605333c14.933333 0.981333 25.344 9.130667 28.501333 11.52 8.149333 6.314667 19.370667 17.706667 35.157333 34.304 33.664 35.328 99.2 106.197333 167.594667 180.650667a42.666667 42.666667 0 0 1-62.848 57.685333 16906.496 16906.496 0 0 0-166.485333-179.456c-1.706667-1.834667-3.456-3.498667-4.992-5.12-4.010667 4.010667-8.789333 8.746667-14.336 14.421334-31.573333 32.085333-86.741333 89.6-119.04 124.458666-31.957333 34.56-40.405333 45.738667-44.074667 50.602667a390.826667 390.826667 0 0 0-2.517333 3.328l-0.512 0.597333a42.624 42.624 0 0 1-76.501334-36.096c2.218667-6.826667 5.76-11.52 6.4-12.501333a248.32 248.32 0 0 1 5.12-6.912c5.845333-7.68 16.256-21.077333 49.493334-57.002667 32.981333-35.626667 88.832-93.781333 120.789333-126.293333 31.445333-32 39.978667-39.466667 47.061333-44.672l2.432-1.706667a45.781333 45.781333 0 0 1 28.757334-7.808z m-180.394667 287.232l0.042667-0.170666a41.941333 41.941333 0 0 0 1.024-2.474667l0.384-1.109333c-0.426667 1.28-0.938667 2.56-1.450667 3.754666z m166.058667-577.962666c7.168 0.853333 12.629333 3.2 15.829333 4.864 5.376 2.773333 9.813333 6.442667 11.946667 8.234666 5.461333 4.565333 14.336 12.672 29.226666 26.538667 30.464 28.416 89.813333 84.565333 122.026667 115.541333 32.128 30.933333 37.248 36.736 46.378667 48.554667 7.210667 9.301333 17.834667 23.168 29.994666 38.4a42.666667 42.666667 0 0 1-66.730666 53.205333c-12.672-15.872-23.808-30.464-30.72-39.424-5.034667-6.485333-6.229333-8.533333-38.101334-39.253333a14415.616 14415.616 0 0 0-122.24-115.712c-21.76 24.32-57.6 64.768-83.626666 97.152a861.866667 861.866667 0 0 0-56.618667 78.378667l-1.621333 2.517333a42.666667 42.666667 0 0 1-79.872-27.946667l1.578666-5.546666c1.834667-5.12 4.096-8.661333 4.864-9.941334 1.536-2.602667 4.181333-6.613333 8.448-13.184 9.045333-13.824 27.008-40.789333 56.704-77.738666a2819.669333 2819.669333 0 0 1 111.829334-128.170667c2.133333-2.133333 10.666667-11.52 24.32-15.189333l6.101333-1.237334c2.816-0.341333 6.357333-0.426667 10.282667 0z"  /></svg>