<?xml version="1.0" standalone="no"?><!DOCTYPE svg PUBLIC "-//W3C//DTD SVG 1.1//EN" "http://www.w3.org/Graphics/SVG/1.1/DTD/svg11.dtd"><svg class="icon" width="32px" height="32.00px" viewBox="0 0 1024 1024" version="1.1" xmlns="http://www.w3.org/2000/svg"><path fill="#000000" d="M516.266667 42.666667a42.666667 42.666667 0 0 1 37.546666 22.485333c26.581333 3.242667 58.624 8.192 86.314667 14.634667 34.133333 7.936 61.098667 17.792 89.429333 32.298666 26.325333 13.525333 54.741333 30.72 73.386667 44.970667a327.296 327.296 0 0 1 71.893333 75.861333c11.008 15.872 18.133333 29.354667 28.970667 56.064 10.325333 25.6 24.405333 64.213333 32.426667 87.466667 8.490667 24.490667 11.093333 34.56 14.293333 53.589333 2.944 17.408 6.528 43.008 8.32 77.44 1.749333 34.090667 1.749333 75.776-1.621333 117.12-3.413333 41.088-9.984 81.194667-18.517334 112.512a315.264 315.264 0 0 1-26.112 66.901334c-3.413333 6.4-7.125333 12.970667-12.672 19.925333a169.514667 169.514667 0 0 1-17.834666 18.645333c-13.653333 12.672-37.333333 33.408-65.365334 52.138667-27.861333 18.56-58.197333 34.048-77.397333 43.136-21.333333 10.112-32.170667 13.781333-58.581333 20.565333a681.386667 681.386667 0 0 1-122.88 20.608c-54.4 3.968-118.613333 2.133333-159.018667-0.64-41.173333-2.858667-60.245333-6.741333-75.776-11.264a160.853333 160.853333 0 0 1-36.138667-14.634666c-17.493333-9.856-42.666667-24.362667-69.674666-49.92a373.973333 373.973333 0 0 1-46.890667-52.864 1108.181333 1108.181333 0 0 1-50.816-75.434667c-4.821333-8.106667-18.432-31.914667-32.256-64.426667-8.277333-19.456-16.384-45.354667-20.565333-90.624a771.541333 771.541333 0 0 1-2.645334-77.568c0.426667-23.381333 2.218667-37.034667 7.552-64.554666 4.992-25.813333 13.141333-66.602667 19.413334-91.605334 7.594667-30.378667 10.581333-43.648 15.530666-58.794666 16.085333-49.152 24.490667-72.832 37.12-93.226667 17.194667-27.989333 31.36-49.237333 49.834667-64.682667 18.474667-15.445333 39.850667-30.890667 87.424-54.485333 12.672-6.314667 37.717333-20.266667 58.837333-28.757333 33.237333-13.397333 63.872-26.709333 97.578667-31.872 22.741333-3.498667 40.96-6.144 53.546667-7.936l14.506666-2.048 4.010667-0.469334 1.194667-0.170666 0.64-0.085334 0.725333-0.085333 0.853333-0.085333 0.981334-0.042667L516.266667 42.666667z m-66.773334 95.445333c-21.248 3.413333-41.045333 11.733333-77.824 26.538667-17.237333 6.954667-33.365333 16.426667-52.736 26.026666-42.325333 21.034667-57.941333 32.938667-70.698666 43.562667-6.4 5.333333-13.994667 14.933333-31.914667 43.946667-6.229333 10.154667-11.733333 23.424-28.586667 75.008-3.754667 11.392-5.717333 20.181333-13.952 53.034666-5.589333 22.4-13.312 61.013333-18.346666 87.04-4.693333 24.32-5.717333 32.896-6.016 49.92a686.933333 686.933333 0 0 0 2.304 68.181334c3.413333 37.162667 9.557333 54.357333 14.08 65.109333 11.904 27.946667 23.552 48.213333 27.093333 54.272 3.2 5.376 18.133333 29.525333 46.634667 68.992 11.861333 16.426667 24.576 29.653333 36.394666 40.832 19.242667 18.218667 37.034667 28.672 52.906667 37.589333 4.138667 2.346667 8.277333 4.181333 18.048 6.997334 7.893333 2.304 20.608 5.546667 57.813333 8.106666 38.058667 2.602667 97.962667 4.266667 146.944 0.682667a596.608 596.608 0 0 0 107.946667-18.176c22.314667-5.717333 27.818667-7.765333 43.178667-15.018667a554.666667 554.666667 0 0 0 66.602666-37.034666c22.784-15.232 42.709333-32.597333 54.613334-43.648a96.426667 96.426667 0 0 0 9.088-9.130667c0.725333-0.853333 1.578667-2.048 4.181333-6.997333 4.949333-9.258667 12.458667-24.789333 19.114667-49.28 6.826667-25.130667 12.757333-59.861333 15.786666-97.066667a818.346667 818.346667 0 0 0 1.493334-105.728 586.581333 586.581333 0 0 0-7.253334-67.754667c-2.218667-13.226667-3.413333-18.56-10.752-39.765333-7.765333-22.442667-21.333333-59.562667-30.976-83.413333-9.173333-22.698667-13.568-30.165333-20.010666-39.424a241.92 241.92 0 0 0-53.632-56.746667c-13.226667-10.154667-36.864-24.661333-60.416-36.778667a284.757333 284.757333 0 0 0-69.802667-25.088 799.701333 799.701333 0 0 0-90.922667-14.677333c-25.386667-2.645333-39.978667-2.56-56.234666-2.56a42.581333 42.581333 0 0 1-24.149334-7.552z m71.253334-10.368h0.426666-0.426666z"  /></svg>