<?xml version="1.0" standalone="no"?><!DOCTYPE svg PUBLIC "-//W3C//DTD SVG 1.1//EN" "http://www.w3.org/Graphics/SVG/1.1/DTD/svg11.dtd"><svg class="icon" width="32px" height="32.00px" viewBox="0 0 1024 1024" version="1.1" xmlns="http://www.w3.org/2000/svg"><path fill="#000000" d="M409.6 522.752c3.498667 0.085333 7.978667 0.298667 12.245333 0.981333 4.309333 0.725333 9.728 2.133333 15.274667 5.12l5.632 3.584 3.584 2.986667c7.722667 7.04 11.349333 15.146667 13.141333 20.224 1.877333 5.461333 2.688 10.666667 3.072 13.397333 0.426667 2.986667 0.810667 6.656 1.109334 9.472l1.28 10.496c2.261333 16 4.693333 41.386667 5.077333 85.546667a3411.328 3411.328 0 0 1-2.986667 138.453333c-1.322667 32.938667-2.261333 45.781333-6.314666 57.088a44.288 44.288 0 0 1-26.453334 26.666667 68.096 68.096 0 0 1-15.189333 3.541333c-7.466667 1.024-19.925333 2.005333-40.106667 3.413334-41.386667 2.986667-121.728 7.68-163.712 10.24-20.821333 1.28-32.298667 2.048-38.485333 2.346666-2.858667 0.170667-5.973333 0.298667-8.661333 0.256a46.506667 46.506667 0 0 1-40.832-24.405333 64.298667 64.298667 0 0 1-5.888-16.128 393.941333 393.941333 0 0 1-5.205334-31.488c-3.413333-23.893333-9.984-69.461333-14.250666-113.493333-4.266667-44.245333-5.973333-85.248-6.826667-106.965334-0.768-21.077333-0.810667-25.813333 0.085333-34.346666a43.093333 43.093333 0 0 1 0.938667-5.248 42.666667 42.666667 0 0 1 36.266667-59.648c5.12-0.341333 10.24-0.597333 54.997333-1.024 45.269333-0.426667 132.010667-1.066667 178.389333-1.28a1563.733333 1563.733333 0 0 1 43.818667 0.213333z m457.088-47.872a42.666667 42.666667 0 0 1 42.666667 42.666667l-0.128 13.525333c-0.128 12.416-0.384 36.821333-1.28 90.453333-0.853333 53.589333-2.389333 135.808-3.968 220.416a42.666667 42.666667 0 0 1-85.333334-1.578666c1.578667-84.650667 3.114667-166.784 3.968-220.288 0.853333-53.418667 1.152-77.610667 1.28-89.813334l0.128-12.714666a42.666667 42.666667 0 0 1 42.666667-42.666667z m-258.944 142.165333a42.666667 42.666667 0 0 1 52.352 22.997334l1.578667 4.096 1.408 5.461333c0.981333 5.077333 0.938667 9.216 0.938666 9.514667a4291.84 4291.84 0 0 1 1.194667 105.813333c-0.128 26.538667-1.152 36.437333-1.621333 43.690667-0.426667 5.973333-0.426667 10.922667-0.426667 17.322666a42.666667 42.666667 0 0 1-85.333333 0c0-6.314667 0-13.781333 0.597333-22.826666 0.469333-7.808 1.322667-15.104 1.493333-38.741334a4227.157333 4227.157333 0 0 0-1.152-102.272v-0.170666a42.666667 42.666667 0 0 1 29.013334-44.885334z m134.442667-129.28a42.666667 42.666667 0 0 1 42.666666 42.666667l0.341334 46.762667c0.384 46.592 1.109333 139.52 1.792 235.264a42.666667 42.666667 0 0 1-85.333334 0.64l-1.792-235.221334-0.341333-47.488a42.666667 42.666667 0 0 1 42.666667-42.666666zM188.16 609.152c-2.858667 0-5.589333 0.128-8.149333 0.128 0.085333 2.858667 0.170667 6.656 0.384 11.648 0.768 21.248 2.474667 60.202667 6.485333 101.845333 3.84 40.021333 9.813333 81.621333 13.312 106.666667 2.986667-0.213333 6.272-0.426667 9.813333-0.597333 42.453333-2.56 122.112-7.338667 162.986667-10.24l8.32-0.64c0.085333-2.56 0.298667-5.290667 0.426667-8.32 1.28-32.810667 3.242667-92.928 2.944-134.4a631.253333 631.253333 0 0 0-3.413334-67.285334c-4.394667 0-9.386667-0.085333-15.146666-0.042666-46.165333 0.170667-132.778667 0.853333-177.92 1.28z m391.936 59.946667a32.853333 32.853333 0 0 0 0.554667 1.834666c-0.341333-1.109333-0.64-2.218667-0.896-3.370666 0.128 0.512 0.170667 1.024 0.341333 1.493333z m-0.810667-3.413334c0 0.170667 0.085333 0.341333 0.128 0.469334l-0.298666-1.792 0.170666 1.322666z m258.986667-574.250666c4.992 0 12.458667 0 19.626667 1.109333 8.192 1.28 19.541333 4.608 29.696 13.994667 9.301333 8.618667 13.525333 18.730667 15.701333 24.789333 2.133333 6.058667 3.84 13.013333 5.248 18.688 6.101333 24.917333 17.066667 72.618667 23.424 113.194667 6.4 40.96 7.893333 73.386667 7.978667 91.52 0.042667 7.850667-0.085333 16.128-1.322667 23.168-0.682667 3.84-2.176 10.24-6.101333 17.024-4.693333 8.021333-10.837333 13.098667-16 16.213333-10.88 6.656-22.613333 8.106667-29.696 8.96-8.874667 1.152-23.210667 2.56-45.909334 4.821333-41.216 4.138667-119.552 12.458667-159.146666 16.384-9.173333 0.853333-19.498667 1.962667-28.330667 1.834667-8.192-0.128-24.277333-1.152-38.528-12.373333-15.189333-11.989333-19.456-28.330667-21.034667-37.717334a196.138667 196.138667 0 0 1-1.877333-29.312c-0.426667-40.021333 1.237333-116.693333 2.048-160.170666 0.853333-43.733333 0.853333-55.338667 0.853333-66.901334a42.666667 42.666667 0 0 1 47.274667-42.368 42.581333 42.581333 0 0 1 14.250667-2.005333c26.026667 0.896 50.56 1.706667 83.754666 1.322667 30.805333-0.384 77.824-2.090667 98.133334-2.133334z m-598.741333 6.186666c41.216-0.170667 98.346667 0.938667 126.72 1.450667l22.058666 0.426667a42.581333 42.581333 0 0 1 39.04 15.274666 42.453333 42.453333 0 0 1 10.069334 27.477334l-0.042667 0.170666c0.725333 7.168 1.493333 18.474667 2.816 40.618667 2.346667 38.144 6.570667 109.653333 8.661333 147.029333 0.469333 9.088 0.981333 17.194667 1.066667 23.808 0.085333 5.973333 0 14.378667-1.877333 22.656a51.882667 51.882667 0 0 1-20.394667 31.104c-9.728 6.912-20.138667 8.917333-23.296 9.557334-17.066667 3.541333-45.013333 5.546667-86.613333 5.802666-40.96 0.256-99.968 0-133.461334-3.029333-34.730667-3.157333-53.845333-6.229333-69.12-15.445333a46.72 46.72 0 0 1-16.896-17.450667 55.808 55.808 0 0 1-6.229333-19.626667c-1.152-8.533333-1.450667-20.736-1.28-37.973333 0.298667-35.157333 1.664-103.253333 4.266667-139.690667 1.365333-18.730667 2.688-32.256 4.565333-41.813333 1.877333-9.557333 6.058667-25.514667 21.546667-36.693333l5.973333-3.754667c5.930667-3.072 11.562667-4.522667 16.213333-5.333333 4.693333-0.810667 10.581333-1.28 16.725334-1.792 13.952-1.066667 37.888-2.56 79.488-2.773334z m501.674666 81.322667a1463.850667 1463.850667 0 0 1-61.44-0.597333c-0.128 7.381333-0.170667 16.213333-0.426666 26.88-0.768 41.941333-2.218667 110.890667-2.005334 150.741333 41.045333-4.096 113.621333-11.776 155.050667-15.914667 8.576-0.853333 15.744-1.706667 21.674667-2.304-0.810667-15.36-2.56-36.437333-6.4-61.397333a1375.36 1375.36 0 0 0-20.48-99.328c-22.656 0.426667-54.016 1.536-85.973334 1.92z m-501.290666 4.010667c-27.093333 0.128-45.866667 0.938667-58.837334 1.664l-0.896 11.349333c-2.432 33.450667-3.797333 99.114667-4.096 134.272v2.986667c4.394667 0.512 9.642667 1.152 15.914667 1.706666 28.672 2.602667 83.413333 2.986667 125.226667 2.730667 20.053333-0.128 35.242667-0.725333 46.506666-1.450667l-0.085333-1.365333c-2.048-37.205333-6.272-108.544-8.618667-146.645333l-0.298666-4.010667c-30.336-0.554667-79.018667-1.408-114.816-1.237333z"  /></svg>