<?xml version="1.0" standalone="no"?><!DOCTYPE svg PUBLIC "-//W3C//DTD SVG 1.1//EN" "http://www.w3.org/Graphics/SVG/1.1/DTD/svg11.dtd"><svg class="icon" width="32px" height="32.00px" viewBox="0 0 1024 1024" version="1.1" xmlns="http://www.w3.org/2000/svg"><path fill="#000000" d="M461.696 87.04c25.301333-1.109333 67.2-2.901333 93.866667-0.597333 31.658667 2.730667 57.6 6.954667 79.872 22.186666 10.922667 7.552 21.930667 19.968 27.989333 27.008 5.76 6.698667 10.581333 12.885333 12.8 15.786667l0.426667 0.469333a2018.688 2018.688 0 0 1 81.962666 114.56c21.76 33.493333 36.48 61.013333 44.970667 80.298667 11.52 26.112 18.133333 44.885333 18.346667 76.8 0.128 19.285333-0.512 51.114667-4.266667 84.693333-3.712 33.450667-10.24 66.986667-15.146667 88.533334-5.333333 23.04-9.344 34.474667-17.28 52.224a789.333333 789.333333 0 0 1-23.424 47.658666l3.370667 3.242667c6.698667 6.357333 18.176 16.853333 36.608 33.024 27.562667 22.314667 72.533333 56.149333 96.896 74.538667 23.893333 17.962667 25.898667 19.498667 27.733333 21.034666a42.666667 42.666667 0 0 1-53.589333 66.346667c-0.426667-0.341333-1.109333-0.896-25.472-19.285333-24.064-18.133333-70.912-53.333333-99.84-76.8l-0.682667-0.469334-0.64-0.597333a1531.477333 1531.477333 0 0 1-35.84-32.298667c-9.514667 9.898667-20.053333 20.224-30.208 28.586667a190.506667 190.506667 0 0 1-43.264 27.136c-12.629333 5.76-22.016 8.618667-41.557333 12.970667-19.157333 4.266667-50.56 10.538667-89.898667 12.8-38.826667 2.261333-83.413333 0.682667-120.746666-3.754667a590.933333 590.933333 0 0 1-84.992-16.512c-17.621333-4.778667-26.88-7.765333-38.4-13.312-18.474667-8.789333-43.093333-21.589333-63.317334-38.058667-13.44-10.922667-30.336-27.690667-49.493333-53.034666a267.690667 267.690667 0 0 1-26.026667-41.216c-13.781333-27.050667-25.770667-51.84-29.781333-77.013334a572.714667 572.714667 0 0 1-6.869333-69.248 659.157333 659.157333 0 0 1 3.925333-101.205333c4.181333-34.432 11.349333-64.896 19.626667-92.288a652.373333 652.373333 0 0 1 24.192-66.56c6.741333-15.701333 11.648-25.258667 19.2-35.712 11.861333-16.426667 29.568-37.973333 53.76-57.898667 12.8-10.496 24.917333-18.346667 45.952-29.226666a887.210667 887.210667 0 0 1 75.946666-34.56 517.546667 517.546667 0 0 1 68.778667-21.930667c20.266667-4.864 35.968-7.082667 64.512-8.32z m86.613333 84.394667c-19.925333-1.706667-55.466667-0.341333-82.901333 0.853333-24.106667 1.066667-34.261333 2.730667-48.341333 6.058667-15.274667 3.669333-34.432 9.386667-57.386667 18.389333-23.296 9.173333-50.005333 21.632-68.096 30.976-17.237333 8.874667-23.936 13.568-30.848 19.2a224.853333 224.853333 0 0 0-38.784 42.026667c-2.389333 3.328-4.48 6.528-10.069333 19.498666a569.173333 569.173333 0 0 0-20.821334 57.6 454.741333 454.741333 0 0 0-16.64 77.781334 573.994667 573.994667 0 0 0-3.328 87.637333c1.024 26.410667 3.882667 46.677333 5.888 59.093333 1.578667 9.856 6.912 23.04 21.504 51.84 5.248 10.24 10.794667 18.602667 18.176 28.458667 15.488 20.522667 27.733333 32.128 35.157334 38.229333 12.032 9.813333 29.013333 19.029333 46.250666 27.306667 4.565333 2.133333 7.936 3.584 23.850667 7.850667 15.530667 4.181333 40.533333 10.282667 72.832 14.122666 32.682667 3.882667 72.234667 5.333333 105.685333 3.413334a471.168 471.168 0 0 0 92.928-15.146667c2.773333-0.853333 4.864-1.664 8.106667-3.114667 6.357333-2.901333 14.250667-7.082667 24.490667-15.488a357.546667 357.546667 0 0 0 36.224-36.096 151.04 151.04 0 0 0 21.546666-30.037333c7.68-13.653333 17.152-33.28 23.594667-47.744a158.72 158.72 0 0 0 11.989333-36.48c4.437333-19.285333 10.24-49.493333 13.525334-78.848 3.242667-29.226667 3.84-57.514667 3.754666-74.666667-0.128-15.616-1.962667-22.186667-11.136-43.050666-6.186667-14.08-18.474667-37.546667-38.4-68.138667a1948.16 1948.16 0 0 0-77.141333-107.904l-0.768-0.981333c0-0.085333-0.298667-0.426667-0.853333-1.066667a342.314667 342.314667 0 0 0-9.6-11.776 182.272 182.272 0 0 0-8.106667-8.96c-1.962667-2.005333-3.114667-2.986667-3.456-3.242667-2.261333-1.536-8.021333-4.949333-38.826667-7.594666z m219.136 539.733333l-0.170666-1.024-0.213334-0.512 0.426667 1.578667z m-4.437333-11.264l-0.085333-0.213333-0.597334-0.853334 0.682667 1.066667z m-314.709333-412.458667a42.709333 42.709333 0 0 1 43.648 41.685334c0.298667 12.202667 0.597333 24.576 3.669333 72.96l1.450667 21.461333c16.810667-0.170667 32.810667-0.298667 45.781333-0.597333 37.888-0.896 46.762667-2.346667 55.637333-3.626667a42.666667 42.666667 0 0 1 12.288 84.437333c-12.928 1.834667-25.216 3.498667-65.834666 4.48-12.074667 0.298667-26.624 0.384-42.069334 0.554667 1.92 26.88 3.712 52.266667 5.12 70.741333 3.2 44.032 3.626667 45.653333 4.053334 50.56a42.666667 42.666667 0 0 1-84.992 7.552c-0.426667-4.693333-0.853333-7.082667-4.181334-51.882666l-5.504-76.672c-5.76-0.085333-11.178667 0-16.085333-0.085334-37.674667-0.597333-47.786667-2.176-58.666667-4.437333a42.666667 42.666667 0 0 1 17.450667-83.541333c2.517333 0.512 4.266667 0.896 9.088 1.322666 5.76 0.512 15.530667 1.024 33.493333 1.28 2.773333 0.085333 5.76 0 8.917334 0.042667l-1.109334-16.085333a1637.632 1637.632 0 0 1-3.84-76.458667 42.709333 42.709333 0 0 1 41.685334-43.690667z"  /></svg>