<?xml version="1.0" standalone="no"?><!DOCTYPE svg PUBLIC "-//W3C//DTD SVG 1.1//EN" "http://www.w3.org/Graphics/SVG/1.1/DTD/svg11.dtd"><svg class="icon" width="32px" height="32.00px" viewBox="0 0 1024 1024" version="1.1" xmlns="http://www.w3.org/2000/svg"><path fill="#000000" d="M562.346667 160.384c19.029333 0.554667 34.816 13.525333 39.808 30.890667 2.304 2.56 4.949333 5.589333 8.277333 9.088 11.477333 12.202667 27.733333 28.458667 38.912 39.978666 10.752 11.093333 12.458667 13.397333 25.045333 24.832 13.098667 11.946667 36.266667 32.256 67.498667 56.405334 31.445333 24.362667 69.717333 51.626667 101.205333 71.509333 31.317333 19.754667 55.210667 31.914667 71.466667 40.704 6.4 3.456 16.853333 9.045333 24.576 16.256a50.176 50.176 0 0 1 14.805333 51.498667c-3.882667 13.568-12.629333 23.722667-18.474666 30.08-6.741333 7.296-15.957333 16-27.52 26.453333a2264.149333 2264.149333 0 0 1-92.714667 78.848c-16.128 12.885333-30.72 23.978667-44.544 34.432-13.994667 10.581333-27.093333 20.437333-40.96 31.402667a1240.021333 1240.021333 0 0 0-80.725333 69.290666c-11.434667 10.837333-21.205333 20.821333-29.44 29.226667-7.381333 7.594667-15.488 16.085333-21.589334 21.333333-0.853333 0.682667-5.632 4.906667-12.117333 8.021334a44.629333 44.629333 0 0 1-45.525333-3.797334c-13.354667-9.6-16.981333-23.381333-17.792-26.453333a84.224 84.224 0 0 1-2.389334-13.952c-1.322667-14.592-1.408-42.410667-1.536-88.789333-0.256-95.701333-0.64-277.376-0.682666-374.314667 0-58.88 0.170667-86.528 0.341333-101.888a42.666667 42.666667 0 0 1 40.533333-60.885333c1.152-0.085333 2.389333-0.213333 3.584-0.170667z m-417.28 55.466667c8.234667 0 15.914667 2.346667 22.442666 6.4a42.666667 42.666667 0 0 1 43.392 15.573333l0.682667 0.597333 2.901333 2.730667c5.76 5.290667 16.469333 14.634667 25.984 22.869333h-0.042666c7.338667 6.314667 15.232 12.373333 25.472 20.138667 10.069333 7.68 21.76 16.64 34.986666 27.733333 16.341333 13.738667 36.864 32.64 48 43.008 10.624 9.856 12.330667 11.690667 31.189334 27.178667 19.2 15.786667 55.936 45.568 76.629333 63.146667 17.109333 14.634667 27.178667 23.978667 34.090667 34.261333l2.773333 4.522667 2.176 4.010666c2.688 5.461333 6.4 15.232 5.674667 27.349334-1.066667 17.066667-10.069333 29.44-17.92 37.376a576 576 0 0 1-51.413334 45.610666c-13.141333 10.368-23.850667 18.901333-30.464 25.685334-6.570667 6.741333-19.072 20.650667-57.344 49.834666-29.098667 22.186667-66.133333 47.658667-87.296 64.981334-26.709333 21.845333-33.322667 26.282667-44.032 38.4-9.173333 10.410667-16.810667 20.053333-22.4 27.136l-7.253333 9.088a47.530667 47.530667 0 0 1-8.021333 8.234666c-1.024 0.853333-4.352 3.498667-9.130667 5.76-2.005333 0.896-20.309333 9.642667-39.978667-2.133333a42.794667 42.794667 0 0 1-20.821333-36.48c-0.042667-7.893333 1.962667-22.784 3.072-31.914667 0.128-0.938667 0.426667 0.853333-0.64-81.792-1.024-80.298667-3.2-233.642667-4.266667-315.349333C102.4 278.186667 102.4 268.373333 102.4 258.517333a42.666667 42.666667 0 0 1 42.666667-42.666666zM603.306667 323.285333c0 96.810667 0.426667 278.4 0.682666 374.101334v0.128a1392.341333 1392.341333 0 0 1 72.874667-61.696c14.762667-11.648 28.672-22.186667 42.368-32.512 13.824-10.453333 27.605333-20.906667 42.752-33.024a2179.157333 2179.157333 0 0 0 87.637333-74.581334 937.941333 937.941333 0 0 1-52.053333-30.464 1476.821333 1476.821333 0 0 1-107.861333-76.202666 1202.730667 1202.730667 0 0 1-72.789334-60.8 438.698667 438.698667 0 0 1-13.653333-12.970667v8.021333z m-414.421334 35.413334c1.066667 81.493333 3.242667 235.093333 4.266667 315.349333l0.042667 6.698667 9.813333-7.978667c21.461333-17.536 67.2-49.664 89.6-66.730667 33.664-25.685333 42.965333-36.437333 47.957333-41.557333 11.349333-11.605333 27.136-23.978667 38.570667-33.024 4.949333-3.925333 13.312-10.666667 23.68-19.968l-1.450667-1.28c-19.882667-16.981333-55.168-45.525333-75.392-62.165333-20.565333-16.896-23.594667-19.925333-35.2-30.72-11.093333-10.325333-30.250667-27.904-44.672-40.021334-11.648-9.813333-21.973333-17.706667-31.914666-25.301333a744.490667 744.490667 0 0 1-25.6-20.224l0.298666 26.88z"  /></svg>