<?xml version="1.0" standalone="no"?><!DOCTYPE svg PUBLIC "-//W3C//DTD SVG 1.1//EN" "http://www.w3.org/Graphics/SVG/1.1/DTD/svg11.dtd"><svg class="icon" width="32px" height="32.00px" viewBox="0 0 1024 1024" version="1.1" xmlns="http://www.w3.org/2000/svg"><path fill="#000000" d="M482.389333 219.989333a42.666667 42.666667 0 0 1 11.861334 84.48c-3.242667 0.469333-6.954667 0.554667-7.424 0.554667-1.749333 0.085333-4.010667 0.085333-6.613334 0.128a21565.141333 21565.141333 0 0 1-94.506666 0.512c-24.064 0.085333-55.893333 1.621333-104.874667 3.2-31.402667 1.024-40.789333 3.584-60.288 5.290667-11.178667 0.981333-20.992 1.962667-29.269333 3.2a137.386667 137.386667 0 0 0-8.234667 1.536l-0.554667 2.048a181.504 181.504 0 0 0-2.688 19.626666c-0.682667 6.656-1.621333 18.56-2.517333 27.050667-1.28 12.544-1.706667 23.168-2.346667 52.010667-0.170667 7.466667-0.682667 10.581333-1.066666 58.965333-0.384 48.682667-0.682667 141.653333 1.109333 219.946667 1.877333 79.616 5.888 137.130667 12.16 165.248 0.426667 1.877333 0.853333 3.456 1.237333 4.821333 13.525333 1.706667 28.330667 2.474667 68.864 2.816 44.586667 0.384 129.536-1.109333 205.738667-1.706667 75.648-0.597333 137.301333-0.853333 171.477333-1.28 45.482667-0.512 72.32-12.117333 82.602667-17.493333 0.128-0.938667 0.426667-2.090667 0.554667-3.541333 1.024-8.192 2.133333-23.082667 3.114666-50.816 1.834667-55.466667 2.730667-157.44 3.626667-263.552a42.666667 42.666667 0 0 1 85.333333 0.768c-0.896 105.429333-1.792 208.810667-3.712 265.642666-1.834667 54.997333-4.48 71.936-10.197333 86.101334l-0.682667 1.706666-0.853333 1.706667c-8.149333 16.085333-19.2 27.392-33.28 35.328-19.882667 11.264-61.226667 28.714667-125.44 29.525333-34.389333 0.426667-96.853333 0.64-171.904 1.237334-74.496 0.597333-161.621333 2.090667-207.061333 1.706666-49.194667-0.426667-66.005333-1.28-89.386667-4.864-6.144-0.981333-23.722667-3.370667-38.997333-18.730666-13.354667-13.44-20.096-31.786667-24.32-50.858667-8.362667-37.632-12.330667-103.424-14.165334-181.76a7892.778667 7892.778667 0 0 1-1.152-222.634667c0.384-49.066667 0.896-54.058667 1.066667-60.117333 0.597333-28.757333 1.109333-42.624 2.816-59.050667 1.493333-14.250667 2.816-37.888 6.613333-55.68 3.754667-17.493333 13.397333-48.213333 45.44-61.44 11.050667-4.608 23.594667-7.04 34.133334-8.618666 11.093333-1.706667 23.168-2.858667 34.517333-3.84 10.410667-0.896 31.488-4.48 64.896-5.546667 46.805333-1.578667 81.706667-3.2 107.434667-3.285333a21459.584 21459.584 0 0 0 93.482666-0.512c2.474667 0 4.266667 0 5.418667-0.085334l-1.962667 0.256z m337.450667-116.181333c6.229333-2.005333 18.346667-4.778667 31.957333-1.621333 21.845333 5.034667 34.986667 21.333333 42.069334 37.546666 6.101333 13.952 9.813333 32.768 12.501333 47.914667 3.2 17.834667 5.632 33.749333 9.045333 51.2 9.386667 47.957333 19.157333 78.421333 24.490667 93.781333l3.712 10.410667 0.554667 1.578667 0.426666 1.621333c1.493333 5.845333 2.688 10.368 4.266667 14.848 0.426667 1.152 1.194667 2.816 3.114667 6.442667a42.666667 42.666667 0 0 1-75.221334 40.32 143.616 143.616 0 0 1-7.68-16.341334l-0.512-1.322666a254.72 254.72 0 0 1-6.144-20.821334c-3.328-9.130667-15.786667-42.410667-28.032-100.693333-1.152 1.621333-2.133333 3.157333-3.072 4.394667l-0.256 0.298666c-3.84 5.12-12.202667 17.28-25.728 37.248l-0.981333 1.408c-10.965333 14.805333-30.250667 35.626667-53.930667 63.786667-15.616 18.56-36.650667 44.672-77.653333 84.181333-20.352 19.626667-45.482667 41.813333-69.376 63.104-24.32 21.632-47.445333 42.410667-65.408 60.330667a3365.205333 3365.205333 0 0 0-61.866667 63.146667 857.002667 857.002667 0 0 0-15.530666 16.725333 42.666667 42.666667 0 0 1-75.946667-26.666667 44.458667 44.458667 0 0 1 8.021333-24.96c0.725333-1.024 1.408-1.834667 1.706667-2.133333l1.621333-2.048a919.978667 919.978667 0 0 1 18.176-19.712c12.970667-13.653333 33.408-34.688 63.573334-64.768a1731.456 1731.456 0 0 1 68.949333-63.658667c24.490667-21.802667 48.042667-42.624 66.901333-60.757333 37.418667-36.053333 55.850667-59.050667 71.552-77.738667 28.288-33.621333 41.258667-47.061333 50.346667-59.306666 12.288-18.133333 22.186667-32.554667 27.733333-39.936 2.261333-2.986667 5.077333-6.997333 8.106667-11.392-37.077333 12.074667-85.333333 27.690667-113.152 36.394666-17.493333 5.504-27.52 8.533333-33.578667 10.154667-6.4 1.706667-11.605333 2.773333-18.133333 2.773333a42.666667 42.666667 0 0 1-4.522667-85.077333l0.597334-0.170667c4.138667-1.109333 12.629333-3.626667 30.08-9.088 34.730667-10.88 102.4-32.725333 138.666666-44.672 35.626667-11.733333 37.802667-12.928 44.458667-15.36l4.096-1.365333zM461.226667 662.357333l0.810666-0.981333 0.170667-0.298667-0.981333 1.28z m2.133333-3.072l0.682667-0.981333 0.298666-0.64a38.528 38.528 0 0 1-0.981333 1.621333z"  /></svg>