<?xml version="1.0" standalone="no"?><!DOCTYPE svg PUBLIC "-//W3C//DTD SVG 1.1//EN" "http://www.w3.org/Graphics/SVG/1.1/DTD/svg11.dtd"><svg class="icon" width="32px" height="32.00px" viewBox="0 0 1024 1024" version="1.1" xmlns="http://www.w3.org/2000/svg"><path fill="#000000" d="M363.690667 45.354667c26.026667-1.237333 57.472-1.28 85.333333 0.768 50.048 3.626667 78.421333 11.093333 92.16 16.085333 9.386667 3.413333 21.461333 8.874667 41.898667 20.053333 22.186667 12.117333 47.402667 27.306667 69.802666 38.912 20.138667 10.453333 32.768 15.018667 43.093334 18.048 17.066667 4.992 38.741333 6.058667 64.128 5.76 4.906667-0.042667 11.946667-1.877333 20.138666-5.674666 7.850667-3.626667 14.08-7.850667 16.64-9.728l0.938667-0.768 2.474667-2.005334a55.850667 55.850667 0 0 1 12.885333-8.106666l4.693333-1.834667a46.037333 46.037333 0 0 1 46.122667 9.6c11.434667 10.410667 14.506667 23.509333 15.402667 27.989333 2.346667 11.008 1.834667 23.466667 1.408 31.36-0.512 8.96-1.493333 18.773333-2.133334 25.728-0.853333 9.045333-0.853333 11.221333-0.938666 10.368v0.170667l0.085333 0.725333 0.256 2.986667c0.213333 2.474667 0.426667 5.845333 0.64 10.666667 0.426667 9.685333 0.938667 25.856 1.365333 54.741333 0.853333 57.685333 1.706667 167.210667 2.005334 226.56 0.298667 65.450667-0.896 76.885333-2.346667 89.216a316.16 316.16 0 0 0-1.493333 18.176l-0.512 7.552c-0.085333 1.536-0.426667 5.930667-1.365334 10.24-3.754667 16.853333-15.530667 27.349333-19.754666 31.018667-6.016 5.248-12.928 9.813333-19.072 13.525333-12.501333 7.466667-27.605333 14.848-40.405334 20.821333-14.976 6.997333-32.128 7.168-41.941333 7.04-11.605333-0.128-25.216-1.194667-37.12-2.048-16.64-1.152-42.581333-5.376-81.109333-11.52-25.728-4.138667-50.858667-14.08-66.346667-19.797333-32.085333-11.946667-57.386667-25.130667-77.653333-35.285333-13.824-6.912-31.146667-11.136-50.773334-15.232-5.888-1.194667-10.666667-1.28-45.781333-2.218667a1543.253333 1543.253333 0 0 0-93.568 2.218667c-27.050667 1.365333-39.509333 5.12-49.92 8.618666a42.24 42.24 0 0 0-10.325333 8.746667l-1.066667 1.152h0.042667a42.410667 42.410667 0 0 1-20.693334 17.109333l-1.152 132.693334c-0.981333 119.850667-0.682667 124.032-0.469333 128.682666 0.256 6.314667 0.426667 12.885333 0.554667 19.285334a42.666667 42.666667 0 1 1-85.290667 2.261333 1371.349333 1371.349333 0 0 0-0.554667-18.176c-0.298667-7.253333-0.554667-14.208 0.426667-132.821333 1.024-119.466667 3.285333-345.557333 4.010667-461.866667 0.768-117.930667-0.085333-120.746667-0.426667-123.733333a42.88 42.88 0 0 1-0.213333-8.192 42.453333 42.453333 0 0 1 0.938666-30.805334c3.84-8.96 9.088-19.712 14.08-29.056 4.565333-8.576 10.538667-19.029333 15.701334-25.856l3.84-4.608c9.472-10.496 22.229333-18.901333 33.152-25.685333 23.466667-14.506667 55.125333-25.472 87.466666-34.858667 22.485333-6.570667 46.890667-7.850667 70.741334-9.002666z m79.189333 85.888a664.789333 664.789333 0 0 0-75.093333-0.682667c-25.472 1.194667-39.765333 2.432-51.029334 5.717333-31.658667 9.216-53.504 17.578667-66.261333 25.514667a160 160 0 0 0-12.544 8.405333c-2.432 1.834667-2.602667 2.346667-1.92 1.493334a262.528 262.528 0 0 0-7.978667 13.866666 361.984 361.984 0 0 0-6.357333 12.501334c0.426667 1.706667 0.810667 3.498667 1.024 5.290666 1.152 9.685333 1.749333 19.626667 1.024 134.357334-0.341333 56.576-1.194667 139.221333-1.962667 222.848h0.256c15.872-5.461333 36.138667-12.245333 76.544-14.293334 26.965333-1.322667 72.661333-2.986667 100.053334-2.304 29.696 0.810667 45.354667 0.768 60.885333 3.968 19.2 4.010667 46.677333 9.941333 71.68 22.442667 21.546667 10.794667 42.325333 21.674667 69.12 31.573333 18.346667 6.826667 34.56 13.098667 50.090667 15.573334 40.96 6.528 61.866667 9.813333 73.642666 10.666666 13.610667 0.981333 23.765333 1.792 32.170667 1.877334 3.413333 0.042667 5.717333-0.170667 7.210667-0.298667 11.52-5.418667 22.101333-10.666667 29.994666-15.36a368.64 368.64 0 0 1 1.578667-17.28c0.810667-6.997333 2.048-14.165333 1.706667-79.018667a27595.52 27595.52 0 0 0-1.92-225.578666c-0.853333-56.533333-1.877333-61.141333-2.133334-64.170667-0.085333-0.896-0.042667-1.877333-0.085333-2.816-9.6 2.688-20.266667 4.650667-31.488 4.778667-25.898667 0.298667-58.837333-0.298667-89.130667-9.173334a315.477333 315.477333 0 0 1-58.453333-24.234666c-22.357333-11.605333-54.485333-30.549333-71.381333-39.765334-18.602667-10.154667-26.453333-13.397333-30.122667-14.762666-4.608-1.664-24.832-7.936-69.12-11.136z"  /></svg>