<?xml version="1.0" standalone="no"?><!DOCTYPE svg PUBLIC "-//W3C//DTD SVG 1.1//EN" "http://www.w3.org/Graphics/SVG/1.1/DTD/svg11.dtd"><svg class="icon" width="32px" height="32.00px" viewBox="0 0 1024 1024" version="1.1" xmlns="http://www.w3.org/2000/svg"><path fill="#000000" d="M572.672 348.458667c53.973333-0.64 126.848 0.085333 167.424 0.853333 50.346667 0.853333 75.690667 6.272 104.234667 12.416 24.32 5.290667 36.778667 8.021333 50.645333 13.184 21.290667 7.936 31.701333 27.008 35.584 34.432 5.12 9.6 9.6 21.248 12.672 28.928 6.101333 15.189333 7.68 30.506667 8.405333 45.653333 0.64 14.592 0.512 34.474667 0.810667 58.24 0.597333 47.914667-0.725333 139.349333-2.346667 200.533334-1.621333 61.866667-4.138667 91.733333-6.613333 113.066666-5.205333 44.970667-12.8 70.613333-33.578667 90.965334-12.032 11.776-26.794667 13.866667-31.488 14.634666-6.229333 1.024-16 2.090667-28.501333 3.584-27.818667 3.370667-78.421333 8.746667-133.546667 11.861334a2831.317333 2831.317333 0 0 1-145.92 4.010666c-65.536 0.128-101.418667-12.970667-119.722666-19.968-43.093333-16.426667-63.957333-44.885333-74.069334-58.154666-19.029333-24.917333-18.773333-52.352-19.242666-59.861334-1.194667-18.090667-0.341333-36.48 3.712-83.797333 3.754667-44.458667 10.794667-131.84 14.976-178.602667 2.346667-25.856 4.224-42.026667 5.845333-54.4 1.706667-12.842667 2.730667-19.498667 3.712-28.970666 3.242667-51.925333 4.010667-65.322667 4.394667-70.784 0.426667-5.504 1.152-10.154667 3.712-20.053334a42.624 42.624 0 0 1 7.552-15.402666 42.666667 42.666667 0 0 1 42.410666-38.272h3.797334l19.2-0.554667c16.725333-0.597333 51.968-2.901333 105.941333-3.541333z m1.024 85.333333c-48.426667 0.554667-78.933333 2.389333-98.816 3.242667-0.512 7.509333-1.536 24.32-4.181333 67.029333l-0.042667 0.853333-0.085333 0.853334c-1.152 11.050667-2.56 20.565333-4.010667 31.36a1210.88 1210.88 0 0 0-5.461333 50.901333c-4.181333 46.592-11.136 132.949333-14.976 178.218667-4.096 48-4.266667 60.288-3.584 71.125333 0.853333 12.757333 1.194667 12.629333 1.962666 13.568 8.789333 11.52 17.408 22.869333 36.608 30.208 11.776 4.48 37.077333 14.421333 89.216 14.336 32.213333-0.042667 88.234667-0.853333 141.141334-3.84 52.906667-3.029333 101.589333-8.192 128.128-11.392l13.482666-1.621333c1.664-5.973333 3.669333-15.872 5.632-32.682667 2.090667-18.133333 4.522667-45.354667 6.101334-105.514667 1.621333-60.842667 2.901333-150.954667 2.304-197.205333-0.341333-26.624-0.170667-42.666667-0.768-55.466667-0.512-12.288-1.664-16.042667-2.304-17.706666-1.962667-4.821333-3.498667-8.704-5.12-12.501334-0.853333-2.133333-1.749333-3.925333-2.474667-5.418666a668.16 668.16 0 0 0-30.208-6.997334c-25.728-5.546667-45.056-9.770667-87.722667-10.538666-40.149333-0.682667-112.042667-1.450667-164.821333-0.853334z m24.746667-391.381333c6.4 0.213333 17.536 0.554667 28.757333 6.485333l4.778667 2.944 5.12 3.925333c10.965333 9.6 15.616 21.461333 17.664 28.032 3.328 10.496 17.834667 38.144 19.968 85.632 0.896 20.096 1.450667 36.352 1.621333 47.872 0.085333 5.674667 0.128 10.496 0.042667 14.165334a61.013333 61.013333 0 0 1-1.536 14.208c-0.170667 0.725333-1.578667 6.826667-5.802667 13.269333a42.666667 42.666667 0 0 1-78.037333-28.373333l0.042666-0.597334v-11.349333a1625.173333 1625.173333 0 0 0-1.536-45.397333 123.050667 123.050667 0 0 0-9.642666-45.653334c-6.656 0.042667-15.36 0.256-26.88 0.426667-48 0.938667-139.605333 3.285333-189.269334 4.821333-53.888 1.706667-62.08 2.816-76.032 4.096-23.594667 2.133333-37.12 4.650667-46.08 6.826667-10.410667 2.56-12.672 3.925333-24.576 7.552-4.693333 1.408-14.165333 6.912-25.856 24.618667 0.682667-1.066667 0.341333-0.981333-0.853333 2.730666a332.373333 332.373333 0 0 0-5.248 19.2c-4.010667 15.786667-9.514667 41.301333-13.952 101.973334-4.48 61.568-7.594667 157.098667-9.045333 210.176-0.981333 34.005333-0.597333 51.797333 0.170666 61.696l0.042667 0.725333c6.570667 2.645333 15.146667 5.632 24.661333 8.362667l0.853334 0.256 0.810666 0.298666c19.498667 6.485333 34.986667 11.776 48.469334 16.213334 12.885333 4.224 20.650667 6.485333 24.704 7.381333 3.456 0.512 7.168 0.725333 13.013333 1.024a42.666667 42.666667 0 0 1-4.053333 85.248c-5.973333-0.298667-14.250667-0.682667-23.296-2.090667l-0.981334-0.128-0.981333-0.213333a354.005333 354.005333 0 0 1-34.986667-10.154667c-13.098667-4.266667-30.165333-10.154667-48.042666-16.085333a307.157333 307.157333 0 0 1-38.826667-13.696 111.701333 111.701333 0 0 1-19.584-10.965333c-4.821333-3.498667-17.152-13.013333-21.76-29.866667-1.706667-6.186667-4.010667-13.952-5.205333-29.952-1.066667-14.378667-1.322667-35.669333-0.341334-70.4 1.450667-52.949333 4.608-150.272 9.258667-214.016 4.736-64.597333 10.88-95.189333 16.341333-116.736 4.053333-15.872 8.192-33.706667 17.578667-47.957333 17.792-26.922667 41.557333-50.048 72.490667-59.349334 4.181333-1.28 16.341333-5.632 28.842666-8.704 14.08-3.498667 32.085333-6.528 58.666667-8.96 15.573333-1.450667 25.472-2.688 81.152-4.394666 49.92-1.536 141.866667-3.882667 190.250667-4.821334 23.722667-0.426667 38.186667-0.597333 47.104-0.298666z"  /></svg>