<?xml version="1.0" standalone="no"?><!DOCTYPE svg PUBLIC "-//W3C//DTD SVG 1.1//EN" "http://www.w3.org/Graphics/SVG/1.1/DTD/svg11.dtd"><svg class="icon" width="32px" height="32.00px" viewBox="0 0 1024 1024" version="1.1" xmlns="http://www.w3.org/2000/svg"><path fill="#000000" d="M522.410667 408.789333c2.816 0.256 18.56 0.512 33.578666 8.746667l6.4 4.096 11.733334 9.088c1.493333 1.237333 3.2 2.688 4.778666 4.181333a55.722667 55.722667 0 0 1 6.144 6.826667c0.426667 0.597333 1.237333 1.749333 2.218667 3.413333l3.114667 6.229334 1.365333 4.138666a42.496 42.496 0 0 1-1.493333 27.52c2.944 8.917333 4.778667 20.053333 4.736 32.085334 0 4.266667 0.256 17.237333-6.485334 30.677333a89.770667 89.770667 0 0 1-47.872 44.501333 142.08 142.08 0 0 1-21.248 7.381334c-3.114667 0.768-23.296 7.253333-43.52 0.597333a113.322667 113.322667 0 0 1-15.914666-6.4 62.933333 62.933333 0 0 1-20.906667-16.64 76.074667 76.074667 0 0 1-16.810667-41.941333 252.373333 252.373333 0 0 1-0.725333-28.288c0.298667-9.472 1.237333-16.554667 2.56-23.04 0.810667-4.053333 2.389333-11.861333 6.058667-20.010667l3.029333-6.4c3.84-7.424 10.026667-17.408 20.096-25.429333l4.864-3.797334a85.333333 85.333333 0 0 1 28.16-14.506666l7.168-1.706667c7.850667-1.493333 17.664-2.389333 29.013333-1.322667z m-298.325334 15.274667a42.496 42.496 0 0 1 24.832 11.434667c6.826667 1.493333 14.336 3.882667 21.845334 8.021333l4.48 2.730667 5.248 3.498666c5.973333 4.138667 13.568 10.24 20.181333 18.56 1.706667 2.133333 13.226667 14.762667 18.005333 32.426667l1.578667 7.893333 0.768 8.405334c0.341333 11.52-1.834667 30.976-19.072 45.738666-9.813333 8.448-23.04 16.896-41.6 22.186667-6.357333 1.792-20.437333 5.845333-32.725333 6.826667-11.093333 0.810667-32.597333 2.218667-51.882667-9.216a76.373333 76.373333 0 0 1-27.861333-26.538667c-3.712-6.229333-12.8-21.674667-13.44-40.832-0.128-4.949333-1.536-22.613333 8.362666-40.277333l4.565334-7.936c2.005333-3.242667 4.48-6.954667 7.296-10.538667 5.973333-7.509333 15.445333-17.024 29.738666-22.613333l16.213334-5.973334 4.906666-1.621333 2.005334-0.597333 1.493333-0.426667a55.466667 55.466667 0 0 1 4.010667-0.810667c0.512-0.085333 3.242667-0.512 6.698666-0.512l4.352 0.170667z m582.954667-0.426667c10.24-0.384 20.736 0.426667 30.336 1.621334a42.624 42.624 0 0 1 37.162667 46.72l4.608 5.418666 6.101333 9.045334c2.133333 3.669333 4.437333 8.192 6.186667 13.226666l1.493333 5.290667 0.981333 4.48a64 64 0 0 1-1.92 32.469333c-2.261333 6.698667-8.917333 25.6-27.093333 36.736a89.173333 89.173333 0 0 1-41.813333 12.501334c-7.893333 0.469333-16.768 0.213333-24.704-0.896a87.381333 87.381333 0 0 1-22.912-6.229334c-5.632-2.432-18.474667-7.978667-28.928-18.944a70.656 70.656 0 0 1-16.341334-25.429333 66.901333 66.901333 0 0 1-3.541333-32.554667c1.237333-8.106667 4.096-22.784 13.226667-37.930666 3.84-6.4 10.666667-17.749333 19.84-26.112 3.498667-3.2 16.384-15.786667 37.248-18.56l10.069333-0.853334z"  /></svg>