<?xml version="1.0" standalone="no"?><!DOCTYPE svg PUBLIC "-//W3C//DTD SVG 1.1//EN" "http://www.w3.org/Graphics/SVG/1.1/DTD/svg11.dtd"><svg class="icon" width="32px" height="32.00px" viewBox="0 0 1024 1024" version="1.1" xmlns="http://www.w3.org/2000/svg"><path fill="#000000" d="M509.013333 727.637333l4.693334 0.682667 13.312 2.858667a107.264 107.264 0 0 1 9.216 2.816c0.768 0.298667 2.218667 0.853333 3.925333 1.749333a42.581333 42.581333 0 0 1 19.712 20.437333h0.170667l5.589333 3.242667 2.986667 1.962667 2.602666 2.346666c2.858667 2.602667 14.592 12.842667 19.84 31.146667 2.133333 7.338667 4.608 16.554667 5.845334 25.386667 0.938667 6.912 2.858667 23.936-6.570667 40.106666a51.456 51.456 0 0 1-26.666667 22.656 143.061333 143.061333 0 0 1-48.981333 10.965334c-9.770667 0.384-19.413333 0.682667-27.264 0.597333a129.962667 129.962667 0 0 1-12.586667-0.725333 58.624 58.624 0 0 1-18.944-5.248 83.584 83.584 0 0 1-20.224-13.44 58.794667 58.794667 0 0 1-19.029333-37.589334 78.165333 78.165333 0 0 1 10.88-49.450666c4.821333-8.106667 10.069333-16.768 15.317333-24.192 4.394667-6.229333 12.117333-16.597333 22.869334-23.637334l5.034666-3.285333c7.253333-4.352 21.248-11.093333 38.229334-9.386667z m16.981334-291.669333c8.618667 0.341333 18.218667 1.834667 28.117333 7.338667l4.266667 2.645333 2.304 1.578667 2.090666 1.834666c3.968 3.541333 9.130667 8.576 13.824 15.445334l4.522667 7.509333 3.626667 7.509333c3.882667 8.576 8.490667 20.394667 11.733333 33.706667 0.682667 2.858667 2.432 9.6 2.858667 16.426667 0.554667 8.149333-0.256 21.077333-9.002667 33.536-10.666667 15.018667-27.050667 24.149333-44.970667 28.8a288.469333 288.469333 0 0 1-26.88 5.845333 92.416 92.416 0 0 1-34.432-0.213333 95.018667 95.018667 0 0 1-17.706666-5.674667 54.442667 54.442667 0 0 1-25.898667-23.253333 79.573333 79.573333 0 0 1-8.661333-52.693334l2.346666-9.728c3.157333-10.496 8.661333-23.04 17.024-35.114666 1.493333-2.176 5.248-7.850667 9.344-12.416 3.84-4.352 11.52-11.733333 23.296-15.616a42.538667 42.538667 0 0 1 21.76-6.997334c6.229333-0.213333 13.653333-0.512 18.602667-0.512h1.834667z m-29.013334 88.021333l0.341334 0.042667-0.682667-0.170667c0.128 0 0.213333 0.085333 0.298667 0.128z m0.213334-393.642666c17.28-1.92 36.352 0.213333 44.8 2.346666 9.301333 2.346667 17.066667 7.637333 22.656 14.549334l1.408 0.554666 5.418666 2.816c4.906667 2.944 10.666667 7.338667 15.829334 13.909334l3.029333 4.224 3.541333 5.930666c8.106667 14.72 14.165333 35.498667 9.045334 62.933334-1.024 5.76-4.864 31.061333-28.757334 45.824-9.813333 6.101333-25.6 14.08-46.634666 14.378666-11.264 0.170667-29.525333 0.426667-44.074667-4.096-5.461333-1.706667-22.741333-6.698667-35.2-22.058666-2.602667-3.2-6.016-7.637333-8.96-12.928a56.96 56.96 0 0 1-7.253333-24.448c-0.042667-1.408-0.682667-8.746667 0.64-17.834667 1.365333-9.258667 4.565333-19.242667 10.24-29.866667 5.248-9.728 10.368-19.2 14.634666-26.282666 2.048-3.413333 4.778667-7.68 7.850667-11.52 1.493333-1.92 4.053333-4.949333 7.552-7.893334 2.474667-2.133333 11.008-9.088 24.234667-10.538666z"  /></svg>