<?xml version="1.0" standalone="no"?><!DOCTYPE svg PUBLIC "-//W3C//DTD SVG 1.1//EN" "http://www.w3.org/Graphics/SVG/1.1/DTD/svg11.dtd"><svg class="icon" width="32px" height="32.00px" viewBox="0 0 1024 1024" version="1.1" xmlns="http://www.w3.org/2000/svg"><path fill="#000000" d="M361.642667 47.616c15.530667 1.28 37.12 6.229333 59.392 16.213333 17.322667 7.808 27.050667 15.018667 33.621333 20.053334 7.850667 5.973333 21.418667 19.072 37.205333 37.802666 6.826667 8.021333 12.117333 15.189333 19.242667 26.624 1.749333-3.328 3.328-6.229333 4.650667-8.576 9.045333-16 21.077333-24.832 35.541333-34.304 13.610667-8.917333 36.693333-20.352 50.261333-26.965333 16.213333-7.893333 27.221333-12.032 41.386667-15.061333a288 288 0 0 1 70.826667-5.290667c19.370667 0.682667 38.314667 4.864 54.144 9.386667l14.677333 4.48 8.234667 3.242666c7.850667 3.626667 14.421333 8.106667 19.456 11.904 6.656 4.949333 13.525333 10.965333 18.645333 15.36 22.485333 19.2 30.976 47.829333 37.034667 74.154667 6.144 26.752 2.773333 47.189333 0.085333 57.130667-2.688 9.813333-8.021333 17.493333-12.117333 22.485333 6.229333 0 12.074667-0.128 17.28-0.170667 18.986667-0.042667 32.213333 0.384 41.472 1.28 4.522667 0.426667 9.472 1.109333 14.208 2.304 3.114667 0.853333 10.709333 2.944 18.218666 8.704l3.242667 2.688 3.242667 3.328c6.826667 7.850667 9.301333 16.085333 10.112 18.986667 1.237333 4.394667 1.877333 8.746667 2.304 12.032 0.853333 6.826667 1.621333 16.682667 2.602666 30.122667 1.706667 22.912 3.157333 61.866667 3.413334 88.362666 0.170667 20.266667-0.554667 34.986667-1.493334 45.738667a266.24 266.24 0 0 1-1.408 12.970667l-0.597333 4.010666-0.170667 1.194667v0.298667a48.469333 48.469333 0 0 1-17.109333 31.573333 51.754667 51.754667 0 0 1-26.581333 11.221333 352 352 0 0 1-27.776 2.56l-9.130667 0.426667c0.853333 18.688 1.621333 41.685333 1.493333 76.928-0.213333 54.613333-2.048 136.874667-4.181333 183.893333-2.133333 46.848-4.522667 61.610667-8.106667 74.666667-0.938667 3.413333-2.304 8.448-3.754666 12.8-1.450667 4.266667-4.138667 11.690667-9.472 18.901333-5.973333 8.106667-12.970667 16.682667-20.181334 23.978667-5.504 5.546667-17.109333 16.682667-32.426666 21.205333a90.666667 90.666667 0 0 1-20.394667 2.986667 2773.76 2773.76 0 0 1-56.490667 2.944c-61.824 2.858667-177.664 7.68-243.285333 11.050667-64.256 3.242667-80.896 5.12-123.050667 5.504a5756.245333 5756.245333 0 0 1-173.312-2.218667c-2.133333-0.128-15.786667 0-28.074666-8.277333a54.869333 54.869333 0 0 1-16.256-16.896 66.773333 66.773333 0 0 1-8.405334-22.229334 506.026667 506.026667 0 0 1-7.210666-57.728c-0.853333-11.477333-2.389333-26.496-3.882667-78.421333a18235.52 18235.52 0 0 1-3.669333-179.626667l-0.768-45.44c0-4.181333 0.597333-8.192 1.706666-12.032h-1.109333a113.109333 113.109333 0 0 1-31.658667-5.461333 92.373333 92.373333 0 0 1-21.76-11.008 53.248 53.248 0 0 1-14.549333-13.994667c-3.84-5.504-5.717333-10.794667-5.845333-11.093333l-0.426667-1.237333-0.426667-1.237334c-2.048-6.272-2.517333-13.098667-2.645333-14.634666a296.704 296.704 0 0 1-0.725333-12.970667c-0.426667-10.325333-0.64-25.088-0.725334-45.141333v-0.938667c0.469333-24.533333 2.048-56.448 3.626667-88.32a42.666667 42.666667 0 0 1 3.925333-15.872 42.666667 42.666667 0 0 1 38.656-58.112c8.448-0.213333 16.853333-0.384 98.816-1.28a110.805333 110.805333 0 0 1-13.312-52.48 422.826667 422.826667 0 0 1 0.256-29.269333c0.426667-7.808 1.408-19.2 5.546667-29.738667l3.84-9.429333a118.186667 118.186667 0 0 1 28.16-41.002667c14.762667-13.568 30.293333-27.178667 54.698667-34.688a2155.093333 2155.093333 0 0 1 52.309333-15.36c13.866667-3.712 21.930667-5.589333 32.64-5.376l6.314667 0.384z m-61.013334 500.48c-54.784 0.597333-78.378667 0.725333-91.989333 0.64 0.64 2.986667 1.024 5.973333 1.024 9.173333l0.725333 43.946667c0.725333 43.093333 2.176 127.957333 3.669334 178.645333 1.450667 50.048 2.816 63.616 3.669333 74.197334 0.725333 9.642667 1.578667 18.730667 2.645333 27.221333l5.973334 0.170667c33.621333 0.725333 98.517333 1.706667 138.837333 1.28 30.549333-0.256 45.013333-1.28 80.554667-3.285334-0.384-20.181333-0.341333-51.456 1.066666-119.168 1.152-57.344 3.285333-139.306667 5.290667-214.613333l-151.466667 1.792z m490.538667-9.045333c-27.904 1.706667-31.701333 2.645333-124.245333 4.224-34.005333 0.597333-80.085333 1.152-129.408 1.834666-2.090667 76.16-4.266667 159.573333-5.418667 217.557334a3241.301333 3241.301333 0 0 0-1.109333 113.152c65.365333-3.029333 148.949333-6.613333 197.333333-8.832a2647.381333 2647.381333 0 0 0 53.333333-2.858667c2.645333-2.773333 5.802667-6.528 9.173334-10.922667l0.341333-1.066666 1.493333-5.376c0.896-3.328 3.072-10.069333 5.162667-55.893334 2.090667-45.653333 3.925333-126.72 4.096-180.352 0.128-33.109333-0.597333-54.613333-1.365333-71.978666l-9.386667 0.512zM216.277333 349.610667l-81.578666 0.981333c-1.450667 29.866667-2.773333 57.770667-3.2 79.189333 0.042667 12.714667 0.213333 22.912 0.384 30.890667 16.554667 0.725333 43.392 1.706667 58.794666 2.304 14.506667 0.554667 15.018667 0.853333 109.013334-0.213333 40.234667-0.426667 96.426667-1.152 154.709333-1.877334l1.493333-54.656 1.664-59.221333c-87.850667 0.938667-180.608 1.962667-241.28 2.56z m655.232-8.192c-29.44 0.128-79.573333 0.810667-106.837333 1.408-27.392 0.597333-32.128 1.109333-137.813333 2.389333-23.850667 0.298667-52.565333 0.554667-83.925334 0.853333l-1.706666 62.549334-1.408 51.114666c47.914667-0.64 92.586667-1.237333 125.653333-1.792 91.136-1.578667 93.738667-2.432 120.576-4.053333 27.562667-1.664 70.784-3.712 98.261333-5.376 0.256-6.4 0.426667-14.293333 0.341334-23.808a1594.368 1594.368 0 0 0-3.114667-83.029333v-0.170667l-10.026667-0.085333zM352.384 133.12c-1.706667 0.426667-4.096 0.981333-7.296 1.877333-12.970667 3.498667-36.693333 10.581333-49.664 14.549334-4.693333 1.450667-8.106667 3.157333-22.058667 15.957333-3.584 3.328-5.802667 7.509333-9.6 17.152a60.288 60.288 0 0 0-0.426666 4.778667c-0.298667 5.546667-0.298667 13.013333-0.128 23.168a34.090667 34.090667 0 0 0 1.28 9.301333c0.469333 1.706667 1.109333 3.072 2.005333 4.693333 1.962667 3.413333 5.973333 7.978667 14.122667 15.445334 10.538667 9.685333 13.525333 10.24 33.834666 18.688l1.706667 0.64 1.194667 0.128 4.693333 0.213333c5.077333 0.298667 9.813333 1.408 14.250667 3.285333l140.373333-1.536c-7.936-17.322667-21.930667-41.216-32.256-58.666666-9.130667-15.445333-12.842667-20.224-17.792-26.112a309.333333 309.333333 0 0 0-16.810667-18.474667c-4.522667-4.608-6.912-6.528-6.997333-6.613333a76.202667 76.202667 0 0 0-6.186667-4.394667 85.162667 85.162667 0 0 0-10.453333-5.461333 122.453333 122.453333 0 0 0-21.418667-7.338667 69.418667 69.418667 0 0 0-10.368-1.749333 76.074667 76.074667 0 0 0-2.005333 0.426666z m358.4 10.24a203.690667 203.690667 0 0 0-49.92 3.498667c-5.461333 1.152-9.770667 2.432-21.930667 8.362666-14.890667 7.253333-32.725333 16.213333-40.874666 21.589334a171.648 171.648 0 0 0-6.826667 4.693333c-0.853333 0.597333-1.450667 1.066667-1.834667 1.408a193.578667 193.578667 0 0 0-18.346666 45.312 180.053333 180.053333 0 0 0-4.48 25.856c0.981333 2.261333 1.834667 4.394667 2.645333 6.4l56.618667-0.597333 18.816-0.298667a42.581333 42.581333 0 0 1 32-17.792c17.194667-1.109333 31.189333-2.048 42.709333-3.882667 10.581333-1.706667 19.114667-4.266667 25.301333-6.4a113.834667 113.834667 0 0 0 39.338667-25.301333c0-2.645333-0.213333-6.186667-1.194667-10.453333a143.786667 143.786667 0 0 0-7.296-24.448c-1.792-4.010667-2.688-4.565333-2.176-4.096-6.485333-5.546667-10.453333-8.96-14.250666-11.861334a36.352 36.352 0 0 0-3.498667-2.389333l0.426667 0.085333c-15.786667-5.162667-31.701333-9.173333-45.226667-9.642666z"  /></svg>