<?xml version="1.0" standalone="no"?><!DOCTYPE svg PUBLIC "-//W3C//DTD SVG 1.1//EN" "http://www.w3.org/Graphics/SVG/1.1/DTD/svg11.dtd"><svg class="icon" width="32px" height="32.00px" viewBox="0 0 1024 1024" version="1.1" xmlns="http://www.w3.org/2000/svg"><path fill="#000000" d="M167.594667 210.346667a42.666667 42.666667 0 0 1 58.794666-13.610667c4.394667 2.730667 8.021333 5.717333 17.194667 13.568 9.898667 8.533333 28.202667 24.533333 63.146667 55.381333 40.448 35.712 103.509333 91.562667 167.168 148.608 55.893333-60.586667 114.261333-121.642667 148.266666-157.226666A7000.576 7000.576 0 0 1 672.298667 204.8a42.666667 42.666667 0 0 1 60.16 60.501333c-0.426667 0.426667-0.938667 0.896-48.64 50.773334-34.048 35.626667-91.52 95.829333-146.474667 155.306666 24.362667 21.973333 47.701333 43.178667 68.565333 62.336 91.776 84.352 132.821333 126.634667 155.904 150.186667 15.914667 16.213333 22.357333 22.4 25.6 25.514667a42.666667 42.666667 0 0 1-25.642666 80.426666 53.077333 53.077333 0 0 1-27.946667-13.568l-2.645333-2.432c-2.986667-2.901333-7.210667-6.698667-30.293334-30.250666-22.442667-22.869333-62.336-64-152.661333-147.029334-20.778667-19.072-44.032-40.149333-68.352-62.122666l-5.12 5.76a2454.144 2454.144 0 0 0-132.394667 161.365333c-16.213333 21.632-26.325333 35.413333-32.64 44.202667-4.053333 5.674667-5.973333 8.533333-6.826666 9.728l-2.56 6.272a42.709333 42.709333 0 0 1-79.36-31.445334c1.237333-2.986667 2.944-7.253333 4.608-11.050666l0.298666-0.64 0.298667-0.554667c2.986667-6.016 8.021333-13.354667 14.122667-21.930667 6.912-9.642667 17.536-24.064 33.834666-45.866666l0.128-0.170667a2540.928 2540.928 0 0 1 136.704-166.570667l5.461334-6.144a33474.688 33474.688 0 0 0-166.186667-147.754666c-34.986667-30.848-52.821333-46.506667-62.250667-54.570667a336.597333 336.597333 0 0 0-7.936-6.698667h0.128a42.666667 42.666667 0 0 1-12.586666-58.026666z"  /></svg>