<?xml version="1.0" standalone="no"?><!DOCTYPE svg PUBLIC "-//W3C//DTD SVG 1.1//EN" "http://www.w3.org/Graphics/SVG/1.1/DTD/svg11.dtd"><svg class="icon" width="32px" height="32.00px" viewBox="0 0 1024 1024" version="1.1" xmlns="http://www.w3.org/2000/svg"><path fill="#000000" d="M617.386667 120.917333a42.666667 42.666667 0 0 1 60.16 5.546667l14.208 15.274667c9.514667 10.154667 23.082667 24.618667 39.893333 42.368 13.738667 14.506667 16.597333 16.213333 31.658667 31.445333 6.314667 6.4 13.994667 14.378667 21.248 21.888 7.338667 7.637333 14.250667 14.762667 19.370666 19.968 4.608 4.693333 7.338667 7.381333 10.666667 10.368l13.952 11.861333 0.085333 0.085334c36.181333 30.634667 62.421333 52.992 67.925334 57.770666l6.741333 5.418667a42.666667 42.666667 0 1 1-51.882667 67.754667 235.52 235.52 0 0 1-10.368-8.32l-0.256-0.213334-0.213333-0.213333c-1.578667-1.408-8.064-6.826667-18.261333-15.530667a42.624 42.624 0 0 1-4.096 4.437334c-4.906667 4.522667-14.805333 14.08-31.146667 30.421333-6.826667 6.826667-14.293333 12.202667-21.205333 17.194667-7.466667 5.290667-16.512 11.648-29.866667 21.674666-10.922667 8.192-21.034667 15.146667-29.610667 21.205334 1.365333 3.84 2.773333 8.021333 3.84 12.586666 2.133333 8.96 2.56 21.589333 2.858667 31.146667 0.341333 11.52 0.426667 25.984 0.426667 42.026667 0.128 24.576-3.584 40.746667-8.277334 57.6a237.696 237.696 0 0 1-27.093333 61.952c-22.485333 36.181333-41.344 56.32-53.845333 66.730666-5.76 4.821333-12.288 8.874667-16.597334 11.52-5.12 3.2-8.704 5.333333-12.458666 7.893334a154.752 154.752 0 0 1-4.949334 3.541333l-2.986666 2.005333c-0.981333 0.725333-2.474667 1.706667-4.693334 3.370667 23.466667 23.637333 35.882667 35.968 42.752 42.666667 5.717333 5.632 8.874667 8.533333 10.709334 10.496a42.666667 42.666667 0 0 1-61.397334 59.306666c-0.981333-1.066667-0.682667-0.64-9.088-8.917333-7.253333-7.125333-20.181333-19.925333-44.373333-44.288-37.034667-37.248-98.346667-99.328-156.458667-156.032-2.56 3.072-5.418667 5.888-8.746666 8.106667 0.042667 0 0.128 0 0.170666-0.085334 1.066667-0.725333 1.834667-1.365333 2.005334-1.493333l0.682666-0.512-1.28 1.152a2874.666667 2874.666667 0 0 0-35.626666 32.682667l-14.250667 14.506666c-4.522667 4.949333-9.088 10.24-14.421333 16.725334-11.008 13.354667-24.704 31.146667-41.472 53.12a42.709333 42.709333 0 0 1-67.84-51.84c16.64-21.76 31.274667-40.746667 43.392-55.509334 12.544-15.232 22.357333-25.856 35.114666-38.229333l0.298667-0.298667 0.298667-0.298666a3006.72 3006.72 0 0 1 37.973333-34.858667l2.304-1.962667c-64.938667-60.714667-109.994667-97.450667-134.656-117.888-25.429333-21.12-30.464-25.898667-35.413333-31.445333a42.666667 42.666667 0 0 1 63.317333-57.173333c0.170667 0.213333 0.469333 0.938667 16.725333 14.592 2.645333-2.986667 5.12-5.973333 7.68-8.661334 13.354667-14.293333 36.864-29.994667 61.696-46.421333 32.085333-21.162667 55.253333-31.232 67.626667-35.285333 34.56-11.306667 48.213333-11.690667 75.434667-14.293334 23.168-2.218667 39.68-1.834667 52.309333 0 4.010667 0.64 7.424 1.365333 10.368 2.133334l2.56-1.962667c3.84-3.328 7.808-7.253333 12.970667-12.373333 4.522667-4.48 10.666667-10.666667 16.938666-15.786667 9.728-7.978667 18.218667-13.866667 25.045334-18.432 7.68-5.12 10.666667-6.954667 13.312-8.96l1.578666-1.28 1.706667-1.109333 14.848-11.306667 40.192-30.976 0.426667-0.341333 0.426666-0.298667c9.728-7.082667 16.853333-11.648 23.466667-15.573333-17.28-18.346667-28.245333-30.165333-29.994667-32.298667a42.666667 42.666667 0 0 1 5.504-60.074667z m85.504 154.922667a42.88 42.88 0 0 1-6.4 4.522667c-10.752 6.144-15.957333 8.874667-26.88 16.768l-40.234667 31.018666a715.52 715.52 0 0 1-17.834667 13.312l0.042667 0.042667c-5.802667 4.522667-13.354667 9.344-18.176 12.544a231.978667 231.978667 0 0 0-18.474667 13.568c-2.432 2.005333-5.546667 5.034667-10.837333 10.24-4.650667 4.650667-10.88 10.88-17.493333 16.554667-6.528 5.632-15.36 12.458667-25.941334 17.365333-10.837333 5.034667-25.984 9.088-43.093333 5.461333-2.986667-0.64-5.546667-1.536-6.4-1.792a22.229333 22.229333 0 0 0-5.546667-1.408c-3.925333-0.597333-13.056-1.365333-31.658666 0.426667-26.88 2.56-32.298667 2.389333-57.130667 10.496-3.754667 1.28-20.053333 7.552-47.061333 25.386667-28.288 18.688-41.6 28.330667-46.506667 33.536-1.493333 1.621333-2.986667 3.413333-4.608 5.248a2770.517333 2770.517333 0 0 1 91.989333 83.072c48.042667 45.354667 105.301333 102.4 152.234667 149.504 2.474667-3.2 5.461333-6.058667 8.874667-8.533334 6.4-4.693333 8.96-6.314667 10.496-7.381333 0.981333-0.64 1.92-1.322667 3.498666-2.56l0.853334-0.597333 0.853333-0.554667c5.632-3.84 11.733333-7.509333 15.445333-9.813333l4.864-3.029334 1.322667-0.981333 0.384-0.298667a0.810667 0.810667 0 0 1 0.128-0.085333c4.010667-3.370667 17.194667-15.957333 36.053333-46.250667 5.418667-8.789333 12.501333-22.144 17.365334-39.68 3.541333-12.8 5.248-20.693333 5.205333-34.56-0.085333-16.213333-0.128-29.696-0.426667-39.936a268.117333 268.117333 0 0 0-0.554666-11.904l-0.213334-2.432a49.109333 49.109333 0 0 0-3.328-8.576l-1.536-3.2a107.093333 107.093333 0 0 1-6.314666-14.122666c-0.341333-0.981333-10.496-25.770667 7.552-47.658667 7.424-9.002667 19.669333-17.792 26.752-22.869333 13.525333-9.813333 20.992-14.634667 34.602666-24.832 14.378667-10.794667 24.618667-17.92 31.488-22.826667 7.381333-5.248 9.301333-6.954667 10.453334-8.106667 13.909333-13.866667 23.978667-23.68 30.634666-29.952a297.045333 297.045333 0 0 1-14.208-13.653333c-5.546667-5.632-12.842667-13.226667-20.053333-20.693333-7.210667-7.466667-14.378667-14.933333-20.181333-20.778667zM341.76 699.306667l0.725333-0.128 0.597334-0.213334-1.322667 0.341334z m5.290667-1.621334l0.682666-0.170666 0.256-0.128-0.938666 0.298666z"  /></svg>