<?xml version="1.0" standalone="no"?><!DOCTYPE svg PUBLIC "-//W3C//DTD SVG 1.1//EN" "http://www.w3.org/Graphics/SVG/1.1/DTD/svg11.dtd"><svg class="icon" width="32px" height="32.00px" viewBox="0 0 1024 1024" version="1.1" xmlns="http://www.w3.org/2000/svg"><path fill="#000000" d="M895.104 128a42.666667 42.666667 0 0 1 20.437333 80.042667l-3.242666 2.261333a10466.56 10466.56 0 0 0-122.794667 88.021333c2.090667 6.826667 3.2 13.653333 3.712 19.882667 1.28 16-0.426667 35.498667-2.176 54.869333a23474.133333 23474.133333 0 0 1-32.128 317.184c35.413333 1.792 52.650667 3.242667 70.272 4.736a42.666667 42.666667 0 0 1-7.296 84.992 1751.210667 1751.210667 0 0 0-72.618667-4.778666c-3.754667 30.378667-4.992 35.413333-5.845333 40.32l-0.128 0.64-0.128 0.64a104.106667 104.106667 0 0 0-2.432 19.413333v0.512c-0.298667 7.210667-0.853333 18.133333-2.133333 32.426667a42.666667 42.666667 0 0 1-85.034667-7.594667c1.152-12.629333 1.664-22.144 1.877333-28.16a188.16 188.16 0 0 1 3.882667-32.682667c0.554667-3.157333 1.450667-6.528 4.394667-29.141333-101.973333-3.754667-271.786667-8.874667-356.778667-12.629333-20.693333-0.896-39.808-1.834667-55.210667-4.522667-15.573333-2.730667-34.944-8.533333-49.834666-24.874667-14.421333-15.957333-18.688-35.456-20.565334-50.602666-1.92-15.274667-2.261333-34.56-2.688-55.381334-1.664-74.24-4.864-206.165333-7.082666-297.045333l-61.994667-0.341333-11.946667-0.085334h-1.536a42.666667 42.666667 0 1 1 0-85.333333c0.341333 0 2.261333-0.042667 73.557334 0.426667a3670.698667 3670.698667 0 0 1-1.194667-54.741334 42.666667 42.666667 0 1 1 85.333333 0c0 3.114667 0 6.272 1.194667 55.253334 115.370667 0.725333 289.365333 1.792 386.304 2.261333 27.306667 0.128 50.688 0.170667 68.693333 1.706667l5.973334 0.64a9764.949333 9764.949333 0 0 1 147.712-106.154667c3.2-2.218667 5.76-3.925333 7.68-5.12a43.733333 43.733333 0 0 1 15.189333-6.186667c4.48-0.896 8.106667-0.853333 8.533333-0.853333z m-188.586667 231.637333c-26.453333 19.84-53.333333 40.362667-79.189333 60.672-89.386667 70.186667-159.530667 132.266667-211.925333 174.933334-51.754667 42.069333-77.738667 57.728-95.957334 69.76a451.413333 451.413333 0 0 0-12.373333 8.533333c1.152 0 2.389333 0.128 3.626667 0.170667 85.930667 3.84 257.536 8.96 360.32 12.757333l2.474666 0.085333c9.642667-89.642667 25.6-242.944 32.597334-321.066666l0.426666-5.845334zM263.424 599.978667c2.816-1.962667 5.802667-4.053333 8.96-6.144 18.517333-12.245333 41.173333-25.728 89.258667-64.853334 47.530667-38.613333 124.245333-106.026667 213.034666-175.786666 10.24-8.021333 20.565333-16.085333 31.018667-24.106667-99.157333-0.512-246.357333-1.408-348.757333-2.048 2.005333 82.346667 4.778667 197.333333 6.485333 272.938667zM895.104 213.333333c0.213333 0 1.322667 0 2.602667-0.085333l0.512-0.085333c-1.024 0.085333-2.090667 0.170667-3.114667 0.170666z"  /></svg>