<?xml version="1.0" standalone="no"?><!DOCTYPE svg PUBLIC "-//W3C//DTD SVG 1.1//EN" "http://www.w3.org/Graphics/SVG/1.1/DTD/svg11.dtd"><svg class="icon" width="32px" height="32.00px" viewBox="0 0 1024 1024" version="1.1" xmlns="http://www.w3.org/2000/svg"><path fill="#000000" d="M404.608 77.738667a42.666667 42.666667 0 0 1 50.773333 32.597333c0.597333 2.901333 0.810667 5.333333 0.853334 5.802667a72.448 72.448 0 0 1 0.256 5.76v8.234666c-0.085333 6.570667-0.213333 15.786667-0.469334 27.52-0.554667 23.466667-1.664 57.301333-3.413333 100.352-0.810667 20.522667-2.432 38.4-4.352 60.117334-1.92 21.76-4.181333 48.64-6.442667 88.448-4.608 80.554667-9.941333 212.266667-14.08 301.269333a4891.733333 4891.733333 0 0 1-8.704 153.258667c-1.408 17.578667-3.242667 31.189333-5.973333 41.685333-2.688 10.069333-7.68 23.424-19.925333 33.408a49.024 49.024 0 0 1-35.157334 11.093333 53.205333 53.205333 0 0 1-26.325333-9.898666c-9.813333-6.912-17.28-16.725333-21.76-22.869334-5.162667-6.997333-10.794667-15.530667-15.786667-22.997333-5.290667-7.936-10.666667-15.744-16.298666-23.210667a1195.093333 1195.093333 0 0 0-53.973334-66.133333c-7.552-8.618667-13.525333-15.232-18.730666-21.162667-2.005333-2.261333-4.437333-4.992-6.826667-7.808l-6.272-8.32c-2.730667-4.096-6.954667-10.410667-10.112-16a68.394667 68.394667 0 0 1-8.96-27.136 42.666667 42.666667 0 0 1 84.138667-13.44c1.322667 2.218667 3.285333 5.248 5.973333 9.301334l6.101333 6.997333c4.522667 5.12 11.349333 12.8 18.901334 21.461333 13.44 15.36 30.549333 35.498667 49.194666 59.562667 1.408-23.978667 3.157333-56.533333 5.248-101.76 4.096-87.978667 9.472-221.013333 14.08-302.208 2.389333-40.96 4.736-68.778667 6.698667-91.008 1.962667-22.357333 3.413333-38.016 4.138667-56.106667 1.706667-42.666667 2.730667-76.074667 3.285333-98.986666 0.256-11.434667 0.426667-20.181333 0.426667-26.069334v-7.082666a42.666667 42.666667 0 0 1 33.493333-44.672z m177.194667 10.154666a42.709333 42.709333 0 0 1 59.306666 11.093334c1.28 1.792 2.56 4.266667 31.701334 37.418666 28.928 32.853333 83.541333 93.994667 112.554666 126.634667 15.018667 16.938667 23.210667 26.410667 27.904 32 2.346667 2.773333 3.968 4.778667 5.205334 6.4l1.408 1.92 2.773333 3.072 0.426667 0.426667 0.426666 0.554666 2.730667 3.285334 3.754667 4.437333a42.666667 42.666667 0 0 1-65.152 55.168c-4.949333-5.845333-4.48-5.418667-6.058667-7.253333a124.8 124.8 0 0 1-6.229333-7.253334l-0.341334-0.426666c-0.426667-0.597333-1.493333-2.773333-30.634666-35.626667l-87.594667-98.602667-2.432 33.152c-9.088 122.965333-27.306667 368.426667-36.906667 496.469334-9.728 129.92-9.813333 129.621333-10.282666 135.765333-0.298667 3.797333-0.554667 8.874667-0.853334 14.933333a42.709333 42.709333 0 0 1-85.248-4.138666c0.298667-5.674667 0.597333-11.989333 0.981334-17.194667 0.213333-2.816 0.853333-9.642667 10.24-135.722667 9.6-128 27.861333-373.418667 36.949333-496.384l8.021333-107.818666 0.938667-13.610667 0.085333-1.066667v1.152 0.682667c0-17.792 10.794667-33.066667 26.24-39.466667h0.085334z"  /></svg>