<?xml version="1.0" standalone="no"?><!DOCTYPE svg PUBLIC "-//W3C//DTD SVG 1.1//EN" "http://www.w3.org/Graphics/SVG/1.1/DTD/svg11.dtd"><svg class="icon" width="32px" height="32.00px" viewBox="0 0 1024 1024" version="1.1" xmlns="http://www.w3.org/2000/svg"><path fill="#000000" d="M888.021333 65.536c17.749333 0.256 36.48 1.152 50.773334 6.144 7.594667 2.688 21.248 8.917333 29.696 23.978667 9.045333 16.128 6.4 31.872 3.669333 40.490666-2.56 8.192-6.826667 15.189333-9.6 19.541334-2.986667 4.736-6.656 9.813333-9.813333 14.250666-26.88 37.546667-78.805333 109.525333-116.309334 164.906667-39.082667 57.770667-56.746667 88.618667-79.744 123.306667-21.248 32.085333-40.277333 56.32-56.618666 74.837333-8.064 9.088-15.402667 16.682667-20.608 22.186667a127.018667 127.018667 0 0 0-9.429334 10.794666 42.538667 42.538667 0 0 0-0.384 2.048c-1.109333 6.528-2.048 18.389333-3.157333 43.349334a8753.066667 8753.066667 0 0 0-5.333333 185.898666c-0.853333 48.597333 0 53.162667 0.213333 55.338667 0.768 8.746667 1.237333 25.856 1.706667 42.965333 0.085333 1.621333 0.213333 6.4-0.682667 11.648a43.136 43.136 0 0 1-66.133333 29.44 47.104 47.104 0 0 1-7.253334-5.717333c-1.962667-1.877333-3.882667-4.138667-4.010666-4.266667a57.301333 57.301333 0 0 0-8.704-7.210666 188.970667 188.970667 0 0 0-20.181334-12.245334c-17.493333-9.344-29.610667-12.970667-39.082666-15.957333-20.053333-6.314667-34.986667-12.16-44.714667-16.384-14.592-6.314667-34.901333-11.946667-57.002667-19.072a57.984 57.984 0 0 1-23.338666-13.44 47.616 47.616 0 0 1-13.141334-23.893333c-1.578667-6.826667-1.536-13.141333-1.493333-18.517334 0-6.357333 0.128-17.237333 0.341333-36.181333 0.426667-36.48 2.133333-109.354667 2.986667-163.157333 0.853333-54.826667 1.066667-89.770667 0.64-107.946667 0-1.066667-0.085333-2.005333-0.128-2.816l-1.706667-1.877333c-12.373333-12.928-36.394667-37.845333-70.741333-79.36-17.066667-20.608-36.437333-45.098667-55.04-68.650667-18.773333-23.722667-36.736-46.506667-51.413333-64.384-29.013333-35.242667-42.837333-48.384-54.698667-58.24a866.346667 866.346667 0 0 0-47.36-35.584c-8.277333-5.845333-15.914667-11.093333-21.802667-15.018667-7.082667-4.693333-9.088-5.76-7.850666-5.162666l-0.64-0.426667a42.538667 42.538667 0 0 1-2.56-1.365333l-1.28-0.853334a42.666667 42.666667 0 0 1-2.133334-1.493333l-1.237333-0.938667a43.008 43.008 0 0 1-3.498667-3.157333l-0.853333-0.853333a42.368 42.368 0 0 1-4.437333-5.546667l-0.938667-1.493333a42.325333 42.325333 0 0 1-2.304-4.224l-0.384-0.896a42.410667 42.410667 0 0 1-2.218667-6.656l-0.341333-1.322667a41.472 41.472 0 0 1-1.024-8.576v-1.578667l0.170667-2.858666 0.042666-0.768 0.170667-0.853334a42.24 42.24 0 0 1 0.853333-4.394666c0.213333-0.938667 0.426667-1.92 0.725334-2.858667l0.426666-1.28a43.008 43.008 0 0 1 1.706667-4.138667l0.256-0.597333 0.426667-0.682667a42.496 42.496 0 0 1 1.365333-2.432l0.981333-1.621333 0.896-1.28a42.581333 42.581333 0 0 1 1.792-2.346667l0.853334-0.981333a42.410667 42.410667 0 0 1 4.565333-4.48l2.005333-1.536 1.365334-0.981333 1.450666-0.981334a42.496 42.496 0 0 1 4.010667-2.218666l1.578667-0.725334a42.368 42.368 0 0 1 2.048-0.853333l2.090666-0.725333 1.706667-0.512c0.768-0.170667 1.450667-0.384 2.218667-0.512 0.64-0.170667 1.28-0.256 1.92-0.341334l2.304-0.341333 1.706666-0.170667 2.304-0.085333h2.133334c0.853333 0 1.792 0.128 2.688 0.213333h0.554666c13.312 1.450667 27.136 3.413333 169.173334 0.256 142.250667-3.157333 406.698667-11.306667 544.597333-14.592 34.005333-0.810667 60.501333-1.28 80.213333-0.981333z m-78.165333 86.314667c-135.552 3.242667-403.712 11.434667-544.768 14.506666-16.938667 0.426667-32.128 0.597333-45.781333 0.853334 12.885333 12.373333 27.904 28.586667 48.938666 54.186666 15.317333 18.688 33.834667 42.24 52.352 65.664 18.730667 23.68 37.546667 47.36 53.888 67.114667 32.426667 39.210667 54.784 62.421333 66.730667 74.922667 4.266667 4.48 14.08 13.994667 19.626667 26.965333 5.546667 13.141333 5.589333 26.709333 5.76 34.688a3456 3456 0 0 1-0.554667 111.189333c-0.853333 55.637333-2.56 125.952-2.986667 162.858667l-0.256 16.512c14.506667 4.522667 30.805333 9.813333 43.52 15.36 6.784 2.901333 18.901333 7.68 36.352 13.184 7.381333 2.304 18.432 5.76 32.853334 12.074667a8790.613333 8790.613333 0 0 1 5.717333-214.314667c1.066667-24.064 2.133333-41.130667 4.266667-53.674667 2.517333-15.146667 6.912-25.898667 14.336-36.565333l4.224-5.589333c4.394667-5.546667 9.130667-10.666667 13.226666-15.018667 6.058667-6.4 11.904-12.501333 18.773334-20.352 13.653333-15.36 30.293333-36.437333 49.493333-65.365333 17.408-26.24 43.52-69.845333 80.256-124.032a6886.4 6886.4 0 0 1 95.616-136.106667c-14.165333 0.128-31.146667 0.426667-51.584 0.938667z"  /></svg>