<?xml version="1.0" standalone="no"?><!DOCTYPE svg PUBLIC "-//W3C//DTD SVG 1.1//EN" "http://www.w3.org/Graphics/SVG/1.1/DTD/svg11.dtd"><svg class="icon" width="32px" height="32.00px" viewBox="0 0 1024 1024" version="1.1" xmlns="http://www.w3.org/2000/svg"><path fill="#000000" d="M190.677333 188.586667a46.08 46.08 0 0 1 38.613334-9.898667c12.245333 2.474667 20.608 9.216 24.362666 12.501333 8.064 7.04 16.298667 17.706667 25.045334 29.952 18.56 25.898667 50.261333 75.093333 66.688 100.949334 8.405333 13.141333 12.885333 20.394667 15.786666 25.045333a196.266667 196.266667 0 0 0 5.290667 8.149333A42.666667 42.666667 0 0 1 296.106667 403.626667a275.072 275.072 0 0 1-7.338667-11.306667c-2.816-4.522667-7.168-11.52-15.36-24.405333-6.826667-10.752-16-25.045333-25.6-39.765334L227.84 395.946667c-3.968 13.354667-7.253333 22.442667-9.6 29.312a139.52 139.52 0 0 0-4.949333 16.768c-6.314667 28.586667-8.533333 61.312-8.106667 84.650666 0.213333 11.690667 5.504 34.901333 16.554667 78.805334 3.84 15.189333 8.789333 27.52 19.114666 47.36 25.002667 48.128 48.042667 77.952 55.253334 85.248 8.746667 8.789333 16.426667 15.402667 74.026666 48.213333 16.64 9.514667 26.624 13.184 34.176 15.189333 9.642667 2.56 15.146667 2.858667 32.426667 5.930667 14.378667 2.56 44.501333 4.693333 79.573333 6.144 68.266667 2.816 105.984-0.170667 111.445334-0.64l0.469333-0.042667h0.512c6.229333-0.426667 9.642667-0.469333 13.994667-0.981333 3.541333-0.384 6.997333-1.066667 12.629333-2.176a42.666667 42.666667 0 0 1 16.938667 83.626667c-5.205333 1.024-12.245333 2.474667-20.053334 3.370666-6.997333 0.768-15.445333 1.109333-18.048 1.28l-0.042666-0.042666c-10.88 0.896-51.84 3.712-121.386667 0.853333-34.261333-1.408-70.058667-3.669333-91.050667-7.381333-9.813333-1.749333-25.344-3.712-39.466666-7.466667-16.213333-4.352-32.938667-11.306667-54.4-23.509333-56.746667-32.341333-74.325333-44.074667-92.373334-62.293334-15.616-15.786667-43.306667-53.930667-70.4-105.941333-12.202667-23.552-20.138667-42.24-26.069333-65.877333-9.813333-38.997333-18.645333-74.069333-19.114667-98.133334-0.512-28.501333 2.048-68.181333 10.112-104.576 2.346667-10.666667 4.949333-18.602667 7.552-26.24 2.56-7.381333 5.162667-14.506667 8.490667-25.685333l4.693333-16.042667-20.48 23.722667c-5.802667 6.826667-10.154667 11.946667-13.056 15.445333l-3.114666 3.754667c-0.256 0.256-0.341333 0.426667-0.426667 0.426667 0.042667 0 0.298667-0.256 0.554667-0.64l0.896-1.28 0.213333-0.426667a42.666667 42.666667 0 0 1-73.813333-42.282667l2.986666-5.205333 1.066667-1.493333 1.024-1.28 1.408-1.792c0.938667-1.152 2.176-2.688 3.754667-4.522667 3.114667-3.754667 7.68-9.173333 13.568-16.085333 11.818667-13.866667 29.269333-34.090667 51.925333-60.032 38.570667-44.245333 63.872-67.370667 73.386667-75.306667z m285.696-86.314667c24.106667 0 64.554667 6.784 90.837334 13.354667 22.741333 5.674667 58.410667 18.389333 104.746666 42.112 27.861333 14.293333 62.08 34.773333 87.381334 51.754666 43.818667 29.525333 62.592 51.797333 72.106666 63.146667 10.24 12.245333 28.032 33.109333 45.098667 56.917333 15.36 21.461333 22.357333 45.056 28.245333 75.605334 10.026667 52.181333 1.493333 103.68-3.754666 133.802666-7.68 43.989333-22.357333 66.517333-42.538667 95.189334 6.784-2.346667 11.605333-4.053333 14.08-5.12l0.426667-0.170667 0.384-0.170667c3.584-1.450667 6.528-2.56 8.192-3.2l1.706666-0.64a42.666667 42.666667 0 0 1 37.205334 76.8c-3.456 1.621333-6.613333 2.858667-8.661334 3.626667-2.218667 0.853333-3.882667 1.450667-6.272 2.432v-0.042667c-9.642667 4.053333-29.482667 10.752-48.938666 17.365334-21.461333 7.296-45.354667 15.488-64.981334 22.912l-0.768 0.298666-0.768 0.256a56.96 56.96 0 0 1-29.354666 2.346667 51.626667 51.626667 0 0 1-34.56-25.216c-5.205333-8.96-7.722667-19.285333-9.386667-25.941333-1.706667-6.826667-4.864-20.309333-8.234667-34.005334-7.552-30.848-20.352-79.701333-27.050666-105.514666-6.442667-24.917333-7.253333-28.288-7.893334-31.701334a42.666667 42.666667 0 0 1 83.754667-16.341333c0 0.213333 0.085333 0.981333 6.741333 26.624 3.797333 14.592 9.514667 37.290667 15.36 59.904 0.725333-1.194667 1.578667-2.432 2.432-3.712l0.256-0.384 0.256-0.298667c23.04-32.682667 29.568-41.728 34.56-69.973333 5.248-30.293333 10.794667-67.797333 4.010667-102.997333-5.205333-27.008-9.386667-35.84-13.824-42.026667-14.805333-20.650667-30.293333-38.826667-41.173333-51.84-6.058667-7.253333-19.029333-23.424-54.314667-47.146667a853.333333 853.333333 0 0 0-78.634667-46.549333c-41.984-21.504-71.509333-31.573333-86.570666-35.370667-23.125333-5.76-55.936-10.709333-70.101334-10.752a42.666667 42.666667 0 1 1 0-85.333333z"  /></svg>