<?xml version="1.0" standalone="no"?><!DOCTYPE svg PUBLIC "-//W3C//DTD SVG 1.1//EN" "http://www.w3.org/Graphics/SVG/1.1/DTD/svg11.dtd"><svg class="icon" width="32px" height="32.00px" viewBox="0 0 1024 1024" version="1.1" xmlns="http://www.w3.org/2000/svg"><path fill="#000000" d="M502.613333 809.514667a42.666667 42.666667 0 0 1 42.666667 42.666666l0.810667 15.701334v0.597333l0.085333 0.597333c0.213333 6.741333 0.170667 16.170667-0.128 24.106667-0.341333 8.277333-1.066667 14.762667-1.578667 20.224a42.666667 42.666667 0 0 1-84.906666-8.021333c0.597333-6.656 1.024-10.24 1.237333-15.658667 0.213333-5.76 0.213333-13.184 0.085333-18.005333-0.426667-7.466667-0.938667-14.08-0.938666-19.541334a42.666667 42.666667 0 0 1 42.666666-42.666666z m227.754667-49.578667c5.034667-23.04 27.776-37.674667 50.773333-32.64 6.826667 1.493333 11.776 4.394667 12.245334 4.693333 1.664 0.853333 3.072 1.792 4.010666 2.389334 1.877333 1.28 3.797333 2.645333 5.461334 3.925333l12.544 9.984 0.256 0.256 0.298666 0.256c4.864 4.138667 7.637333 6.912 9.941334 9.301333l2.048 2.133334a42.666667 42.666667 0 0 1-56.746667 63.701333c-3.328-2.944-5.845333-5.632-6.826667-6.741333a35.2 35.2 0 0 0-3.626666-3.370667 272.384 272.384 0 0 0-9.258667-7.381333l-0.256-0.256a42.666667 42.666667 0 0 1-20.864-46.250667z m-511.616-31.36a42.624 42.624 0 0 1 63.914667 53.077333c-3.242667 6.442667-7.381333 10.453333-8.533334 11.52-1.664 1.706667-3.114667 2.901333-3.882666 3.498667-1.578667 1.237333-3.114667 2.176-3.84 2.645333l-4.565334 2.901334a224.426667 224.426667 0 0 0-15.445333 11.52c-1.365333 1.237333-2.56 2.432-4.650667 4.522666a42.666667 42.666667 0 0 1-60.16-60.586666c2.048-2.005333 4.906667-4.864 8.448-8.021334l0.384-0.341333 0.384-0.256c6.741333-5.717333 15.189333-11.946667 23.125334-17.450667l0.768-0.512 0.853333-0.554666 3.2-1.962667z m536.32 79.530667a41.386667 41.386667 0 0 0 2.901333 1.152 44.373333 44.373333 0 0 1-2.986666-1.194667l0.085333 0.042667z m-4.522667-2.389334l-0.128-0.085333-0.170666-0.085333 0.298666 0.170666z m-204.288-548.266666c17.706667 0.512 27.904 1.834667 40.746667 4.949333 9.813333 2.432 24.576 6.101333 41.045333 13.653333 13.994667 6.4 26.410667 12.544 35.84 17.450667 4.693333 1.536 9.173333 3.925333 13.226667 7.168 1.834667 1.066667 3.413333 1.92 4.394667 2.56a42.538667 42.538667 0 0 1 16.981333 22.912c1.706667 2.688 3.541333 5.674667 5.461333 9.002667 6.912 12.032 16.853333 31.274667 23.253334 43.264l8.32 15.232c8.106667 15.274667 15.274667 31.104 18.773333 50.346666 2.432 13.482667 5.205333 33.536 6.144 54.656a353.024 353.024 0 0 1-2.474667 62.037334 247.253333 247.253333 0 0 1-11.52 48.725333 178.346667 178.346667 0 0 1-18.517333 37.76c-7.594667 12.245333-18.602667 28.458667-26.666667 38.869333a107.52 107.52 0 0 1-14.933333 16.085334 122.709333 122.709333 0 0 1-16.768 11.776 574.72 574.72 0 0 1-41.472 22.869333 233.813333 233.813333 0 0 1-47.146667 17.621333 406.4 406.4 0 0 1-56.874666 10.112 413.013333 413.013333 0 0 1-52.48 2.688 237.269333 237.269333 0 0 1-70.229334-13.781333c-16.768-5.888-35.925333-16.128-57.685333-34.432a159.146667 159.146667 0 0 1-31.232-35.626667 403.882667 403.882667 0 0 1-27.434667-48.384 215.552 215.552 0 0 1-15.104-41.813333c-3.2-13.312-3.968-23.424-4.309333-43.136-0.341333-19.2-0.298667-50.602667 1.194667-75.690667 1.450667-24.448 3.712-44.586667 9.173333-63.786666 7.552-26.709333 16.213333-53.546667 29.653333-71.466667 8.533333-11.349333 22.186667-29.226667 40.746667-40.96 20.906667-13.226667 38.954667-23.722667 73.898667-30.506667 14.336-2.773333 36.48-6.4 60.629333-8.405333a638.293333 638.293333 0 0 1 65.365333-1.706667z m-2.346666 85.333333a553.898667 553.898667 0 0 0-56.021334 1.450667c-20.266667 1.706667-39.168 4.778667-51.456 7.125333-20.224 3.925333-27.989333 8.448-44.373333 18.773333-3.712 2.389333-9.002667 7.936-18.176 20.138667-2.389333 3.2-7.552 14.378667-15.786667 43.52-2.944 10.24-4.821333 23.125333-6.144 45.653333a1010.346667 1010.346667 0 0 0-1.024 69.034667c0.128 9.173333 0.384 14.08 0.682667 17.408 0.256 2.688 0.597333 4.48 1.28 7.253333 1.408 5.888 3.925333 14.08 9.258667 25.386667 5.632 11.946667 14.165333 26.794667 21.205333 37.333333 6.314667 9.429333 10.24 13.568 15.317333 17.834667 14.549333 12.288 24.789333 17.066667 30.890667 19.2 17.792 6.186667 33.024 8.576 44.8 8.96 8.533333 0.298667 23.765333-0.384 40.661333-2.176 16-1.706667 31.914667-4.693333 44.501334-7.936 11.648-2.986667 19.968-6.186667 30.976-11.562667 11.818667-5.845333 25.898667-13.824 34.730666-19.2 4.522667-2.730667 5.290667-3.413333 5.418667-3.541333a58.197333 58.197333 0 0 0 3.157333-3.754667c5.76-7.381333 15.061333-20.949333 21.589334-31.530666 5.845333-9.386667 8.064-14.08 10.496-21.034667a161.706667 161.706667 0 0 0 7.509333-31.957333c1.877333-13.610667 2.56-30.08 1.792-46.677334a341.674667 341.674667 0 0 0-4.864-43.264c-1.706667-9.6-5.376-17.152-17.749333-39.424l-0.298667-0.512c-7.722667-14.421333-16.085333-30.762667-22.314667-41.6a88.661333 88.661333 0 0 0-5.333333-8.448l-1.109333-0.554666a733.44 733.44 0 0 0-30.933334-15.018667 138.794667 138.794667 0 0 0-25.856-8.32 90.368 90.368 0 0 0-22.826666-2.56z m365.482666 128.810667a42.666667 42.666667 0 0 1 10.026667 84.736l-6.741333 0.682666c-1.28 0.085333-2.389333 0.213333-4.053334 0.426667l-8.362666 1.365333-10.453334 1.664c-7.253333 1.024-11.733333 1.322667-15.36 1.578667a42.666667 42.666667 0 0 1-5.546666-85.162667 135.424 135.424 0 0 0 8.661333-0.853333l8.874667-1.450667c3.242667-0.512 7.04-1.152 10.197333-1.578666a159.146667 159.146667 0 0 1 8.192-0.981334l4.565333-0.426666z m-822.058666-2.432c5.973333 0.768 11.392 1.493333 20.48 2.304 10.581333 0.938667 21.589333 1.664 38.229333 3.072a42.666667 42.666667 0 0 1-7.253333 84.992c-13.098667-1.109333-29.269333-2.261333-38.528-3.072-10.88-0.981333-17.706667-1.877333-24.021334-2.688a42.666667 42.666667 0 0 1 11.093334-84.608zM764.586667 204.544a42.666667 42.666667 0 0 1 61.013333 59.648 184.832 184.832 0 0 1-17.706667 15.914667l-1.408 1.024-13.226666 10.752a42.666667 42.666667 0 1 1-53.333334-66.56c4.778667-3.84 8.746667-7.168 12.245334-10.026667l0.426666-0.384 0.512-0.384 1.962667-1.493333 1.28-0.938667 1.664-1.28c1.28-1.109333 3.584-3.2 6.570667-6.272zM160.725333 170.154667a42.666667 42.666667 0 0 1 60.330667 0.597333c5.290667 5.418667 16 16.597333 28.458667 29.610667l0.725333 0.810666a42.666667 42.666667 0 0 1-32.128 78.506667c-5.802667-1.706667-11.904-4.266667-18.048-8.789333-4.778667-3.584-8.96-8.106667-12.202667-11.52a4064.853333 4064.853333 0 0 0-27.733333-28.885334 42.666667 42.666667 0 0 1 0.597333-60.330666z m350.08-102.826667a42.666667 42.666667 0 0 1 42.666667 42.666667l0.128 9.088 0.512 31.445333a42.666667 42.666667 0 0 1-85.333333 1.578667l-0.512-31.573334a633.344 633.344 0 0 1-0.128-10.538666 42.666667 42.666667 0 0 1 42.666666-42.666667z"  /></svg>