<?xml version="1.0" standalone="no"?><!DOCTYPE svg PUBLIC "-//W3C//DTD SVG 1.1//EN" "http://www.w3.org/Graphics/SVG/1.1/DTD/svg11.dtd"><svg class="icon" width="32px" height="32.00px" viewBox="0 0 1024 1024" version="1.1" xmlns="http://www.w3.org/2000/svg"><path fill="#000000" d="M305.066667 773.802667a42.666667 42.666667 0 0 1 53.717333-27.434667c5.717333 1.877333 11.050667 3.541333 16.085333 5.12 4.906667 1.493333 9.856 2.986667 14.336 4.48 6.912 2.218667 21.077333 6.656 32.341334 15.658667l3.669333 2.901333 2.944 3.626667c15.232 18.944 22.144 49.536 11.605333 78.421333a54.058667 54.058667 0 0 1-19.413333 25.984c-10.154667 7.168-20.522667 9.045333-27.264 9.514667-4.266667 0.341333-17.024 1.408-30.933333-0.384-13.141333-1.664-35.114667-6.826667-51.541334-25.258667a64.853333 64.853333 0 0 1-9.301333-13.312 50.944 50.944 0 0 1-5.290667-30.890667l1.28-6.229333c1.322667-5.632 3.669333-11.861333 7.125334-18.048a42.538667 42.538667 0 0 1 0.64-24.149333z m355.541333-44.16a42.666667 42.666667 0 0 1 40.149333-6.229334c6.101333 2.176 11.690667 4.266667 17.237334 7.296l5.546666 3.285334 6.101334 4.010666 4.437333 5.845334c18.005333 23.68 19.498667 53.248 16.298667 75.136l-0.938667 6.570666-2.901333 5.888c-3.84 7.978667-14.805333 25.984-38.656 29.738667-6.997333 1.066667-20.992 3.370667-34.645334 2.944a81.066667 81.066667 0 0 1-26.026666-4.778667 56.746667 56.746667 0 0 1-30.549334-26.325333c-5.632-10.709333-12.544-29.568-5.418666-51.626667l4.906666-14.72c1.28-3.242667 3.328-8.021333 6.656-12.928a51.626667 51.626667 0 0 1 18.346667-16.725333 91.392 91.392 0 0 1 15.104-6.4c0.853333-0.256 2.048-0.597333 3.413333-0.853333l0.938667-0.128z m-295.424 117.632c1.109333 0 2.048-0.042667 2.773333-0.128l1.28-0.085334a43.050667 43.050667 0 0 1-4.053333 0.213334z m4.437333-0.256h0.256l2.218667-0.341334 0.085333-0.085333c-0.853333 0.128-1.706667 0.341333-2.56 0.426667z m304.768-33.28l0.64-0.085334 1.578667-0.256a41.770667 41.770667 0 0 1-2.218667 0.298667z m4.48-0.853334l1.237334-0.298666c0.085333 0 0.128-0.085333 0.213333-0.128l-1.450667 0.426666z m-342.912-378.24c4.693333 0.170667 12.629333 0.384 21.205334 1.706667l8.746666 1.792 2.389334 0.597333 2.304 0.853334c18.261333 7.04 34.858667 18.730667 46.336 34.389333l2.005333 2.730667 1.536 2.986666c7.082667 13.824 7.594667 27.477333 5.674667 38.698667a61.44 61.44 0 0 1-20.352 36.565333c-8.917333 7.68-22.442667 15.274667-38.186667 17.109334-12.416 1.450667-37.461333 2.944-59.008-12.373334-9.941333-7.04-25.301333-22.698667-23.637333-48.213333a81.493333 81.493333 0 0 1 7.168-28.16 42.666667 42.666667 0 0 1 43.818666-48.64z m342.784-16.085333c9.557333 0.512 18.133333 4.266667 24.96 9.941333 5.248 1.066667 11.477333 2.56 17.664 4.992l7.04 3.242667 3.157334 1.706667 2.773333 2.133333c8.661333 6.656 16.213333 16.085333 20.778667 27.733333l1.792 5.12 1.237333 4.906667c2.474667 11.264 1.92 22.272 0.256 31.146667-0.554667 2.730667-2.346667 13.226667-9.088 23.253333-8.490667 12.629333-21.76 20.821333-37.333333 22.912a186.453333 186.453333 0 0 1-46.08 0.64c-14.336-1.792-42.069333-7.466667-58.581334-31.573333a89.173333 89.173333 0 0 1-11.946666-23.893334c-3.072-10.069333-7.466667-35.413333 13.482666-55.04l4.522667-3.968c1.066667-0.853333 2.133333-1.621333 3.2-2.389333a42.496 42.496 0 0 1 30.421333-15.530667c9.045333-3.029333 20.992-5.973333 31.744-5.333333z m-37.376-245.333333c11.52-0.384 22.101333 0.213333 32.64 2.218666 8.192 1.578667 18.816 4.437333 28.842667 10.24l4.266667 2.688 3.925333 2.901334c8.96 7.125333 19.797333 19.328 22.186667 38.357333l0.426666 4.522667 0.256 13.781333a123.306667 123.306667 0 0 1-1.194666 14.421333c-1.28 8.96-4.352 21.76-12.757334 33.365334-2.389333 3.328-14.805333 21.504-38.784 24.96-3.2 0.426667-17.152 2.858667-30.506666 1.706666a64.213333 64.213333 0 0 1-28.757334-9.216 52.949333 52.949333 0 0 1-24.448-38.485333 126.72 126.72 0 0 1 3.413334-45.568l0.725333-2.389333a42.538667 42.538667 0 0 1 39.765333-53.461334z m-323.114666-5.76a42.666667 42.666667 0 0 1 39.253333 3.968c12.970667 8.533333 20.437333 14.464 27.050667 22.101333l0.981333 1.109333 0.853333 1.109334a98.133333 98.133333 0 0 1 14.506667 27.52l2.773333 9.728 0.341334 1.408 0.256 1.450666c0.170667 1.024 2.389333 11.306667-0.213334 22.784-3.242667 14.464-12.288 25.642667-23.765333 32.853334a153.6 153.6 0 0 1-32.426667 15.872 80.341333 80.341333 0 0 1-20.992 4.138666 55.637333 55.637333 0 0 1-31.061333-7.253333c-11.52-6.784-27.306667-22.186667-27.008-46.506667l0.64-11.093333a182.826667 182.826667 0 0 1 10.965333-46.72c0.981333-2.517333 2.304-5.376 3.84-8.277333 1.109333-2.005333 4.224-7.552 9.642667-12.757334a42.453333 42.453333 0 0 1 24.362667-11.434666z"  /></svg>