<?xml version="1.0" standalone="no"?><!DOCTYPE svg PUBLIC "-//W3C//DTD SVG 1.1//EN" "http://www.w3.org/Graphics/SVG/1.1/DTD/svg11.dtd"><svg class="icon" width="32px" height="32.00px" viewBox="0 0 1024 1024" version="1.1" xmlns="http://www.w3.org/2000/svg"><path fill="#000000" d="M182.741333 637.909333c24.32 0.426667 65.706667 1.152 90.453334 2.176 34.389333 1.450667 52.053333 6.954667 66.517333 15.530667 8.362667 4.992 14.293333 11.648 17.664 15.786667 3.84 4.693333 7.253333 9.770667 10.112 14.378666 2.901333 4.650667 5.632 9.514667 8.106667 14.250667l6.741333 13.525333 0.896 1.92 0.725333 1.962667c3.584 9.984 4.266667 19.925333 5.504 44.458667 1.28 26.922667 3.114667 78.037333 5.162667 129.706666a42.666667 42.666667 0 0 1-85.248 3.413334c-2.133333-52.48-3.882667-102.485333-5.162667-128.938667a498.56 498.56 0 0 0-1.322666-20.736 183.765333 183.765333 0 0 0-7.936-14.634667c-0.682667-1.152-1.408-2.048-1.962667-2.816A126.421333 126.421333 0 0 0 269.653333 725.333333c-23.381333-0.981333-63.530667-1.706667-88.362666-2.133333l-40.96-0.725333a42.666667 42.666667 0 0 1 1.749333-85.333334l40.704 0.768z m674.304-25.045333a42.666667 42.666667 0 1 1 0 85.333333c-5.802667 0-11.733333-0.085333-33.578666 2.218667a3165.44 3165.44 0 0 0-83.2 10.24 213.248 213.248 0 0 0-22.954667 4.010667c-2.56 0.682667-2.901333 0.981333-3.242667 1.109333-1.450667 0.768-5.376 4.010667-10.922666 12.928l-0.341334 2.816a205.056 205.056 0 0 0-0.426666 36.266667c1.152 20.736 4.437333 49.92 6.272 67.157333 1.792 16.597333 1.962667 20.053333 2.048 23.893333 0 1.408 0.128 2.901333 0.213333 4.949334a42.709333 42.709333 0 0 1-85.290667 3.541333 329.6 329.6 0 0 1-0.213333-7.125333l-0.128-1.536c-0.170667-2.218667-0.554667-6.4-1.450667-14.677334-1.706667-16-5.333333-47.957333-6.656-71.381333-1.408-24.32-0.426667-40.021333 0.853334-51.072 0.725333-5.973333 1.834667-19.370667 8.789333-31.573333l7.936-12.714667c9.173333-13.397333 22.314667-28.245333 40.746667-37.546667 11.861333-6.058667 24.576-9.642667 53.077333-13.568 22.698667-3.157333 62.122667-8.106667 86.016-10.581333 24.661333-2.56 33.536-2.688 42.453333-2.688zM367.445333 74.154667a42.666667 42.666667 0 0 1 42.666667 42.666666 2088.32 2088.32 0 0 1-9.856 109.44c-4.394667 36.138667-10.24 72.96-13.482667 92.245334a272.768 272.768 0 0 1-3.968 21.162666 52.053333 52.053333 0 0 1-6.272 14.848c-5.376 8.490667-12.117333 12.970667-15.658666 15.061334-8.106667 4.778667-16.042667 6.314667-22.272 7.168-6.144 0.853333-14.933333 1.578667-27.904 2.304-25.685333 1.408-74.24 3.157333-100.48 4.352-28.714667 1.749333-40.96 2.688-50.218667 1.834666-2.005333-0.213333-4.010667-0.298667-6.442667-0.469333a42.666667 42.666667 0 0 1 5.845334-85.12c2.432 0.128 5.290667 0.341333 8.192 0.597333h0.341333c0.554667 0 2.218667 0 5.973333-0.170666 5.930667-0.256 15.232-0.853333 31.146667-1.834667h0.64c27.306667-1.28 72.704-2.986667 98.56-4.352 3.2-19.925333 7.765333-49.28 11.221333-77.866667 4.181333-34.176 6.784-66.730667 8.106667-83.712 0.682667-8.533333 1.024-12.8 1.152-15.061333l0.042667-0.853333v0.426666a42.666667 42.666667 0 0 1 42.666666-42.666666z m304.341334-2.090667a42.666667 42.666667 0 0 1 42.666666 42.666667c0 9.088 0 18.176 0.512 43.733333 0.512 25.856 1.578667 67.541333 2.602667 91.733333 0.64 14.506667 1.450667 22.357333 1.962667 26.026667a38.954667 38.954667 0 0 0 6.144 4.906667l1.664 0.426666a213.333333 213.333333 0 0 0 22.314666 2.133334c18.730667 1.152 51.242667 0.896 73.514667 1.365333 20.650667 0.426667 24.746667 0.853333 28.202667 1.109333 1.066667 0.085333 1.792 0.085333 3.754666 0.085334a42.666667 42.666667 0 0 1 0 85.333333c-2.133333 0-5.546667 0-9.898666-0.341333l-5.418667-0.341334a730.453333 730.453333 0 0 0-18.389333-0.512c-17.664-0.384-56.149333-0.213333-77.141334-1.536-21.546667-1.408-43.733333-2.730667-63.189333-14.933333-14.72-9.216-33.28-25.130667-41.258667-45.909333-3.754667-9.813333-6.186667-23.04-7.509333-54.186667-1.066667-25.173333-2.133333-67.754667-2.645333-93.653333-0.554667-26.197333-0.554667-35.84-0.554667-45.44a42.666667 42.666667 0 0 1 42.666667-42.666667z"  /></svg>