<?xml version="1.0" standalone="no"?><!DOCTYPE svg PUBLIC "-//W3C//DTD SVG 1.1//EN" "http://www.w3.org/Graphics/SVG/1.1/DTD/svg11.dtd"><svg class="icon" width="32px" height="32.00px" viewBox="0 0 1024 1024" version="1.1" xmlns="http://www.w3.org/2000/svg"><path fill="#000000" d="M528.981333 351.146667c10.453333-0.426667 23.466667 0.597333 34.986667 3.882666 19.541333 5.589333 27.008 21.376 29.141333 26.88 2.474667 6.357333 3.072 12.074667 3.242667 14.805334 0.469333 5.973333 0.085333 12.117333-0.256 16.512-0.768 9.130667-2.474667 21.76-3.882667 33.109333-1.066667 8.448-1.237333 11.562667-1.024 43.221333 0.213333 26.709333 2.474667 77.696 3.968 109.653334 1.365333 28.714667 2.645333 42.752 3.669334 69.461333 1.109333 28.16 2.218667 74.154667 2.218666 106.752 0 33.024-1.152 51.114667-1.877333 61.568-0.085333 1.493333-0.426667 6.698667-1.450667 11.733333-1.28 5.973333-4.522667 16.213333-13.653333 25.088-8.618667 8.448-18.261333 11.562667-23.637333 12.885334-5.290667 1.28-10.581333 1.834667-14.122667 2.133333-7.637333 0.682667-18.517333 1.152-29.653333 1.706667-11.605333 0.512-24.661333 1.152-38.101334 2.133333-26.624 1.92-58.026667 5.418667-113.962666 7.210667-55.466667 1.749333-136.192 1.792-179.712-0.512-21.034667-1.109333-36.821333-2.944-48.384-6.570667a56.277333 56.277333 0 0 1-22.272-12.8c-8.533333-8.149333-11.562667-17.152-12.288-19.2-4.693333-12.842667-6.357333-25.6-7.168-35.285333-0.426667-4.949333-0.64-9.770667-0.853334-13.653334a312.533333 312.533333 0 0 0-0.597333-9.813333c-0.64-7.978667-0.554667-14.506667 0-38.570667 0.597333-23.978667 2.645333-69.418667 3.84-94.037333 1.28-25.301333 1.877333-29.738667 2.944-44.842667 1.066667-15.701333 2.730667-44.117333 3.754667-62.122666 0.981333-17.578667 1.28-23.637333 1.706666-43.904 0.426667-20.650667 1.024-55.466667 1.28-75.008 0.213333-19.370667 0.085333-21.802667-0.042666-24.576l-0.256-5.461334a42.538667 42.538667 0 0 1 39.168-59.477333l62.933333-0.384c62.464-0.426667 187.008-1.237333 251.989333-1.749333 65.152-0.512 66.133333-0.725333 68.352-0.810667z m-67.669333 86.101333c-65.066667 0.512-189.696 1.365333-252.16 1.749333l-16.981333 0.085334v5.504c-0.256 19.84-0.853333 54.954667-1.28 75.861333-0.469333 21.333333-0.853333 28.330667-1.834667 46.762667-1.024 18.005333-2.730667 46.933333-3.84 63.274666-1.194667 16.896-1.621333 18.986667-2.816 43.136a4790.613333 4790.613333 0 0 0-3.754667 91.818667c-0.64 25.941333-0.469333 27.178667-0.256 29.653333 0.341333 4.352 0.554667 8.917333 0.725334 12.586667l0.341333 5.76c2.901333 0.256 6.186667 0.512 9.898667 0.725333 40.234667 2.133333 118.357333 2.133333 172.501333 0.426667 53.717333-1.706667 81.066667-4.949333 110.549333-7.04 14.592-1.066667 28.586667-1.706667 40.234667-2.261333l2.645333-0.170667c0.213333-7.936 0.426667-17.706667 0.426667-29.696 0-31.274667-1.066667-76.117333-2.133333-103.424-1.109333-28.757333-2.005333-34.218667-3.626667-68.778667a3646.72 3646.72 0 0 1-4.053333-113.066666c-0.213333-30.037333-0.213333-39.04 1.536-53.504-10.112 0.128-24.746667 0.426667-46.165334 0.597333z m-33.578667-360.704c3.413333 0 7.125333 0.256 29.738667 2.218667 23.893333 2.048 71.381333 6.229333 100.266667 9.386666 29.269333 3.157333 40.661333 5.418667 53.76 9.472 12.544 3.925333 25.472 9.045333 47.061333 21.546667 20.394667 11.818667 49.706667 30.976 69.973333 46.08 33.578667 24.96 47.104 43.605333 53.674667 52.906667 3.328 4.693333 9.685333 14.421333 17.706667 28.245333l8.533333 15.189333 1.152 2.133334 0.896 2.304c4.138667 10.325333 8.021333 21.034667 11.52 31.018666 1.109333-4.181333 2.176-8.618667 3.157333-13.312 4.693333-22.656 5.333333-29.525333 5.632-32.853333a88.277333 88.277333 0 0 0 0.341334-6.272 42.666667 42.666667 0 0 1 85.333333 0c0 3.285333-0.085333 6.826667-0.682667 13.781333-0.682667 7.68-1.962667 17.962667-7.082666 42.752-2.432 11.648-6.698667 31.872-15.957334 50.858667-9.472 19.370667-26.794667 42.666667-57.856 52.224-26.88 8.192-57.045333 3.584-78.506666-1.28-23.04-5.290667-45.44-13.226667-59.477334-18.090667-28.586667-10.026667-33.877333-11.733333-38.997333-13.397333a42.666667 42.666667 0 0 1 26.154667-81.194667c6.144 1.962667 12.202667 3.925333 41.045333 14.037334 3.157333 1.109333 6.528 2.133333 9.898667 3.328l-2.816-7.466667a387.968 387.968 0 0 0-19.712-32.725333c-2.773333-3.968-10.24-15.445333-34.901334-33.749334a755.2 755.2 0 0 0-61.866666-40.704c-16.64-9.6-23.68-12.032-29.568-13.866666-5.333333-1.664-10.410667-3.2-37.674667-6.144a5408.170667 5408.170667 0 0 0-121.258667-11.093334h-0.426666L426.666667 161.834667l0.554666 0.042666h0.512a42.666667 42.666667 0 1 1 0-85.333333z"  /></svg>