<?xml version="1.0" standalone="no"?><!DOCTYPE svg PUBLIC "-//W3C//DTD SVG 1.1//EN" "http://www.w3.org/Graphics/SVG/1.1/DTD/svg11.dtd"><svg class="icon" width="32px" height="32.00px" viewBox="0 0 1024 1024" version="1.1" xmlns="http://www.w3.org/2000/svg"><path fill="#000000" d="M531.456 256.512c9.301333 1.408 15.914667 5.418667 18.858667 7.338667 5.674667 3.669333 10.709333 8.661333 13.482666 11.349333 3.498667 3.413333 8.021333 8.106667 13.269334 13.482667 5.376 5.418667 11.946667 12.16 20.266666 20.352l61.312 58.026666c22.784 21.504 45.610667 42.922667 61.44 57.685334a1411.498667 1411.498667 0 0 0 28.885334 26.453333 42.666667 42.666667 0 0 1-39.082667 75.733333 68.608 68.608 0 0 1-17.92-12.16c-5.376-4.693333-14.293333-12.928-30.037333-27.605333a18442.794667 18442.794667 0 0 1-92.586667-87.125333l-0.170667 43.776c-0.426667 82.304-1.28 241.365333-1.578666 326.4-0.298667 85.76 0.042667 90.282667 0.682666 99.797333a42.666667 42.666667 0 0 1-85.12 5.76c-0.853333-13.226667-1.194667-21.333333-0.896-105.813333 0.256-85.162667 1.152-244.309333 1.578667-326.528l0.128-35.498667c-23.338667 24.064-50.346667 52.053333-68.650667 71.978667-24.746667 27.050667-31.573333 37.333333-38.656 47.786666a42.666667 42.666667 0 1 1-70.656-47.786666c9.130667-13.568 18.517333-27.221333 46.421334-57.685334 26.794667-29.226667 72.021333-75.306667 96.384-100.650666 17.834667-18.56 26.922667-29.738667 31.658666-36.010667 2.346667-3.114667 3.754667-5.205333 5.205334-7.253333 0.554667-0.853333 1.834667-2.730667 3.285333-4.522667 1.28-1.664 4.650667-5.76 9.898667-9.514667 9.472-6.741333 21.12-9.514667 32.597333-7.765333z m216.789333-170.410667a42.666667 42.666667 0 0 1 0 85.333334H264.149333a42.666667 42.666667 0 0 1 0-85.333334h484.096z"  /></svg>