<?xml version="1.0" standalone="no"?><!DOCTYPE svg PUBLIC "-//W3C//DTD SVG 1.1//EN" "http://www.w3.org/Graphics/SVG/1.1/DTD/svg11.dtd"><svg class="icon" width="32px" height="32.00px" viewBox="0 0 1024 1024" version="1.1" xmlns="http://www.w3.org/2000/svg"><path fill="#000000" d="M503.296 599.722667a42.666667 42.666667 0 0 1 47.232 17.664c6.826667 6.954667 12.16 13.653333 21.76 28.586666l0.469333 0.725334 0.426667 0.768c5.418667 9.173333 12.245333 21.333333 17.749333 30.293333 2.218667 3.584 3.626667 5.632 6.485334 9.173333 3.456 4.266667 9.002667 10.496 19.84 22.101334 20.906667 22.4 60.373333 63.573333 84.949333 90.453333 24.832 27.093333 36.821333 41.6 44.117333 51.626667 4.053333 5.546667 8.106667 11.349333 11.178667 17.194666 3.285333 6.186667 6.741333 14.634667 7.381333 24.96 0.128 2.346667 2.346667 28.416-21.845333 42.88-7.594667 4.565333-16.170667 6.442667-18.090667 6.912-4.010667 0.981333-8.234667 1.749333-11.605333 2.346667-5.376 0.938667-20.181333 3.2-57.6 3.797333-25.728 0.426667-64.682667 0.213333-89.728-0.469333-22.784-0.597333-38.656-1.877333-76.117333-3.114667-43.733333-1.493333-108.202667-2.986667-147.413334-4.266666-8.874667-0.298667-16.64-0.597333-22.826666-1.024a88.661333 88.661333 0 0 1-21.290667-3.712 49.365333 49.365333 0 0 1-17.92-10.496 45.866667 45.866667 0 0 1-14.165333-26.154667c-1.408-8.533333-0.085333-15.616 0.725333-19.157333 0.853333-3.669333 2.005333-6.826667 2.56-8.234667l4.053333-10.069333c4.693333-10.965333 10.88-23.765333 14.421334-30.848 2.56-5.034667 4.010667-8.106667 4.992-10.24 0.938667-1.962667 1.493333-3.370667 2.304-5.248 4.010667-9.514667 14.464-25.173333 30.848-44.074667 8.490667-9.770667 19.541333-20.821333 27.349333-29.184 8.746667-9.386667 19.712-21.802667 41.728-44.458667a6588.629333 6588.629333 0 0 1 88.064-88.234666c0.128-0.085333 1.536-1.450667 3.370667-2.816 0.682667-0.554667 3.84-2.986667 8.490666-5.12a42.496 42.496 0 0 1 8.106667-2.56z m-46.848 158.165333c-21.333333 21.973333-30.250667 32.170667-40.533333 43.221333-11.264 12.032-17.92 18.432-25.301334 26.965334-6.826667 7.850667-11.477333 13.994667-14.293333 18.133333a74.666667 74.666667 0 0 0-2.858667 4.352l-2.773333 6.229333c37.418667 1.066667 91.392 2.474667 122.069333 3.541334 44.970667 1.493333 49.493333 2.432 75.52 3.114666 21.077333 0.554667 53.034667 0.64 77.141334 0.426667l-6.101334-6.784c-24.576-26.794667-61.866667-65.706667-84.437333-89.856-22.101333-23.68-28.458667-31.530667-36.565333-44.714667-3.072-4.949333-6.613333-11.136-9.984-16.938666-16.426667 16.384-36.821333 36.864-51.882667 52.309333zM282.581333 90.026667a4133.802667 4133.802667 0 0 1 271.189334-3.968c86.613333 1.877333 152.32 7.594667 189.013333 11.178666 44.629333 4.352 56.874667 8.234667 75.221333 14.165334 16.469333 5.333333 28.757333 9.130667 41.088 13.098666 10.24 3.285333 21.162667 6.826667 27.904 9.898667 17.706667 7.978667 34.986667 17.066667 54.485334 35.157333 12.714667 11.904 16.341333 25.002667 18.773333 33.834667 3.242667 12.245333 6.058667 28.970667 10.026667 87.04 4.053333 58.837333 9.514667 163.114667 10.752 233.258667 1.28 70.954667-1.792 104.533333-4.266667 125.738666-3.669333 32.298667-6.656 51.84-15.274667 67.584a51.072 51.072 0 0 1-31.317333 24.149334 98.005333 98.005333 0 0 1-19.072 3.114666c-5.205333 0.426667-11.093333 0.64-15.957333 0.853334-4.522667 0.170667-8.832 0.426667-13.141334 0.682666-12.16 2.432-26.709333 5.76-36.906666 7.466667l-0.256 0.085333c-7.722667 1.28-16.128 2.517333-29.738667 4.736a42.666667 42.666667 0 0 1-13.738667-84.224c12.8-2.133333 23.338667-3.712 29.568-4.693333l15.445334-3.114667c5.418667-1.194667 11.946667-2.56 22.101333-4.565333l2.346667-0.426667 2.432-0.213333c5.802667-0.426667 11.392-0.725333 16.213333-0.938667 0.725333-5.205333 1.621333-11.818667 2.56-20.181333 2.005333-17.28 4.906667-47.061333 3.669333-114.474667-1.237333-68.266667-6.528-171.050667-10.538666-228.949333-3.413333-49.237333-5.717333-63.402667-6.826667-68.522667a106.752 106.752 0 0 0-31.829333-17.621333 701.866667 701.866667 0 0 0-13.525334-4.437333c-10.026667-3.242667-26.026667-8.234667-41.173333-13.141334-7.850667-2.56-11.946667-3.84-18.773333-5.290666a378.453333 378.453333 0 0 0-38.570667-5.12c-35.413333-3.498667-98.858667-9.002667-182.613333-10.837334a4049.066667 4049.066667 0 0 0-265.088 3.925334c-78.421333 3.84-131.584 9.472-157.781334 14.293333-0.256 8.746667-0.512 21.418667-0.682666 39.893333-0.597333 58.026667-0.853333 165.12 4.992 244.650667 5.888 79.573333 16.298667 129.322667 23.637333 153.472 4.864 15.957333 7.637333 22.144 9.557333 25.216 0.810667 1.365333 1.621333 2.688 6.784 5.973333a1507.882667 1507.882667 0 0 0 44.8 27.136A42.752 42.752 0 0 1 201.685333 768c-6.656 0-11.776-1.664-12.544-1.877333a48.213333 48.213333 0 0 1-3.968-1.365334 119.253333 119.253333 0 0 1-8.192-4.096c-2.986667-1.664-6.954667-3.925333-11.52-6.656a1584.426667 1584.426667 0 0 1-37.717333-23.082666 101.248 101.248 0 0 1-33.792-33.194667c-8.234667-13.312-13.610667-28.842667-18.602667-45.226667-9.813333-32.128-20.906667-88.576-27.093333-172.117333-6.186667-83.541333-5.845333-193.962667-5.248-251.818667 0.554667-55.04 1.194667-65.706667 4.053333-76.629333l1.664-5.376c1.024-2.816 2.602667-6.4 4.949334-10.112 4.949333-7.808 11.434667-13.354667 17.92-17.237333 11.093333-6.698667 25.130667-10.368 40.106666-13.226667 31.829333-6.058667 90.282667-11.989333 170.922667-15.957333z"  /></svg>