<?xml version="1.0" standalone="no"?><!DOCTYPE svg PUBLIC "-//W3C//DTD SVG 1.1//EN" "http://www.w3.org/Graphics/SVG/1.1/DTD/svg11.dtd"><svg class="icon" width="32px" height="32.00px" viewBox="0 0 1024 1024" version="1.1" xmlns="http://www.w3.org/2000/svg"><path fill="#000000" d="M468.266667 108.288a705.322667 705.322667 0 0 1 126.592-4.096c44.16 2.389333 92.885333 7.424 122.88 13.397333 38.442667 7.68 59.093333 14.08 90.197333 34.304a1911.466667 1911.466667 0 0 1 71.210667 48.810667c20.224 14.762667 29.866667 23.424 40.704 39.296 8.746667 12.8 18.474667 30.08 28.629333 54.4 10.154667 24.234667 21.162667 56.149333 27.093333 94.293333 5.845333 37.290667 6.570667 78.08 6.4 102.954667-0.170667 25.130667-0.981333 38.186667-3.925333 53.973333a659.2 659.2 0 0 1-7.466667 35.84 142.122667 142.122667 0 0 1-11.093333 31.573334c-3.882667 7.381333-8.32 15.872-12.586667 23.082666a98.56 98.56 0 0 1-18.901333 24.149334c-17.578667 15.36-44.373333 24.192-78.250667 25.642666-19.114667 0.853333-42.368 0-66.432-2.730666-10.624-1.237333-22.912-2.56-33.834666-4.138667a165.333333 165.333333 0 0 1-33.706667-7.850667c-26.069333-9.941333-51.498667-28.202667-64.426667-58.410666l-0.298666-0.768a147.029333 147.029333 0 0 1-27.178667 26.837333c-16.128 11.690667-30.293333 21.845333-41.216 29.312a367.616 367.616 0 0 1-14.762667 9.685333c-2.645333 1.621333-9.685333 5.973333-17.237333 8.277334-13.184 3.968-41.472 6.954667-76.074667 4.992-21.12-1.194667-51.968-2.986667-78.72-18.261334-24.490667-14.037333-55.509333-39.893333-70.613333-74.922666a124.16 124.16 0 0 1-7.68-33.109334 270.421333 270.421333 0 0 1-0.682667-50.176c2.176-29.696 7.637333-59.050667 23.722667-94.293333 7.594667-16.554667 19.754667-42.922667 30.506667-58.88 7.04-10.410667 15.616-23.424 29.738666-34.730667 13.866667-11.093333 30.549333-18.730667 51.370667-26.325333 18.645333-6.826667 44.885333-13.909333 76.672-9.344 20.266667 2.901333 47.104 8.448 74.069333 24.917333 19.029333 11.648 45.312 28.074667 68.608 54.784 10.112 11.562667 18.005333 21.12 23.722667 28.373334 1.749333 2.261333 3.328 4.437333 4.778667 6.4a43.093333 43.093333 0 0 1 32.213333 27.776c1.834667 5.034667 2.389333 9.429333 2.56 11.648a56.32 56.32 0 0 1-0.512 14.677333c-0.512 3.072-1.493333 14.762667-8.32 32.085333a229.12 229.12 0 0 1-10.112 21.546667l-1.024 6.869333c-2.133333 14.464 4.138667 33.706667 14.976 59.178667 1.194667 2.688 4.693333 7.68 16.384 12.16l1.152 0.341333 3.370667 0.853334c2.901333 0.597333 6.613333 1.28 11.093333 1.877333 9.173333 1.365333 19.584 2.517333 31.104 3.84 20.224 2.261333 39.04 2.858667 53.12 2.261333 15.488-0.64 22.826667-3.541333 25.258667-4.693333 0.512-0.768 1.28-1.834667 2.133333-3.285333 2.858667-4.821333 5.973333-10.837333 10.410667-19.242667 0.426667-0.768 1.792-4.138667 3.84-12.458667 1.962667-7.936 4.010667-18.005333 6.442666-31.018666 1.578667-8.405333 2.304-15.616 2.474667-38.869334 0.128-23.509333-0.64-58.794667-5.376-89.216a320.426667 320.426667 0 0 0-21.461333-74.496 219.434667 219.434667 0 0 0-20.437334-39.253333 34.133333 34.133333 0 0 0-5.12-6.4 164.693333 164.693333 0 0 0-15.445333-12.117333 1832.32 1832.32 0 0 0-67.328-46.165334c-18.986667-12.288-28.288-15.744-60.458667-22.186666-24.192-4.778667-68.266667-9.6-110.677333-11.861334a620.117333 620.117333 0 0 0-111.402667 3.541334c-34.176 4.309333-65.322667 11.52-89.301333 18.176a413.952 413.952 0 0 0-50.176 17.066666 139.733333 139.733333 0 0 0-27.562667 14.506667c-28.501333 18.901333-51.328 38.954667-63.829333 51.2-2.133333 2.133333-3.413333 3.541333-4.821333 5.418667-1.664 2.133333-3.968 5.546667-7.808 11.904-7.722667 12.629333-19.370667 33.706667-27.690667 50.944a193.706667 193.706667 0 0 0-16.426667 47.872 569.6 569.6 0 0 0-12.117333 89.941333c-2.090667 36.693333-1.024 78.08 0.682667 107.989333 1.664 29.013333 3.712 43.392 8.277333 61.994667A389.12 389.12 0 0 0 213.333333 740.864c13.141333 28.458667 31.744 61.056 46.293334 83.626667 21.76 33.706667 35.84 45.994667 41.813333 51.114666 12.330667 10.624 29.013333 17.493333 58.794667 23.381334 21.674667 4.266667 60.8 7.765333 91.392 10.282666 28.330667 2.346667 42.794667 2.261333 54.058666 1.621334 9.130667-0.554667 15.786667-1.152 38.101334-8.704a1102.933333 1102.933333 0 0 0 94.378666-37.674667c33.877333-15.488 55.893333-28.245333 81.322667-40.704 23.808-11.690667 41.770667-18.261333 51.242667-21.930667a147.2 147.2 0 0 0 8.192-3.328c1.066667-0.512 1.834667-0.896 3.669333-1.92a42.666667 42.666667 0 0 1 41.728 74.453334c-6.826667 3.84-11.690667 6.101333-22.869333 10.410666-10.069333 3.882667-24.490667 9.173333-44.373334 18.944-18.304 8.96-49.792 26.282667-83.413333 41.642667-35.114667 16.042667-76.032 32-102.528 40.96-27.946667 9.386667-42.197333 11.946667-60.501333 13.056-16.213333 0.938667-34.901333 0.810667-66.005334-1.749333-28.885333-2.389333-73.514667-6.186667-100.949333-11.648-34.901333-6.912-68.906667-17.450667-97.877333-42.368-11.776-10.112-31.36-28.586667-57.856-69.632-16.213333-25.173333-36.992-61.269333-52.096-94.08-15.36-33.28-24.618667-62.037333-30.549334-86.314667-6.186667-25.130667-8.746667-44.970667-10.581333-77.482667a1092.906667 1092.906667 0 0 1-0.725333-117.76c2.389333-41.386667 8.106667-77.354667 14.08-103.68a277.845333 277.845333 0 0 1 22.784-66.218666 744.96 744.96 0 0 1 31.744-58.453334c9.642667-15.786667 16-24.149333 25.6-33.578666 15.786667-15.573333 42.837333-39.253333 76.544-61.568 15.786667-10.410667 26.965333-15.957333 41.941333-22.186667 14.464-5.973333 32.768-12.885333 60.032-20.48 26.88-7.466667 62.293333-15.658667 101.546667-20.608z m48.554666 267.264c-12.288-1.749333-23.338667 0.597333-35.370666 4.992-18.346667 6.698667-24.448 10.538667-27.264 12.8-2.56 2.048-4.565333 4.352-12.373334 15.957333-5.973333 8.746667-14.976 27.733333-23.552 46.506667a175.872 175.872 0 0 0-16.298666 65.066667c-1.066667 14.592-0.554667 26.197333 0.384 34.261333 0.426667 4.010667 0.981333 6.997333 1.408 8.874667l0.170666 0.768c5.376 11.861333 19.285333 25.386667 34.304 33.962666 6.784 3.84 17.578667 5.845333 41.216 7.168 14.250667 0.853333 26.112 0.554667 34.730667-0.128 4.565333-0.341333 7.765333-0.853333 9.728-1.109333a298.666667 298.666667 0 0 0 10.581333-6.954667c9.856-6.741333 23.210667-16.256 39.253334-27.946666 2.816-2.005333 7.424-6.485333 15.189333-16.682667a884.138667 884.138667 0 0 0 44.885333-67.626667c1.109333-6.826667 2.389333-13.866667 3.712-20.437333a42.496 42.496 0 0 1-4.821333-7.125333 154.581333 154.581333 0 0 0-4.522667-6.016 648.277333 648.277333 0 0 0-20.906666-24.96c-14.08-16.170667-30.506667-26.922667-48.768-38.101334-12.586667-7.68-26.197333-11.093333-41.685334-13.269333z"  /></svg>