<?xml version="1.0" standalone="no"?><!DOCTYPE svg PUBLIC "-//W3C//DTD SVG 1.1//EN" "http://www.w3.org/Graphics/SVG/1.1/DTD/svg11.dtd"><svg class="icon" width="32px" height="32.00px" viewBox="0 0 1024 1024" version="1.1" xmlns="http://www.w3.org/2000/svg"><path fill="#000000" d="M229.461333 118.528c34.56-0.341333 98.816-1.408 137.6 0.512 24.618667 1.237333 40.405333 2.218667 50.474667 2.986667l10.922667 0.810666c3.328 0.256 2.517333 0.128 1.152 0.128a42.666667 42.666667 0 0 1 0 85.333334c-2.816 0-6.4-0.298667-7.808-0.426667l-10.410667-0.768a2113.706667 2113.706667 0 0 0-48.554667-2.858667C327.381333 202.496 266.666667 203.52 230.4 203.861333c-45.909333 0.469333-65.024 7.296-75.392 12.501334-0.256 0.426667-0.725333 1.024-1.28 1.962666a80.426667 80.426667 0 0 0-6.272 17.834667 286.890667 286.890667 0 0 0-4.949333 25.6c-1.194667 7.808-2.645333 18.176-4.053334 25.386667-3.413333 17.28-4.352 37.973333-5.888 65.024-3.328 58.112-5.077333 75.776-5.888 107.562666-0.170667 6.912-0.512 9.984-0.341333 44.373334 0.213333 34.944 1.024 101.077333 2.432 150.826666 1.408 49.493333 3.413333 80.682667 4.906667 100.138667 3.413333 44.373333 13.696 86.613333 19.541333 103.936 1.706667 4.992 5.504 11.477333 11.605333 20.224 0.768 0.170667 1.706667 0.384 2.688 0.512 10.496 1.536 24.064 2.133333 44.757334 3.413333 23.594667 1.493333 43.861333 2.304 61.866666 2.986667 17.664 0.597333 33.962667 1.109333 48.426667 2.005333 22.869333 1.493333 66.688 2.688 138.922667 3.669334 71.808 1.024 169.472 1.408 226.133333 1.109333 42.922667-0.256 64.725333-2.005333 76.373333-4.010667a35.925333 35.925333 0 0 0 8.362667-2.133333c0.64-1.194667 1.92-3.84 3.584-8.917333 3.925333-11.946667 6.912-26.581333 12.586667-49.749334 3.413333-13.952 6.314667-27.392 8.661333-35.925333-0.085333 0.298667 0.426667-2.048 1.621333-9.386667 1.066667-6.485333 2.346667-15.189333 3.925334-25.984 3.242667-22.272 6.997333-49.237333 12.032-83.925333 1.621333-12.202667 2.346667-19.157333 2.730666-23.765333 0.341333-4.394667 0.341333-6.869333 0.426667-11.093334 0.213333-8.533333 0.554667-18.688 0.938667-28.757333a42.666667 42.666667 0 0 1 85.290666 3.2c-0.384 10.24-0.768 19.712-0.938666 27.477333-0.213333 9.685333-0.298667 17.493333-3.84 44.16l-0.042667 0.512c-4.778667 32.853333-9.088 63.573333-12.16 84.48-2.858667 19.84-5.546667 37.845333-7.722667 45.824-2.048 7.381333-3.413333 14.549333-8.021333 33.450667-4.608 18.858667-9.088 39.936-14.378667 56.021333-5.12 15.786667-14.250667 37.973333-35.157333 52.053334-10.24 6.912-21.802667 12.885333-43.52 16.597333-18.944 3.242667-46.634667 4.949333-90.282667 5.205333-57.258667 0.298667-155.477333-0.085333-227.84-1.109333-71.850667-0.981333-117.802667-2.218667-143.146666-3.84-12.928-0.810667-27.562667-1.237333-46.037334-1.877333a2216.448 2216.448 0 0 1-64.213333-3.114667c-17.28-1.109333-36.650667-1.962667-51.712-4.138667a117.418667 117.418667 0 0 1-25.685333-6.4 63.914667 63.914667 0 0 1-28.8-21.546666c-8.277333-11.349333-21.418667-29.696-28.245334-49.92-8.106667-23.936-19.84-73.130667-23.808-124.672a2131.157333 2131.157333 0 0 1-5.12-104.32 7850.453333 7850.453333 0 0 1-2.474666-152.704c-0.213333-35.754667 0.213333-39.850667 0.426666-47.018667 0.853333-33.621333 2.773333-54.741333 5.973334-110.293333 1.365333-23.893333 2.474667-52.181333 7.381333-76.8 0.981333-4.906667 1.749333-11.136 3.413333-21.888a368.64 368.64 0 0 1 6.528-33.322667c2.986667-11.690667 7.253333-25.173333 14.08-37.632 6.656-12.373333 17.408-26.709333 34.56-35.84l9.898667-4.821333c24.021333-10.752 55.637333-17.92 106.24-18.474667z m554.197334-72.704a42.666667 42.666667 0 0 1 36.48 30.378667c5.461333 5.845333 10.112 10.624 13.994666 14.933333l0.512 0.512 0.512 0.597333c13.525333 16.042667 22.016 26.752 33.706667 39.850667l12.970667 14.165333 1.024 1.024 0.853333 1.109334c25.216 30.421333 46.293333 54.954667 59.52 72.96 6.613333 9.088 13.354667 19.2 17.749333 29.653333 4.394667 10.496 8.874667 26.922667 2.602667 44.970667-2.773333 8.021333-6.570667 19.84-18.773333 36.992-11.008 15.36-28.373333 34.56-57.258667 61.866666-19.029333 18.005333-45.226667 42.410667-70.784 66.261334-25.685333 23.893333-50.773333 47.274667-67.84 63.488-39.253333 37.12-43.733333 41.258667-48.938667 47.445333-10.069333 11.946667-48.170667 50.816-91.733333 96.853333-8.106667 8.576-16.682667 18.090667-23.04 24.234667a82.773333 82.773333 0 0 1-31.232 20.138667c-22.101333 7.509333-42.026667 9.813333-65.621333 13.909333-6.314667 1.109333-14.677333 3.413333-27.008 7.04-11.264 3.285333-25.386667 7.381333-39.424 10.112-13.781333 2.688-30.848 4.778667-48 2.176-18.261333-2.773333-38.144-11.264-52.522667-30.549333-14.293333-19.157333-18.048-44.714667-19.925333-61.184-1.834667-16.341333-3.114667-41.856-4.352-55.509334-3.029333-33.877333-6.144-59.178667-8.277334-80.213333a408.32 408.32 0 0 1-2.090666-27.52 83.712 83.712 0 0 1 3.328-29.013333l2.688-6.741334c6.869333-15.36 18.773333-28.032 39.722666-47.957333 22.869333-21.76 59.733333-55.466667 79.914667-75.093333 21.333333-20.736 44.970667-45.653333 87.210667-79.914667 33.493333-27.178667 56.234667-46.677333 94.08-75.52 32.213333-24.576 84.053333-62.165333 113.749333-85.802667 18.56-14.848 29.610667-23.893333 36.010667-29.141333l6.826666-5.546667 2.56-2.090666a50.688 50.688 0 0 1 7.424-4.608c0.426667-0.213333 8.277333-4.48 18.986667-4.48l4.394667 0.213333z m-23.04 112.341333c-30.208 24.106667-86.186667 64.853333-115.2 86.954667-36.437333 27.776-57.002667 45.525333-91.989334 73.941333-38.485333 31.232-58.581333 52.565333-81.536 74.837334-19.797333 19.2-60.672 56.832-80.554666 75.733333a284.586667 284.586667 0 0 0-19.285334 19.626667c0.170667 4.778667 0.725333 11.562667 1.706667 21.162666 1.877333 18.602667 5.290667 47.104 8.32 81.194667 0.896 9.770667 1.536 19.797333 2.133333 28.714667 0.64 9.216 1.194667 17.450667 2.048 24.832 0.853333 7.466667 1.834667 13.013333 2.901334 16.981333v0.170667a75.52 75.52 0 0 0 16.426666-1.706667c9.685333-1.92 20.096-4.906667 32-8.362667 10.752-3.114667 24.192-7.082667 36.181334-9.173333 28.202667-4.864 37.973333-5.930667 50.773333-10.069333l1.408-1.194667c1.834667-1.834667 4.181333-4.266667 7.68-8.064l12.629333-13.482667c46.848-49.493333 80.469333-83.669333 88.362667-93.098666 9.344-11.093333 19.242667-20.138667 55.637333-54.613334 17.408-16.426667 42.752-40.064 68.352-63.872 25.642667-23.893333 51.584-48.085333 70.4-65.834666 27.392-25.941333 40.106667-40.704 46.336-49.408 1.493333-2.133333 2.517333-3.84 3.413334-5.290667-1.152-1.706667-2.56-3.84-4.352-6.357333-11.178667-15.189333-28.842667-35.754667-55.722667-68.224-20.266667-21.504-31.829333-36.096-47.104-54.272l-10.922667 8.874666z"  /></svg>