<?xml version="1.0" standalone="no"?><!DOCTYPE svg PUBLIC "-//W3C//DTD SVG 1.1//EN" "http://www.w3.org/Graphics/SVG/1.1/DTD/svg11.dtd"><svg class="icon" width="32px" height="32.00px" viewBox="0 0 1024 1024" version="1.1" xmlns="http://www.w3.org/2000/svg"><path fill="#000000" d="M454.784 43.690667c30.293333 0.725333 73.728 3.242667 112.384 8.832 35.498667 5.12 72.874667 11.818667 98.56 23.978666 15.061333 7.168 25.472 12.672 32.426667 16.64a181.205333 181.205333 0 0 1 11.221333 6.997334 65.877333 65.877333 0 0 1 2.645333 2.005333 42.666667 42.666667 0 0 1-53.589333 66.389333l0.128 0.085334 0.981333 0.768c0.341333 0.256 0.64 0.426667 0.725334 0.554666l-0.128-0.085333a107.264 107.264 0 0 0-4.309334-2.602667 401.365333 401.365333 0 0 0-26.666666-13.653333c-12.288-5.802667-36.992-11.264-74.24-16.64-34.133333-4.906667-73.856-7.253333-102.144-7.893333-27.690667-0.682667-40.874667 0.426667-51.925334 2.048-21.205333 3.2-47.274667 12.16-83.84 26.88-34.218667 13.824-51.797333 27.562667-58.538666 33.237333-11.690667 9.813333-24.064 24.405333-39.722667 49.578667-8.874667 14.208-20.736 40.362667-35.498667 82.432a1435.306667 1435.306667 0 0 0-38.4 133.12c-8.661333 36.778667-10.666667 55.68-12.16 77.568a685.952 685.952 0 0 0-1.578666 65.92c0.597333 16.426667 2.346667 25.856 6.528 39.253333 11.136 35.626667 22.442667 57.258667 30.506666 69.376 6.272 9.301333 19.029333 25.344 33.152 40.192 12.928 13.525333 26.922667 25.344 50.090667 41.813333 23.509333 16.64 54.357333 36.608 82.261333 52.053334a447.573333 447.573333 0 0 0 71.253334 32.298666c18.645333 6.4 33.877333 9.813333 69.077333 13.141334 36.394667 3.370667 91.392 6.186667 123.562667 7.466666 34.816 1.408 48.682667-1.450667 67.157333-6.826666 4.992-1.450667 12.117333-4.821333 31.701333-18.176a1003.605333 1003.605333 0 0 0 60.074667-45.141334c18.261333-14.933333 26.794667-27.008 36.906667-41.173333 6.528-9.088 22.698667-30.634667 44.842666-63.957333 6.698667-10.069333 8.149333-12.8 14.08-28.757334a1031.253333 1031.253333 0 0 0 23.850667-73.088c12.373333-51.242667 16.384-75.093333 17.066667-84.224v-0.426666l0.042666-0.384a1493.333333 1493.333333 0 0 1 6.272-53.717334 42.666667 42.666667 0 0 1 84.608 11.306667c-3.029333 22.528-4.992 40.448-5.930666 50.474667-1.365333 17.066667-7.04 47.189333-19.285334 97.877333l-0.426666 1.536a1108.650667 1108.650667 0 0 1-26.197334 80.341333c-7.68 20.778667-11.946667 29.696-23.04 46.336-23.253333 34.986667-40.874667 58.538667-46.506666 66.389334-10.922667 15.232-24.874667 35.114667-52.309334 57.557333-17.28 14.08-45.056 35.370667-66.048 49.664-19.797333 13.44-36.693333 23.893333-55.893333 29.482667-27.477333 7.978667-50.474667 11.946667-94.378667 10.24a2854.101333 2854.101333 0 0 1-128.085333-7.808c-39.893333-3.712-62.08-8.277333-88.746667-17.408-25.173333-8.661333-53.376-20.906667-84.906666-38.4a1014.997333 1014.997333 0 0 1-90.368-57.130667c-25.898667-18.346667-44.586667-33.706667-62.506667-52.48-16.64-17.493333-32.725333-37.333333-42.282667-51.626667-13.653333-20.352-28.074667-49.877333-41.045333-91.306666a215.893333 215.893333 0 0 1-10.325333-61.568c-0.853333-22.101333 0-49.962667 1.706666-74.837334 1.749333-26.197333 4.437333-49.706667 14.165334-91.306666 9.429333-40.362667 25.344-97.408 40.96-141.909334 15.274667-43.52 29.610667-76.885333 43.562666-99.285333 18.261333-29.269333 36.224-52.096 57.429334-69.888 12.373333-10.368 37.546667-29.269333 81.493333-46.976 36.48-14.72 70.826667-27.264 102.954667-32.085333 17.408-2.645333 35.754667-3.754667 66.645333-3.072z m449.408 100.394666a42.666667 42.666667 0 0 1 66.730667 53.162667c-26.069333 32.810667-49.877333 62.08-123.946667 137.216-73.344 74.410667-193.621333 191.573333-256.853333 249.045333-15.616 14.208-28.928 25.898667-40.405334 34.517334-10.794667 8.106667-24.021333 16.64-39.253333 20.224a64 64 0 0 1-48.512-7.850667c-10.538667-6.314667-19.84-15.530667-25.898667-21.418667-28.416-27.562667-78.933333-78.378667-110.293333-109.525333A2578.602667 2578.602667 0 0 0 268.373333 443.733333a42.666667 42.666667 0 0 1 58.453334-62.165333c13.482667 12.714667 27.050667 25.429333 59.136 57.301333 32.213333 32 81.578667 81.706667 109.568 108.885334l2.517333 2.346666 0.512-0.341333c7.936-5.973333 18.645333-15.232 34.218667-29.397333 61.653333-56.021333 180.736-172.032 253.44-245.802667 72.021333-73.088 93.866667-100.096 118.016-130.474667z"  /></svg>