<?xml version="1.0" standalone="no"?><!DOCTYPE svg PUBLIC "-//W3C//DTD SVG 1.1//EN" "http://www.w3.org/Graphics/SVG/1.1/DTD/svg11.dtd"><svg class="icon" width="32px" height="32.00px" viewBox="0 0 1024 1024" version="1.1" xmlns="http://www.w3.org/2000/svg"><path fill="#000000" d="M845.226667 263.253333a42.666667 42.666667 0 0 1 47.488 70.869334c-6.485333 4.352-11.050667 6.4-66.901334 59.050666-55.765333 52.608-156.8 149.930667-219.690666 216.874667a1482.922667 1482.922667 0 0 0-68.352 77.653333c-14.378667 17.493333-26.709333 33.621333-35.285334 42.88-4.394667 4.821333-11.434667 11.946667-20.864 17.066667-11.52 6.229333-24.405333 8.32-37.504 5.76a79.914667 79.914667 0 0 1-24.917333-10.069333c-5.717333-3.370667-12.501333-7.850667-18.773333-11.946667-27.093333-17.706667-78.165333-50.005333-126.122667-87.424-48.085333-37.546667-91.392-78.72-133.034667-118.186667a42.666667 42.666667 0 1 1 58.752-61.866666c42.112 39.936 82.474667 78.250667 126.762667 112.810666 44.416 34.645333 91.904 64.682667 120.32 83.2l2.176 1.408c5.248-6.485333 12.202667-15.189333 22.485333-27.733333 16.64-20.266667 39.509333-47.189333 72.192-81.962667 64.768-68.949333 167.381333-167.808 223.317334-220.544 55.893333-52.693333 64.938667-59.178667 77.909333-67.84z"  /></svg>