<?xml version="1.0" standalone="no"?><!DOCTYPE svg PUBLIC "-//W3C//DTD SVG 1.1//EN" "http://www.w3.org/Graphics/SVG/1.1/DTD/svg11.dtd"><svg class="icon" width="32px" height="32.00px" viewBox="0 0 1024 1024" version="1.1" xmlns="http://www.w3.org/2000/svg"><path fill="#000000" d="M451.413333 85.376c47.061333-0.213333 133.504 0.256 176.597334 0.512l43.349333 0.213333a42.666667 42.666667 0 0 1 0 85.333334l-43.818667-0.213334c-43.306667-0.256-129.194667-0.725333-175.786666-0.512-45.525333 0.170667-48.938667 1.024-67.413334 3.029334-56.32 6.186667-96.554667 10.666667-109.056 12.928-15.957333 2.901333-36.053333 5.546667-50.688 7.936-6.442667 1.024-12.245333 2.048-17.322666 3.072-0.64 5.376-1.450667 11.818667-2.56 19.157333-4.608 31.402667-7.850667 58.282667-10.112 78.378667-2.090667 18.133333-3.754667 34.730667-4.864 40.746666l-0.128 1.066667a244.352 244.352 0 0 0-0.469334 4.864c-0.426667 4.650667-1.109333 11.818667-2.304 23.04-2.218667 20.906667-6.314667 57.6-5.546666 137.813333 0.725333 81.152 6.570667 205.098667 9.813333 271.36 1.365333 27.008 2.56 43.818667 3.541333 54.570667l5.333334 1.109333c9.472 2.005333 27.306667 4.096 130.048 8.789334 100.864 4.608 280.32 10.965333 377.344 13.610666 106.410667 2.858667 115.2-0.469333 120.746666-1.578666 6.4-1.237333 10.965333-2.986667 13.653334-4.352l0.725333-0.426667c1.664-3.242667 3.413333-9.856 7.381333-34.304 3.157333-19.626667 7.082667-56.32 10.154667-99.669333 3.072-42.88 4.522667-89.728 3.413333-126.336-1.066667-36.138667-4.693333-61.013333-8.874666-95.829334a42.666667 42.666667 0 0 1 84.736-10.112c3.968 33.109333 8.192 62.506667 9.429333 103.338667 1.237333 40.32-0.426667 90.197333-3.584 134.954667-3.114667 44.245333-7.253333 83.882667-11.008 107.221333-3.754667 23.082667-6.997333 49.408-23.082667 71.978667-15.573333 21.845333-43.178667 32.725333-66.56 37.290666-15.658667 3.072-32.810667 6.016-139.434666 3.157334a26032.938667 26032.938667 0 0 1-378.922667-13.653334c-99.541333-4.565333-125.781333-6.826667-143.658667-10.581333-7.04-1.450667-18.176-3.456-25.642666-5.546667-5.973333-1.706667-26.453333-7.381333-37.162667-27.904-5.12-9.728-7.424-19.029333-9.088-33.109333a1127.253333 1127.253333 0 0 1-4.693333-68.437333c-3.242667-65.877333-9.216-191.573333-9.984-274.773334-0.768-84.224 3.584-124.288 6.058666-147.541333 1.109333-10.794667 1.706667-17.493333 2.176-22.272a153.6 153.6 0 0 1 1.706667-13.226667l0.256-2.218666c0.256-1.877333 0.554667-4.352 0.853333-7.509334l2.816-25.173333c2.346667-20.650667 5.717333-48.554667 10.538667-81.237333 1.066667-7.210667 1.877333-13.525333 2.56-19.328a370.346667 370.346667 0 0 1 2.389333-16.554667c0.768-4.608 2.304-12.245333 5.76-19.797333 3.882667-8.405333 12.202667-20.650667 28.330667-26.453334 15.957333-5.76 35.242667-9.258667 51.797333-11.904 18.56-2.986667 33.664-4.821333 48.981334-7.594666 16.256-2.944 61.013333-7.850667 114.944-13.781334 21.76-2.389333 28.16-3.328 76.288-3.541333z m452.522667 117.674667a42.666667 42.666667 0 1 1 64.170667 56.149333c-29.909333 34.261333-57.856 66.389333-125.141334 127.658667-66.389333 60.501333-168.533333 147.2-221.909333 191.658666-25.386667 21.077333-43.093333 35.541333-56.234667 43.178667a67.328 67.328 0 0 1-29.781333 9.898667c-13.226667 0.853333-23.296-3.285333-27.989333-5.290667-17.92-7.722667-40.149333-23.253333-69.205334-47.744a2333.44 2333.44 0 0 1-94.165333-85.376 1788.842667 1788.842667 0 0 1-53.504-52.906667 42.666667 42.666667 0 0 1 61.056-59.605333c13.141333 13.44 26.026667 26.666667 51.285333 50.688 25.6 24.405333 62.72 58.709333 90.282667 81.92 17.450667 14.677333 29.610667 23.466667 37.632 28.629333 1.493333-1.152 3.328-2.389333 5.333333-3.968 7.552-5.888 17.408-13.994667 30.72-25.088 53.034667-44.117333 154.026667-129.877333 219.008-189.056 64.042667-58.368 89.685333-87.893333 118.442667-120.746666z"  /></svg>