<?xml version="1.0" standalone="no"?><!DOCTYPE svg PUBLIC "-//W3C//DTD SVG 1.1//EN" "http://www.w3.org/Graphics/SVG/1.1/DTD/svg11.dtd"><svg class="icon" width="32px" height="32.00px" viewBox="0 0 1024 1024" version="1.1" xmlns="http://www.w3.org/2000/svg"><path fill="#000000" d="M490.88 334.08c9.088 0 16.128 2.773333 20.138667 4.693333 6.656 3.2 12.458667 7.936 15.061333 10.069334 6.101333 4.949333 19.584 16.64 38.826667 32.512 41.557333 34.474667 122.282667 100.181333 164.650666 134.570666l37.888 30.762667c4.693333 3.84 8.277333 6.656 11.52 10.197333-0.938667-1.066667-1.792-1.792-2.090666-2.133333a36.309333 36.309333 0 0 0-0.853334-0.768c-0.170667-0.085333-0.298667-0.213333-0.341333-0.298667l0.085333 0.085334 0.512 0.426666 4.352 3.328 13.696 10.581334a1372.586667 1372.586667 0 0 1 20.053334 15.786666c0.853333 0.682667 1.877333 1.536 2.858666 2.432l2.005334 1.92 4.053333 4.565334 2.474667 3.626666a42.666667 42.666667 0 0 1-66.944 52.053334l1.024 0.981333-0.213334-0.170667a1229.994667 1229.994667 0 0 0-17.28-13.525333l-13.824-10.624a537.557333 537.557333 0 0 1-7.253333-5.674667l-1.365333-1.152-1.664-1.621333-4.693334-3.84c-5.802667-4.736-16.64-13.44-37.845333-30.72-42.282667-34.346667-123.306667-100.309333-165.248-135.04l-20.266667-16.981333-6.784 6.314666c-13.44 12.672-44.458667 42.666667-58.112 55.509334-15.36 14.506667-20.906667 18.602667-26.197333 23.338666-20.266667 18.005333-35.498667 33.28-41.173333 41.216-4.309333 5.973333-11.349333 13.781333-18.389334 21.546667-8.021333 8.832-18.005333 19.626667-31.189333 34.261333-13.525333 14.933333-27.733333 31.402667-42.325333 48.341334A42.666667 42.666667 0 0 1 201.386667 605.013333c14.421333-16.768 29.269333-34.005333 43.605333-49.92 13.226667-14.592 24.021333-26.325333 31.445333-34.474666a620.8 620.8 0 0 0 11.349334-12.885334l0.725333-0.853333c12.032-16.853333 34.389333-38.016 53.888-55.381333 9.685333-8.618667 9.6-7.765333 24.32-21.674667 16.512-15.488 40.448-38.741333 58.069333-55.424 19.072-18.005333 30.250667-26.709333 43.52-34.304l4.266667-2.133333c4.693333-2.090667 10.88-3.882667 18.304-3.84z"  /></svg>