<?xml version="1.0" standalone="no"?><!DOCTYPE svg PUBLIC "-//W3C//DTD SVG 1.1//EN" "http://www.w3.org/Graphics/SVG/1.1/DTD/svg11.dtd"><svg class="icon" width="32px" height="32.00px" viewBox="0 0 1024 1024" version="1.1" xmlns="http://www.w3.org/2000/svg"><path fill="#000000" d="M589.056 223.786667a42.666667 42.666667 0 0 1 70.784 47.658666c-1.877333 2.773333-4.266667 5.546667-8.192 10.154667-5.034667 5.973333-14.848 17.578667-34.133333 40.234667-38.613333 45.482667-115.2 135.381333-156.16 184.277333-19.541333 23.338667-29.994667 36.906667-35.498667 44.8 0.896 1.493333 2.133333 3.328 3.669333 5.589333 9.984 14.378667 23.936 27.52 53.333334 50.218667 19.2 14.890667 62.634667 45.738667 92.885333 70.229333 32.213333 26.026667 55.04 48.213333 67.029333 59.733334 6.058667 5.76 8.874667 8.362667 10.325334 9.6a42.666667 42.666667 0 0 1-45.226667 72.32c-7.338667-4.394667-12.8-9.472-24.021333-20.266667-12.202667-11.605333-32.64-31.488-61.781334-55.04-31.104-25.173333-65.536-49.066667-91.434666-69.077333-30.378667-23.466667-53.333333-43.264-71.168-68.992-9.002667-12.970667-20.608-32.085333-21.12-56.32-0.341333-15.616 5.290667-28.117333 13.781333-41.216 7.893333-12.16 21.333333-29.525333 43.818667-56.362667 41.216-49.237333 118.101333-139.52 156.586666-184.746667a12908.757333 12908.757333 0 0 0 37.845334-44.629333l-0.768 1.024-0.554667 0.810667z m63.573333 522.24l-0.256-0.213334-0.341333-0.213333 0.64 0.426667z"  /></svg>