<?xml version="1.0" standalone="no"?><!DOCTYPE svg PUBLIC "-//W3C//DTD SVG 1.1//EN" "http://www.w3.org/Graphics/SVG/1.1/DTD/svg11.dtd"><svg class="icon" width="32px" height="32.00px" viewBox="0 0 1024 1024" version="1.1" xmlns="http://www.w3.org/2000/svg"><path fill="#000000" d="M291.157333 495.616a42.666667 42.666667 0 0 1 45.610667 27.904l0.938667 1.578667 4.992 8.149333c8.746667 13.952 26.325333 41.045333 58.197333 77.568 31.658667 36.266667 76.8 80.896 103.466667 107.477333 28.16-29.269333 73.728-80.64 111.530666-120.490666 37.930667-39.978667 59.136-58.453333 70.954667-68.906667 5.546667-4.949333 8.362667-7.594667 9.898667-9.045333l5.162666-5.162667a42.666667 42.666667 0 0 1 59.946667 60.501333 215.893333 215.893333 0 0 1-18.346667 17.493334c-10.922667 9.685333-30.165333 26.368-65.706666 63.829333-33.962667 35.84-89.514667 98.005333-115.626667 124.885333a187.008 187.008 0 0 1-21.546667 19.754667c-7.765333 5.76-21.333333 13.824-39.466666 12.8-17.152-1.066667-29.354667-9.941333-35.626667-14.976-6.4-5.205333-13.312-12.16-19.029333-17.834667-25.429333-25.344-74.88-74.069333-109.866667-114.176a675.370667 675.370667 0 0 1-66.261333-88.448 272.853333 272.853333 0 0 1-10.112-17.066666 62.165333 62.165333 0 0 1-3.669334-8.533334 48.384 48.384 0 0 1-2.218666-9.514666 42.666667 42.666667 0 0 1 36.778666-47.786667z m47.786667 36.821333a36.736 36.736 0 0 0-0.426667-2.56l-0.042666-0.170666c0.170667 0.853333 0.384 1.792 0.469333 2.730666zM274.858667 220.8a42.709333 42.709333 0 0 1 59.946666 7.168c2.133333 2.688 4.181333 5.418667 11.946667 13.952 8.149333 8.96 22.869333 24.618667 47.146667 52.394667 23.296 26.624 58.581333 68.138667 77.184 89.514666 7.722667 8.874667 13.738667 15.402667 18.218666 20.352 2.986667-1.621333 6.4-3.413333 10.197334-5.546666 10.837333-5.973333 26.453333-17.237333 46.208-33.706667 18.901333-15.786667 39.68-35.626667 56.789333-53.802667 16.938667-17.962667 29.738667-33.706667 38.144-44.373333 16-20.693333 26.026667-31.786667 33.194667-38.272a42.666667 42.666667 0 0 1 67.84 51.626667c-2.986667 4.266667-6.272 7.936-10.24 11.264l-0.682667 0.597333-0.725333 0.512c1.536-1.152 0.896-0.938667-2.986667 3.413333-3.712 4.138667-9.813333 11.306667-19.114667 23.296l-0.170666 0.256c-9.386667 11.946667-23.893333 29.781333-43.178667 50.261334-19.114667 20.266667-42.325333 42.496-64.256 60.8-21.034667 17.536-41.472 32.810667-59.306667 42.752-11.989333 6.656-21.973333 11.861333-29.866666 15.445333a115.2 115.2 0 0 1-12.373334 4.864 53.76 53.76 0 0 1-21.632 2.56 55.082667 55.082667 0 0 1-37.248-19.712c0.725333 0.853333 1.152 1.28-0.64-0.597333a891.733333 891.733333 0 0 1-32.554666-35.968c-21.12-24.32-52.437333-61.226667-77.013334-89.344-23.594667-26.965333-37.248-41.472-46.08-51.2a292.138667 292.138667 0 0 1-15.914666-18.602667 42.666667 42.666667 0 0 1 7.168-59.904z m400.469333 6.4c0.384-0.341333 0.725333-0.682667 1.109333-0.938667l-0.085333-0.085333-1.024 0.981333z"  /></svg>