<?xml version="1.0" standalone="no"?><!DOCTYPE svg PUBLIC "-//W3C//DTD SVG 1.1//EN" "http://www.w3.org/Graphics/SVG/1.1/DTD/svg11.dtd"><svg class="icon" width="32px" height="32.00px" viewBox="0 0 1024 1024" version="1.1" xmlns="http://www.w3.org/2000/svg"><path fill="#000000" d="M191.232 332.458667a42.709333 42.709333 0 0 1 60.330667-2.346667c26.624 24.618667 53.248 49.28 97.706666 90.794667 44.8 41.813333 105.344 98.56 138.197334 126.933333 3.328 2.901333 5.973333 4.992 7.936 6.656 6.058667-4.053333 14.122667-10.154667 26.282666-19.669333 50.432-39.424 147.498667-117.333333 248.874667-198.954667a42.666667 42.666667 0 1 1 53.504 66.432 28793.002667 28793.002667 0 0 1-249.813333 199.68c-12.373333 9.685333-23.637333 18.389333-33.493334 24.832-9.557333 6.186667-22.272 13.354667-37.546666 15.488a68.224 68.224 0 0 1-43.861334-9.088 183.381333 183.381333 0 0 1-27.690666-20.821333c-34.432-29.781333-96.64-88.064-140.629334-129.109334-44.288-41.386667-70.869333-65.92-97.450666-90.496a42.752 42.752 0 0 1-2.346667-60.330666z"  /></svg>