<?xml version="1.0" standalone="no"?><!DOCTYPE svg PUBLIC "-//W3C//DTD SVG 1.1//EN" "http://www.w3.org/Graphics/SVG/1.1/DTD/svg11.dtd"><svg class="icon" width="32px" height="32.00px" viewBox="0 0 1024 1024" version="1.1" xmlns="http://www.w3.org/2000/svg"><path fill="#000000" d="M542.165333 38.912a1382.101333 1382.101333 0 0 1 49.536 2.858667c0.469333 0 0.938667 0.128 1.28 0.128h-1.834666c12.074667 0 22.954667 5.034667 30.72 13.141333l8.661333 1.962667c8.277333 1.493333 23.68 1.450667 68.053333 15.786666 21.888 6.997333 55.04 18.730667 77.738667 27.733334 23.808 9.386667 37.845333 16.426667 55.04 28.16 15.573333 10.666667 33.792 25.088 49.322667 40.234666 15.786667 15.36 28.074667 30.805333 38.016 45.482667 10.453333 15.445333 18.218667 30.037333 26.922666 52.48 8.277333 21.205333 17.664 50.090667 23.253334 72.96 5.973333 24.576 7.594667 42.069333 7.765333 64.853333 0.128 21.674667-0.896 48.853333-4.437333 79.36-3.584 30.890667-9.6 64.426667-23.125334 107.349334-13.226667 41.984-33.024 91.392-48.938666 125.738666-16.469333 35.413333-29.013333 55.466667-44.586667 76.8-14.890667 20.352-32.469333 41.856-52.053333 61.866667-19.626667 20.053333-40.277333 37.546667-63.189334 54.826667-22.613333 16.981333-47.530667 33.749333-65.706666 44.586666a171.648 171.648 0 0 1-58.581334 23.125334c-21.632 4.778667-52.736 9.813333-83.413333 12.672-30.762667 2.858667-60.416 3.498667-84.906667 2.602666a255.658667 255.658667 0 0 1-74.410666-12.373333 557.781333 557.781333 0 0 1-82.517334-34.730667 493.226667 493.226667 0 0 1-60.16-37.12 331.392 331.392 0 0 1-36.266666-29.184 306.56 306.56 0 0 1-35.754667-40.192c-13.525333-17.749333-29.866667-41.685333-44.373333-66.901333-14.506667-25.173333-26.752-50.773333-35.242667-71.466667a304.64 304.64 0 0 1-17.621333-56.576c-4.053333-19.157333-7.04-40.149333-8.021334-75.946666a1324.672 1324.672 0 0 1 2.389334-116.608c2.56-34.602667 6.997333-53.034667 9.130666-64.085334 3.754667-19.626667 6.698667-35.84 17.408-61.226666a601.6 601.6 0 0 1 38.4-76.8c18.090667-29.952 40.192-58.752 56.192-77.269334 16.64-19.413333 27.733333-28.885333 38.784-36.949333 12.032-8.746667 22.954667-14.848 52.778667-27.477333 29.226667-12.373333 78.506667-31.914667 113.365333-43.946667 36.096-12.373333 57.472-17.152 83.413334-20.48 22.613333-2.986667 52.181333-6.4 76.970666-5.376z m-3.413333 85.333333c-16.64-0.682667-39.594667 1.621333-62.506667 4.650667-19.626667 2.56-35.370667 5.802667-66.645333 16.554667-32.512 11.178667-79.872 29.909333-107.904 41.813333-27.392 11.605333-31.488 14.762667-35.84 17.92-5.290667 3.84-11.52 8.746667-24.32 23.594667-13.568 15.744-32.64 40.704-47.829333 65.792a517.248 517.248 0 0 0-32.853334 65.834666c-6.997333 16.64-8.661333 25.386667-12.245333 44.074667-2.389333 12.501333-5.717333 25.6-7.808 54.314667a1241.770667 1241.770667 0 0 0-2.176 108.032c0.853333 31.189333 3.328 47.061333 6.229333 60.672 2.901333 13.781333 6.229333 25.045333 13.056 41.728a533.034667 533.034667 0 0 0 68.608 119.04c11.093333 14.634667 18.773333 22.698667 26.197334 29.696 7.509333 7.04 14.933333 13.141333 27.434666 22.058666 12.501333 8.917333 28.672 19.669333 50.005334 30.762667 21.802667 11.349333 48.341333 22.613333 68.949333 29.141333 18.858667 5.973333 31.872 7.722667 51.626667 8.448 20.778667 0.768 46.762667 0.213333 73.984-2.346666 27.306667-2.56 54.912-7.04 72.96-11.008 15.36-3.413333 20.522667-5.546667 33.28-13.141334 15.104-8.96 37.418667-23.978667 58.026666-39.466666 20.266667-15.232 37.461333-29.952 53.546667-46.378667 16.213333-16.469333 31.146667-34.730667 44.16-52.48 12.245333-16.725333 21.930667-31.957333 36.010667-62.336a1061.12 1061.12 0 0 0 45.013333-115.456c11.648-37.077333 16.64-65.28 19.712-91.562667 3.072-26.709333 4.010667-50.346667 3.84-68.906666a171.349333 171.349333 0 0 0-5.290667-45.226667 557.994667 557.994667 0 0 0-19.882666-62.293333c-6.656-17.066667-11.52-25.898667-18.090667-35.541334a205.312 205.312 0 0 0-26.965333-32.256 297.941333 297.941333 0 0 0-37.845334-30.805333c-10.496-7.210667-18.517333-11.52-38.229333-19.285333a1398.869333 1398.869333 0 0 0-72.533333-25.898667 298.282667 298.282667 0 0 0-37.12-10.026667 165.034667 165.034667 0 0 0-9.173334-1.408c-2.773333-0.384-7.04-0.853333-11.477333-1.706666l-1.024-0.170667-1.066667-0.256c-26.837333-6.4-37.290667-8.32-44.714666-9.856a124.416 124.416 0 0 0-8.96-1.109333 42.538667 42.538667 0 0 1-16.384-5.077334l-3.754667-0.170666z m-46.890667 91.818667a42.666667 42.666667 0 0 1 44.117334 41.173333c0.554667 16.213333 1.109333 32.426667 0.725333 77.482667-0.298667 37.205333-1.28 94.037333-2.346667 155.306667 9.472 5.546667 24.746667 14.122667 47.872 26.496 33.536 16.213333 82.432 37.248 114.517334 51.968 32.213333 14.805333 41.386667 20.565333 52.053333 26.752a42.709333 42.709333 0 0 1-42.794667 73.813333c-9.6-5.546667-16.128-9.813333-44.885333-23.04-28.714667-13.184-82.602667-36.522667-116.650667-52.992l-1.578666-0.853333a1860.821333 1860.821333 0 0 1-43.093334-23.68 42.666667 42.666667 0 0 1-51.370666-42.496c1.322667-75.136 2.56-147.754667 2.986666-191.957334a1484.16 1484.16 0 0 0-0.725333-73.856 42.666667 42.666667 0 0 1 41.173333-44.117333z m42.453334 279.637333c0.512 0.938667 1.152 1.792 1.664 2.773334-0.554667-1.066667-1.152-2.005333-1.706667-2.901334v0.128zM594.517333 41.984l0.128 0.042667h-0.469333l-0.810667-0.085334h0.64l0.512 0.042667z"  /></svg>