<?xml version="1.0" standalone="no"?><!DOCTYPE svg PUBLIC "-//W3C//DTD SVG 1.1//EN" "http://www.w3.org/Graphics/SVG/1.1/DTD/svg11.dtd"><svg class="icon" width="32px" height="32.00px" viewBox="0 0 1024 1024" version="1.1" xmlns="http://www.w3.org/2000/svg"><path fill="#000000" d="M114.005333 228.906667a42.666667 42.666667 0 0 1 60.074667 5.248c5.077333 6.016 10.368 12.714667 55.338667 54.656 44.501333 41.514667 129.109333 118.698667 171.690666 159.488 20.693333 19.84 33.749333 33.152 40.874667 42.794666 2.986667 4.010667 10.112 13.909333 11.52 27.562667 1.92 18.773333-8.106667 31.36-9.386667 33.066667-5.717333 7.594667-13.098667 14.933333-32.725333 32.725333-20.736 18.773333-55.466667 49.322667-81.92 74.538667-42.496 43.093333-70.229333 71.893333-86.4 87.04l-5.077333 5.248-4.181334 4.821333a42.666667 42.666667 0 0 1-65.066666-55.168c3.413333-4.053333 7.210667-8.661333 14.805333-16.042667l0.341333-0.341333 0.341334-0.298667c14.336-13.354667 39.722667-39.808 84.736-85.418666l0.426666-0.469334 0.512-0.426666c27.477333-26.24 64.341333-58.794667 83.882667-76.501334-3.413333-3.370667-7.253333-7.253333-11.690667-11.52-42.24-40.448-124.757333-115.626667-170.88-158.72-45.653333-42.496-53.973333-52.053333-62.464-62.208a42.666667 42.666667 0 0 1 5.248-60.074666z m512.981334 429.397333l149.077333 4.138667a42.709333 42.709333 0 0 1-2.389333 85.333333l-149.034667-4.181333-26.154667-0.682667a396.117333 396.117333 0 0 0-3.328-0.085333h0.256a42.666667 42.666667 0 0 1 0-85.333334c1.152 0 2.773333 0 31.573334 0.853334z"  /></svg>