<?xml version="1.0" standalone="no"?><!DOCTYPE svg PUBLIC "-//W3C//DTD SVG 1.1//EN" "http://www.w3.org/Graphics/SVG/1.1/DTD/svg11.dtd"><svg class="icon" width="32px" height="32.00px" viewBox="0 0 1024 1024" version="1.1" xmlns="http://www.w3.org/2000/svg"><path fill="#000000" d="M724.096 330.922667c9.941333 0 36.565333 0 79.744 2.474666 50.773333 2.986667 85.12 19.541333 101.589333 29.866667 17.493333 10.88 28.330667 28.416 35.413334 41.642667 7.594667 14.208 14.890667 31.658667 22.058666 48.64a273.493333 273.493333 0 0 1 20.693334 106.453333c0 26.965333-9.258667 49.962667-16.298667 67.114667a247.253333 247.253333 0 0 1-69.632 93.952 117.973333 117.973333 0 0 1-29.994667 17.621333 393.898667 393.898667 0 0 1-12.373333 4.992c-3.84 1.493333-7.082667 2.688-10.154667 3.968l-0.896 0.426667-0.981333 0.298666c-11.690667 4.266667-22.954667 7.68-31.402667 9.898667l0.042667 0.085333c-2.389333 0.682667-6.357333 1.877333-15.232 4.010667-2.389333 0.554667-4.736 0.853333-7.082667 1.024-0.512 11.861333-0.725333 18.005333-2.432 28.842667-4.181333 26.624-9.301333 55.552-16.469333 74.24a214.272 214.272 0 0 1-10.666667 24.106666c-3.84 7.125333-10.069333 17.109333-19.882666 25.002667a78.08 78.08 0 0 1-19.2 10.666667c-5.632 2.304-12.117333 4.522667-18.901334 6.656-13.696 4.309333-31.274667 9.088-51.157333 14.08-12.245333 3.114667-21.76 5.461333-28.629333 7.082666a110.634667 110.634667 0 0 1-24.405334 3.626667 335.274667 335.274667 0 0 1-10.666666 0.426667c-9.6 0.256-25.301333 0.426667-53.077334 0.128-52.394667-0.597333-152.405333-2.304-211.456-5.248-58.538667-2.901333-79.786667-6.656-94.805333-11.306667-4.693333-1.450667-9.6-2.602667-17.28-4.522667a355.370667 355.370667 0 0 1-25.514667-7.296 276.224 276.224 0 0 1-36.053333-14.08c-12.458667-6.186667-28.032-15.914667-39.424-31.786666a142.08 142.08 0 0 1-28.330667-73.130667c-0.810667-7.424-3.157333-25.770667-6.4-71.168-2.090667-29.866667-4.565333-72.832-5.845333-118.144a3736.448 3736.448 0 0 1-1.194667-115.370667c0.085333-24.533333 0.341333-27.690667 0.512-31.872l-0.170666-2.218666a255.104 255.104 0 0 0-0.896-8.405334c-0.853333-6.656-2.048-16.213333-2.730667-25.898666a166.314667 166.314667 0 0 1 0.682667-33.408c1.578667-11.690667 5.290667-26.368 14.805333-39.722667l4.48-5.376c4.565333-4.693333 9.216-7.509333 11.946667-8.96 4.053333-2.218667 7.936-3.541333 10.709333-4.437333 5.546667-1.706667 11.52-2.816 16.469333-3.584 10.197333-1.536 23.125333-2.730667 36.608-3.84 12.714667-0.981333 19.498667-1.664 119.210667-1.92 100.181333-0.298667 289.578667-0.128 388.608-0.042667h34.901333a42.453333 42.453333 0 0 1 21.162667-5.589333zM279.637333 421.888c-100.394667 0.256-103.765333 0.981333-112.64 1.706667-6.741333 0.512-12.586667 0.981333-17.578666 1.493333 0 2.090667 0.042667 4.394667 0.213333 6.826667 0.512 6.997333 1.365333 13.866667 2.304 21.461333 0.725333 5.973333 2.005333 15.957333 1.706667 24.405333-0.170667 3.242667-0.426667 5.418667-0.512 28.842667-0.128 23.808-0.085333 68.693333 1.152 112.597333 1.237333 43.818667 3.669333 85.546667 5.717333 114.474667 3.072 43.690667 5.290667 60.629333 6.058667 68.010667 1.024 9.216 2.858667 15.061333 4.693333 19.114666 1.877333 4.266667 4.266667 7.978667 8.192 13.482667a30.592 30.592 0 0 0 8.021333 5.077333c6.570667 3.285333 14.677333 6.144 24.874667 9.472 6.570667 2.176 12.8 3.84 19.541333 5.546667 6.229333 1.536 14.208 3.456 21.76 5.802667 3.968 1.28 16 4.693333 73.728 7.594666 57.216 2.816 155.733333 4.522667 208.213334 5.12 27.221333 0.298667 41.728 0.128 49.792-0.085333l7.978666-0.341333 5.930667-0.298667c-2.218667 0.085333-3.285333 0.341333-1.877333 0.085333 1.066667-0.170667 2.944-0.597333 5.930666-1.28 5.973333-1.408 14.506667-3.541333 27.221334-6.741333 19.328-4.864 34.986667-9.130667 46.378666-12.714667 3.84-1.194667 6.826667-2.389333 9.258667-3.242666 1.408-2.901333 3.2-6.869333 5.333333-12.416 3.328-8.661333 7.338667-28.202667 11.818667-56.832 1.152-7.424 0.938667-7.338667 1.92-28.842667 0.938667-20.352 2.688-56.021333 2.346667-88.021333-0.341333-31.573333-2.773333-58.88-4.693334-76.074667-1.92-17.024-3.84-29.866667-5.717333-41.898667-1.877333-12.032-3.84-24.021333-5.461333-38.101333l-0.042667-0.341333v-0.298667c-1.152-11.52-3.285333-31.488-4.394667-50.986667-0.597333-11.093333-0.853333-21.802667-0.896-32.64h-17.962666a141609.386667 141609.386667 0 0 0-388.266667 0z m521.386667-3.114667a42.325333 42.325333 0 0 1-11.605333 2.944l-4.394667 0.213334h-4.992l-8.789333-0.042667c0 9.514667 0.256 18.517333 0.768 27.818667 0.981333 16.896 2.730667 34.432 3.968 46.506666h0.042666c1.408 12.117333 3.072 22.314667 4.992 34.901334 1.962667 12.544 4.096 26.752 6.186667 45.525333 2.133333 19.072 4.864 49.365333 5.248 84.650667 0.042667 4.565333-0.085333 9.216-0.085333 13.866666 5.418667-1.493333 12.970667-3.797333 21.205333-6.784 3.925333-1.621333 7.765333-3.072 11.008-4.352 3.84-1.450667 6.869333-2.688 9.642667-3.84a37.632 37.632 0 0 0 8.618666-4.522666c16.725333-14.037333 34.816-34.858667 45.525334-60.970667 7.253333-17.706667 9.898667-26.453333 9.898666-34.688 0-21.76-3.157333-47.616-13.994666-73.258667-7.68-18.261333-13.354667-31.573333-18.688-41.557333a65.066667 65.066667 0 0 0-6.272-10.069333c-7.296-4.394667-26.88-14.122667-58.282667-16.341334zM426.282667 98.56a42.666667 42.666667 0 0 1 48.213333 36.266667c2.304 16.213333 4.693333 33.365333 6.741333 54.613333 2.005333 20.906667 3.498667 45.226667 4.992 69.248a42.666667 42.666667 0 1 1-85.162666 5.290667 2167.04 2167.04 0 0 0-4.778667-66.474667 1055.872 1055.872 0 0 0-6.314667-50.773333 42.666667 42.666667 0 0 1 36.266667-48.213334z m169.898666-34.218667a42.666667 42.666667 0 0 1 47.317334 37.461334c1.493333 12.928 3.029333 26.325333 4.437333 52.394666 1.408 25.472 2.645333 63.061333 3.882667 100.949334a42.666667 42.666667 0 0 1-85.290667 2.858666c-1.28-38.314667-2.474667-74.794667-3.797333-99.114666-1.28-23.765333-2.602667-35.285333-4.010667-47.274667a42.666667 42.666667 0 0 1 37.461333-47.274667z m-310.698666 18.56a42.666667 42.666667 0 0 1 46.677333 38.272c0.384 3.882667 0.725333 7.68 1.962667 27.221334 1.237333 19.626667 3.328 55.594667 5.546666 92.501333a42.666667 42.666667 0 1 1-85.162666 5.12l-5.546667-92.288c-1.237333-19.413333-1.493333-21.888-1.706667-24.149333a42.666667 42.666667 0 0 1 38.229334-46.677334z"  /></svg>