<?xml version="1.0" standalone="no"?><!DOCTYPE svg PUBLIC "-//W3C//DTD SVG 1.1//EN" "http://www.w3.org/Graphics/SVG/1.1/DTD/svg11.dtd"><svg class="icon" width="32px" height="32.00px" viewBox="0 0 1024 1024" version="1.1" xmlns="http://www.w3.org/2000/svg"><path fill="#000000" d="M619.648 151.68c13.653333-0.896 25.770667 1.877333 33.578667 3.925333 4.693333 1.28 9.386667 2.688 12.586666 3.626667 3.669333 1.109333 5.973333 1.792 7.850667 2.176 18.944 4.181333 33.194667 15.36 60.970667 38.826667 28.16 23.722667 79.744 70.058667 111.744 99.157333 32.682667 29.653333 44.586667 41.728 53.674666 51.029333 8.746667 8.96 13.312 13.781333 18.517334 18.773334a42.666667 42.666667 0 0 1-59.221334 61.44c-6.485333-6.229333-12.416-12.416-20.48-20.693334-7.765333-7.936-18.346667-18.816-49.834666-47.36A5289.258667 5289.258667 0 0 0 679.68 265.386667l-0.042667 4.138666c-0.426667 31.317333-1.152 94.08-3.328 146.944a1941.674667 1941.674667 0 0 1-8.405333 117.845334c-1.450667 14.293333-3.2 28.714667-4.992 43.904-1.792 15.232-3.712 31.530667-5.632 49.92-1.194667 11.818667-4.096 23.466667-6.997333 33.962666-3.754667 13.738667-5.504 18.901333-9.557334 33.962667-4.394667 16.298667-15.445333 39.253333-28.586666 67.498667-15.616 33.792-39.552 63.018667-58.794667 85.461333-18.816 21.973333-37.973333 30.933333-57.6 36.949333-8.96 2.730667-18.346667 4.010667-29.994667 5.034667a1450.24 1450.24 0 0 1-52.48 3.029333c-48.981333 2.261333-132.565333 4.821333-176.981333 6.4-45.653333 1.578667-46.933333 2.048-49.792 2.56a42.666667 42.666667 0 1 1-13.738667-84.266666c9.386667-1.536 16.682667-2.090667 60.544-3.626667 45.226667-1.578667 127.701333-4.096 176.042667-6.314667 24.405333-1.109333 39.253333-1.962667 49.066667-2.773333 9.685333-0.853333 12.074667-1.536 12.416-1.621333a44.8 44.8 0 0 0 10.154666-4.096 30.464 30.464 0 0 0 7.509334-6.741334c19.114667-22.314667 36.053333-43.776 46.250666-65.792 15.36-33.28 21.589333-46.762667 23.552-53.930666 2.901333-10.794667 7.978667-28.074667 9.685334-34.346667 2.645333-9.514667 3.968-15.573333 4.437333-20.138667 1.962667-19.072 3.925333-35.84 5.76-51.2a1862.101333 1862.101333 0 0 0 12.8-155.306666c2.176-51.328 2.944-112.853333 3.328-144.341334v-4.181333l-9.941333 9.557333c-28.928 28.16-81.578667 79.914667-108.16 106.069334l-23.424 23.04-3.029334 2.986666-0.341333 0.341334-3.072 2.858666a42.709333 42.709333 0 0 1-57.6-62.805333 32672.597333 32672.597333 0 0 1 136.149333-133.674667c20.48-19.882667 35.968-33.493333 48.64-42.538666 12.885333-9.216 25.642667-15.786667 40.234667-17.92l5.888-0.597334z"  /></svg>