<?xml version="1.0" standalone="no"?><!DOCTYPE svg PUBLIC "-//W3C//DTD SVG 1.1//EN" "http://www.w3.org/Graphics/SVG/1.1/DTD/svg11.dtd"><svg class="icon" width="32px" height="32.00px" viewBox="0 0 1024 1024" version="1.1" xmlns="http://www.w3.org/2000/svg"><path fill="#000000" d="M444.16 52.266667a1788.288 1788.288 0 0 1 142.890667 1.450666c38.314667 2.048 58.197333 4.736 71.808 7.338667 20.224 3.882667 61.354667 9.813333 97.408 23.978667 3.669333 1.450667 8.362667 2.730667 19.498666 6.144 9.941333 3.072 22.485333 7.125333 37.248 13.098666 26.026667 10.538667 45.866667 19.114667 60.245334 27.093334 12.586667 6.954667 25.301333 15.701333 34.389333 29.013333l3.669333 5.930667 7.381334 14.848c7.253333 15.872 13.994667 33.92 17.066666 44.288a42.624 42.624 0 0 1-10.453333 42.069333c0.128 6.4 0.426667 15.445333 0.725333 29.866667l2.474667 103.978666v0.085334c0.256 13.184 0.768 22.101333 1.408 33.066666 0.64 11.136 1.322667 24.064 1.962667 44.373334 0.981333 32 2.005333 86.186667 2.346666 114.773333 0.426667 29.056 0.085333 32.597333 0 39.253333-0.426667 31.317333-1.237333 48.853333-1.749333 63.530667-0.682667 18.432-1.152 41.514667-2.858667 59.562667-1.066667 11.264-1.834667 21.034667-2.602666 30.890666-0.554667 6.613333-1.365333 22.613333-3.498667 36.522667a135.68 135.68 0 0 1-5.802667 24.192 65.706667 65.706667 0 0 1-20.266666 29.994667c-5.888 4.693333-12.245333 8.106667-15.232 9.685333-3.968 2.133333-5.674667 3.072-7.296 4.138667-22.314667 14.848-70.101333 37.461333-102.698667 46.250666-1.92 0.512-3.370667 1.024-8.234667 2.56-4.266667 1.28-9.685333 2.901333-16.64 4.608-13.909333 3.413333-33.024 6.997333-62.336 10.496-24.448 2.944-58.197333 5.973333-79.829333 8.064-22.613333 2.133333-34.56 3.328-71.253333 4.138667-35.754667 0.810667-94.72 1.237333-139.733334-0.213333-44.586667-1.408-75.605333-4.053333-94.848-7.168-19.882667-3.157333-30.122667-4.650667-42.496-7.936-18.517333-4.949333-46.805333-12.757333-76.842666-21.376-11.648-3.328-22.058667-6.4-29.952-9.130667a113.408 113.408 0 0 1-12.842667-5.248 54.058667 54.058667 0 0 1-18.474667-14.421333c-10.112-12.672-14.72-28.885333-16.128-46.762667-2.986667-38.101333-4.650667-56.490667-6.314666-69.76-1.109333-8.704-2.432-19.072-2.56-110.592-0.128-92.288 0.981333-263.808 2.389333-354.986667 1.365333-89.216 2.986667-104.277333 5.333333-115.498666 1.706667-8.32 3.157333-12.586667 3.84-14.848 2.901333-9.941333 11.349333-45.525333 43.733334-65.92 10.538667-6.656 25.429333-12.544 36.906666-16.981334 13.653333-5.205333 25.685333-9.514667 37.418667-14.250666 15.189333-6.186667 48.64-18.261333 104.490667-28.288 31.317333-5.589333 68.053333-10.197333 116.266666-11.904z m404.821333 558.72a344.32 344.32 0 0 1-29.952 15.274666 971.093333 971.093333 0 0 1-64.341333 26.709334c-11.306667 4.266667-21.76 7.68-36.437333 10.026666-13.397333 2.090667-29.738667 3.157333-52.992 4.096-47.36 1.962667-130.56 3.754667-214.613334-2.858666-83.2-6.570667-165.546667-19.413333-217.429333-32.085334a2439.594667 2439.594667 0 0 1-54.058667-13.866666l-0.085333 56.533333c0.128 92.330667 1.578667 97.493333 1.877333 100.010667 1.92 14.933333 3.584 34.304 6.357334 69.077333 4.352 1.28 9.642667 3.072 16.213333 4.949333 29.696 8.533333 57.429333 16.213333 75.306667 20.949334 7.082667 1.877333 11.690667 2.56 34.005333 6.144 13.994667 2.218667 40.832 4.736 84.053333 6.101333 42.88 1.365333 100.224 0.981333 135.168 0.213333 33.92-0.725333 43.605333-1.792 65.066667-3.84 22.442667-2.133333 54.613333-5.034667 77.696-7.808 26.88-3.242667 42.538667-6.314667 52.266667-8.661333 4.821333-1.194667 8.490667-2.261333 11.690666-3.285333 2.688-0.810667 7.338667-2.304 11.306667-3.370667 23.210667-6.229333 62.506667-24.874667 77.568-34.901333 3.925333-2.602667 7.893333-4.864 10.837333-6.442667l0.682667-3.498667c1.536-9.941333 1.92-19.925333 2.773333-30.464 0.768-9.514667 1.578667-20.053333 2.730667-32 1.408-14.805333 1.749333-33.578667 2.56-54.656 0.512-14.848 1.237333-31.402667 1.621333-61.610666 0.085333-5.418667 0.213333-7.978667 0.128-20.736z m-11.946666-303.274667c-16 9.728-33.749333 20.010667-46.506667 27.392l-0.512 0.341333-0.512 0.298667c-13.354667 7.253333-26.453333 11.562667-67.328 18.56-37.034667 6.357333-107.008 17.92-185.770667 22.144a1757.866667 1757.866667 0 0 1-212.48-2.688c-50.56-3.925333-72.96-8.149333-103.04-23.722667a2305.109333 2305.109333 0 0 1-39.594666-21.034666 24371.328 24371.328 0 0 0-1.792 200.832c1.834667 0.512 3.968 1.237333 6.485333 1.92 12.544 3.584 33.749333 9.258667 67.498667 17.493333 46.293333 11.349333 123.946667 23.594667 203.904 29.866667 79.146667 6.272 158.421333 4.565333 204.373333 2.688 23.338667-0.938667 35.242667-1.834667 43.264-3.114667 6.784-1.066667 11.136-2.389333 19.626667-5.546667a884.352 884.352 0 0 0 58.538666-24.32c10.666667-4.906667 16.981333-8.234667 19.882667-9.813333 4.437333-4.522667 9.642667-10.453333 14.549333-16.938667a42.666667 42.666667 0 0 1 29.269334-28.629333l-0.298667-11.946667a1497.173333 1497.173333 0 0 0-1.877333-42.154666c-0.64-11.050667-1.237333-21.248-1.536-36.010667l-2.346667-98.048c-1.28 0.810667-2.56 1.706667-3.84 2.432zM191.317333 542.72l-0.256-0.384-0.341333-0.426667 0.597333 0.853334z m-5.546666-6.4l-1.578667-1.450667-0.298667-0.256c0.64 0.554667 1.28 1.109333 1.834667 1.706667z m261.333333-398.805333c-44.032 1.578667-76.757333 5.76-104.234667 10.666666-49.749333 8.96-77.525333 19.285333-87.466666 23.338667-12.501333 5.034667-27.904 10.666667-38.826667 14.848-13.098667 4.992-19.925333 8.106667-22.101333 9.472a14.293333 14.293333 0 0 0-2.346667 3.328c-1.706667 3.413333-2.901333 7.424-4.949333 14.378667l-0.768 2.474666-0.426667 1.450667a69.546667 69.546667 0 0 0-1.024 4.437333c-0.128 0.597333-0.426667 2.005333-1.024 10.538667 3.456 2.090667 8.192 4.949333 14.421333 8.533333 15.018667 8.533333 35.84 19.882667 61.738667 33.28 14.72 7.68 23.466667 10.752 70.4 14.421334 47.36 3.669333 127.36 6.528 201.301333 2.56 73.6-3.968 139.605333-14.848 175.957334-21.034667 19.584-3.370667 29.568-5.632 34.986666-7.168 3.626667-1.066667 4.48-1.578667 5.546667-2.133333 12.757333-7.424 29.44-17.066667 44.373333-26.112 7.509333-4.565333 14.378667-8.874667 19.84-12.501334a193.792 193.792 0 0 0 8.917334-6.229333l0.64-0.597333 0.597333-0.469334c3.328-2.773333 7.04-5.418667 10.837333-8.021333-0.512-0.298667-1.024-0.682667-1.621333-0.981333-9.258667-5.12-24.576-11.946667-50.944-22.613334a364.714667 364.714667 0 0 0-30.336-10.666666c-7.594667-2.304-17.92-5.290667-25.557333-8.277334-26.453333-10.410667-56.064-14.506667-82.304-19.541333-8.576-1.664-24.362667-4.053333-60.245334-5.973333a1703.168 1703.168 0 0 0-135.381333-1.408z"  /></svg>