<?xml version="1.0" standalone="no"?><!DOCTYPE svg PUBLIC "-//W3C//DTD SVG 1.1//EN" "http://www.w3.org/Graphics/SVG/1.1/DTD/svg11.dtd"><svg class="icon" width="32px" height="32.00px" viewBox="0 0 1024 1024" version="1.1" xmlns="http://www.w3.org/2000/svg"><path fill="#000000" d="M514.133333 48.170667c24.192 0 48.64 0 65.408 0.512h0.341334l1.450666-0.085334c1.834667 0 3.626667 0.170667 5.418667 0.426667 13.952 0.597333 23.722667 1.749333 37.290667 4.650667 14.805333 3.114667 33.706667 8.021333 62.848 18.090666 28.458667 9.813333 66.773333 24.533333 92.330666 36.096 26.026667 11.776 41.045333 20.650667 56.277334 33.792 23.594667 20.394667 44.842667 40.533333 62.122666 65.877334 9.728 14.250667 23.338667 35.498667 34.901334 58.24 11.776 23.125333 20.992 46.592 28.373333 72.490666 7.637333 26.538667 13.141333 54.656 16.085333 99.669334 2.816 43.861333 3.2 103.253333 0.554667 148.309333-2.688 45.909333-8.362667 76.544-14.506667 101.12-5.76 23.125333-11.690667 41.514667-17.834666 55.168-8.96 20.010667-22.485333 42.624-43.52 67.882667a266.026667 266.026667 0 0 1-38.357334 37.418666c-16.512 13.696-39.978667 31.786667-54.698666 42.368a177.066667 177.066667 0 0 1-21.76 13.909334c-7.68 4.010667-15.146667 6.826667-23.296 9.770666-16.512 5.973333-43.306667 14.933333-72.917334 22.656-29.866667 7.808-61.696 14.165333-100.309333 17.92-38.058667 3.712-81.152 4.821333-117.76 3.712a576.981333 576.981333 0 0 1-100.181333-10.965333c-32.042667-6.4-65.408-15.658667-90.965334-24.661333-26.282667-9.258667-44.842667-18.346667-63.104-30.464a335.786667 335.786667 0 0 1-49.834666-41.130667 498.090667 498.090667 0 0 1-46.762667-52.778667 495.701333 495.701333 0 0 1-34.56-52.693333 462.293333 462.293333 0 0 1-23.125333-44.714667 283.648 283.648 0 0 1-15.146667-43.264 266.666667 266.666667 0 0 1-8.234667-51.968 593.408 593.408 0 0 1-0.256-71.68c1.450667-24.32 4.010667-47.274667 9.173334-71.168 9.301333-43.093333 17.152-71.509333 19.285333-80.384 3.413333-14.336 6.613333-28.970667 20.181333-55.765333 9.856-19.456 28.714667-55.466667 48.981334-85.802667 20.608-30.848 41.685333-54.485333 57.728-70.314666a221.482667 221.482667 0 0 1 44.586666-34.986667c15.317333-9.386667 34.986667-20.309333 66.730667-32.682667a717.226667 717.226667 0 0 1 121.088-34.56c19.2-3.754667 39.168-6.698667 57.685333-9.173333a42.453333 42.453333 0 0 1 28.330667-10.837333z m46.336 88.021333c-25.088 2.56-72.917333 7.381333-116.053333 15.744-42.581333 8.234667-79.573333 19.925333-106.410667 30.336a306.218667 306.218667 0 0 0-52.992 25.898667c-11.178667 6.826667-17.706667 11.477333-29.354666 22.954666-12.544 12.373333-29.738667 31.658667-46.72 57.002667-17.237333 25.813333-34.133333 57.984-43.776 77.013333a150.058667 150.058667 0 0 0-8.96 20.778667c-1.706667 5.077333-2.602667 9.045333-4.309334 16.213333-3.072 12.714667-9.770667 36.266667-18.901333 78.506667a372.565333 372.565333 0 0 0-7.424 58.197333c-1.194667 20.992-0.938667 43.690667 0.256 60.885334 1.152 16.384 3.029333 26.453333 5.589333 36.181333 2.645333 10.154667 6.058667 19.84 10.709334 30.421333 4.693333 10.666667 10.752 22.314667 18.901333 36.48 8.149333 14.08 17.365333 28.8 28.672 43.733334 11.392 14.976 25.088 30.293333 38.613333 43.52 13.312 13.098667 25.173333 22.954667 37.205334 30.933333 11.349333 7.552 23.381333 13.738667 44.245333 21.077333 21.589333 7.594667 51.072 15.786667 79.36 21.461334 27.52 5.546667 53.077333 8.362667 86.016 9.344 33.450667 1.024 72.874667 0 106.965333-3.328a539.818667 539.818667 0 0 0 86.997334-15.573334c26.453333-6.912 50.688-15.018667 65.493333-20.352 7.509333-2.730667 10.453333-3.968 12.714667-5.12 2.176-1.152 4.949333-2.901333 11.52-7.594666 13.098667-9.429333 34.986667-26.282667 50.048-38.741334 14.250667-11.818667 20.48-18.218667 27.178666-26.282666 16.512-19.882667 25.770667-35.925333 31.274667-48.213334 3.242667-7.210667 7.68-20.138667 12.928-41.002666 4.864-19.413333 9.685333-44.8 12.074667-85.418667 2.432-41.386667 2.090667-97.28-0.554667-137.813333-2.56-39.424-7.125333-61.44-12.885333-81.664-5.973333-20.864-13.226667-39.253333-22.4-57.258667-9.344-18.346667-20.736-36.266667-29.354667-48.938667-10.837333-15.914667-25.216-30.165333-47.36-49.28-6.784-5.802667-13.738667-10.709333-35.712-20.650666a1141.248 1141.248 0 0 0-85.034667-33.237334 431.232 431.232 0 0 0-52.650666-15.274666 126.208 126.208 0 0 0-25.088-2.986667l-20.821334 2.048z m20.309334 213.76a42.538667 42.538667 0 0 1 36.693333 25.770667c2.304 0.981333 4.693333 1.962667 7.082667 3.114666l14.933333 8.021334 7.082667 4.181333 5.077333 6.528c9.813333 12.8 28.202667 41.941333 28.629333 78.933333 0.256 21.418667 1.962667 54.101333-9.301333 85.973334-5.546667 15.488-15.616 41.258667-25.557333 57.6-12.501333 20.437333-27.989333 38.314667-53.888 46.72-14.805333 4.821333-37.12 10.88-67.413334 9.813333a634.026667 634.026667 0 0 1-41.258666-2.432 150.613333 150.613333 0 0 1-41.088-9.258667c-17.066667-6.997333-38.058667-16.128-52.565334-28.330666-6.826667-5.76-24.746667-19.413333-37.717333-42.538667-8.021333-14.378667-22.741333-40.064-23.04-69.973333-0.256-18.048 0.512-37.034667 6.144-53.290667 4.736-13.653333 12.202667-33.621333 26.794667-54.314667 6.912-9.898667 13.482667-18.816 19.285333-25.984 4.394667-5.376 12.672-15.36 22.954667-21.418666l5.973333-3.114667c14.805333-6.954667 36.778667-11.818667 70.144-13.781333a2025.6 2025.6 0 0 1 96.170667-2.432c1.237333 0 3.072 0.042667 4.864 0.170666z m-46.677334 85.717333c-16.426667 0.341333-35.114667 0.853333-49.365333 1.706667a203.52 203.52 0 0 0-32.64 4.010667c-1.450667 0.298667-2.602667 0.682667-3.498667 0.938666l-1.749333 2.048a408.021333 408.021333 0 0 0-15.701333 21.205334 128 128 0 0 0-15.957334 33.194666 33.877333 33.877333 0 0 0-0.938666 6.101334 179.626667 179.626667 0 0 0-0.512 18.261333c0.085333 4.992 2.816 12.416 12.16 29.141333 4.096 7.253333 9.088 11.306667 18.261333 19.072 2.688 2.218667 11.093333 6.912 29.866667 14.549334 2.389333 1.024 7.68 2.346667 17.664 3.413333 9.813333 0.981333 21.248 1.450667 35.498666 1.962667 16.554667 0.597333 28.288-2.517333 38.016-5.632l0.042667-0.042667 0.170667-0.128c0.938667-0.853333 3.2-3.413333 7.125333-9.813333 4.949333-8.106667 12.586667-26.496 17.92-41.642667 5.12-14.506667 4.821333-29.866667 4.48-56.533333a41.088 41.088 0 0 0-3.754667-15.530667c-0.896-2.133333-2.005333-4.053333-2.986666-5.845333a165.077333 165.077333 0 0 0-11.093334-5.12 106.666667 106.666667 0 0 0-9.642666-3.541334 141.013333 141.013333 0 0 0-8.789334-0.981333 42.410667 42.410667 0 0 1-24.576-10.794667z"  /></svg>