<?xml version="1.0" standalone="no"?><!DOCTYPE svg PUBLIC "-//W3C//DTD SVG 1.1//EN" "http://www.w3.org/Graphics/SVG/1.1/DTD/svg11.dtd"><svg class="icon" width="32px" height="32.00px" viewBox="0 0 1024 1024" version="1.1" xmlns="http://www.w3.org/2000/svg"><path fill="#000000" d="M56.618667 28.842667a42.666667 42.666667 0 0 1 57.856 17.28c2.133333 3.968 5.333333 10.368 30.848 38.570666 21.504 23.722667 63.488 65.536 166.613333 167.765334 102.570667 101.717333 263.466667 259.925333 376.533333 365.354666a3799.210667 3799.210667 0 0 0 178.048 157.269334l33.834667 27.861333 0.554667 0.426667 0.554666 0.512c68.693333 61.056 78.890667 69.973333 84.608 75.392h0.042667l3.456 3.072 6.784 6.101333a42.666667 42.666667 0 0 1-57.728 62.848l-5.504-4.992-4.608-4.053333-0.426667-0.341334-0.298666-0.341333c-4.181333-4.010667-9.813333-8.789333-82.56-73.472-12.629333-10.410667-27.52-22.698667-45.866667-37.973333-4.437333 2.56-8.746667 4.565333-12.586667 6.4l-0.213333 0.085333c-13.44 6.314667-25.301333 11.776-34.602667 15.829333a232.234667 232.234667 0 0 1-22.186666 8.704l0.085333 0.042667a286.72 286.72 0 0 0-1.962667 0.810667l-6.784 2.858666c-5.845333 2.474667-13.653333 5.546667-23.338666 8.448-19.797333 5.888-45.525333 10.325333-80.085334 9.472a3907.797333 3907.797333 0 0 1-150.144-7.509333c-42.538667-3.072-58.368-5.802667-80.384-11.392a1136.981333 1136.981333 0 0 1-67.157333-19.626667c-20.693333-6.741333-44.032-14.208-61.568-22.912a291.242667 291.242667 0 0 1-75.52-51.456c-17.28-15.957333-46.805333-43.178667-64-62.293333-20.992-23.253333-34.816-38.954667-45.952-59.861333-13.226667-24.789333-27.562667-58.88-37.162667-90.325334-4.565333-14.890667-9.984-35.242667-4.522666-60.757333 2.304-10.666667 5.76-27.264 14.848-47.488 9.088-20.224 23.04-42.666667 45.44-68.053333 16-18.176 42.581333-48.64 73.173333-71.765334 19.370667-14.677333 35.328-26.325333 47.829333-35.328C137.984 199.978667 102.272 164.266667 82.090667 141.952c-27.349333-30.208-35.797333-42.453333-42.709334-55.253333A42.666667 42.666667 0 0 1 56.618667 28.842667z m216.234666 307.072c-12.672 8.874667-31.573333 22.485333-56.618666 41.429333-22.613333 17.109333-43.648 40.874667-60.672 60.202667-17.408 19.754667-26.453333 35.072-31.573334 46.506666a138.24 138.24 0 0 0-9.258666 30.464 17.322667 17.322667 0 0 0-0.213334 6.144c0.298667 2.56 1.066667 5.888 2.901334 11.818667 8.021333 26.24 20.224 55.210667 30.848 75.093333 5.504 10.325333 12.245333 18.688 33.962666 42.837334 14.037333 15.530667 40.234667 39.850667 58.453334 56.661333 20.949333 19.242667 34.816 27.434667 55.722666 37.845333 10.666667 5.248 26.88 10.666667 49.962667 18.176a1053.44 1053.44 0 0 0 61.866667 18.090667c15.573333 3.968 26.112 6.144 65.536 9.002667 40.362667 2.944 108.074667 6.314667 146.048 7.253333 25.770667 0.64 42.581333-2.645333 53.589333-5.930667a141.226667 141.226667 0 0 0 14.762667-5.376c2.986667-1.28 10.410667-4.565333 16.341333-6.4l0.469333-0.170666 0.512-0.128c-1.066667 0.298667-0.725333 0.256 2.218667-0.896 2.432-1.024 5.802667-2.432 9.984-4.266667l10.709333-4.906667c-27.605333-24.32-59.946667-53.504-98.133333-89.173333-7.68-7.125333-15.616-14.592-23.68-22.186667-1.706667 2.773333-3.328 5.674667-5.12 8.362667l-1.450667 2.133333-1.706666 1.877334a115.157333 115.157333 0 0 1-30.293334 25.429333 216.149333 216.149333 0 0 1-35.84 15.445333l-5.205333 1.834667-5.546667 0.469333c-15.36 1.28-34.56 2.346667-53.504 0.682667-18.090667-1.578667-41.258667-6.016-60.672-19.754667a250.538667 250.538667 0 0 1-40.362666-34.858666c-12.288-13.525333-29.098667-36.309333-29.610667-65.194667-0.426667-24.064-1.834667-64.341333 7.552-97.365333 6.698667-23.552 19.925333-42.24 33.749333-59.136-37.376-36.693333-73.088-71.765333-104.533333-102.912l-1.194667 0.853333zM399.914667 184.746667c22.186667-5.76 60.16-6.997333 114.944-3.669334 36.565333 2.218667 87.509333 10.581333 112 13.909334 34.176 4.608 67.114667 12.586667 111.061333 25.002666 32.341333 9.130667 67.797333 30.976 102.101333 52.565334 28.885333 18.133333 43.605333 32.426667 53.333334 40.832 12.8 11.178667 23.466667 25.685333 33.493333 40.576 9.856 14.72 22.698667 35.285333 37.418667 57.856 38.314667 58.794667 41.301333 98.389333 36.437333 125.44l-1.408 7.808-4.138667 6.826666c-12.288 20.181333-25.344 42.410667-54.954666 93.013334l-0.170667 0.341333c-7.68 12.885333-11.52 18.176-19.498667 27.861333a42.666667 42.666667 0 0 1-65.92-54.186666c5.418667-6.613333 6.826667-8.405333 12.117334-17.365334 25.386667-43.349333 38.912-66.389333 50.346666-85.333333-0.341333-8.533333-4.010667-26.624-24.32-57.813333-16.512-25.301333-26.965333-42.325333-36.693333-56.789334-9.6-14.250667-14.933333-20.565333-18.645333-23.765333-11.264-9.813333-20.650667-19.114667-42.794667-33.024-37.162667-23.381333-61.696-37.546667-79.914667-42.709333-42.624-12.074667-71.04-18.730667-99.285333-22.570667-29.056-3.925333-73.301333-11.306667-105.685333-13.269333-54.784-3.328-80.64-0.938667-88.490667 1.066666a42.666667 42.666667 0 1 1-21.333333-82.602666z m39.978666 313.173333c-8.106667 10.538667-11.392 16.853333-12.970666 22.4-5.12 17.962667-4.821333 43.264-4.352 71.466667l0.554666 1.152c1.152 2.176 3.328 5.333333 6.954667 9.344 7.338667 8.106667 17.365333 16.042667 26.453333 22.442666 1.152 0.853333 6.4 3.328 18.858667 4.437334 10.112 0.853333 21.632 0.426667 33.664-0.426667a113.493333 113.493333 0 0 0 16.384-6.869333 27.861333 27.861333 0 0 0 6.826667-5.802667c1.834667-2.986667 4.096-6.869333 7.125333-12.373333 1.152-2.133333 2.474667-4.053333 3.882667-5.888-33.578667-32.170667-68.693333-66.090667-103.381334-99.925334z"  /></svg>