<?xml version="1.0" standalone="no"?><!DOCTYPE svg PUBLIC "-//W3C//DTD SVG 1.1//EN" "http://www.w3.org/Graphics/SVG/1.1/DTD/svg11.dtd"><svg class="icon" width="32px" height="32.00px" viewBox="0 0 1024 1024" version="1.1" xmlns="http://www.w3.org/2000/svg"><path fill="#000000" d="M464.981333 147.370667c24.32-2.773333 52.053333-1.664 84.565334 2.432 33.365333 4.181333 72.448 12.8 103.765333 21.76 32.341333 9.301333 56.746667 19.2 82.773333 34.005333 25.685333 14.592 51.541333 33.237333 80.384 58.752 28.501333 25.258667 59.733333 57.173333 81.877334 82.773333 22.613333 26.197333 35.157333 45.226667 43.648 59.818667 14.72 25.173333 22.442667 54.4 30.037333 84.48 8.490667 33.493333 11.434667 55.68 12.373333 63.744 1.706667 14.464-2.304 26.709333-6.442666 35.242667-4.053333 8.277333-9.386667 15.573333-13.909334 21.248-4.608 5.802667-10.026667 12.032-15.018666 17.792a633.6 633.6 0 0 0-16.128 19.2c-12.842667 16.128-34.986667 41.258667-46.848 55.168-24.746667 29.098667-35.84 40.106667-54.528 54.613333-12.629333 9.728-28.373333 19.328-48.512 31.744-13.482667 8.277333-35.968 22.613333-67.157334 36.565333-30.549333 13.653333-68.224 26.453333-93.44 33.877334-27.477333 8.106667-43.093333 10.666667-69.333333 10.581333a730.154667 730.154667 0 0 1-82.218667-5.546667 292.821333 292.821333 0 0 1-77.696-20.48 859.306667 859.306667 0 0 1-98.133333-46.976 792.874667 792.874667 0 0 1-82.261333-53.12c-28.970667-21.589333-38.741333-34.645333-55.893334-54.698666-16.426667-19.2-46.336-53.205333-66.133333-76.16-18.944-22.016-25.685333-30.293333-30.122667-36.181334a93.568 93.568 0 0 1-9.770666-15.36 42.709333 42.709333 0 0 1 4.693333-46.208c6.101333-17.152 16.426667-40.533333 32-65.962666 16.384-26.624 44.544-64.938667 75.946667-102.058667a1352.405333 1352.405333 0 0 1 86.869333-91.776c30.933333-30.122667 45.482667-40.832 69.930667-59.349333a320.213333 320.213333 0 0 1 56.832-33.792c16.426667-7.424 37.205333-10.282667 87.893333-16.128z m9.728 84.778666c-26.88 3.114667-42.410667 5.12-52.053333 6.826667-4.693333 0.810667-7.338667 1.365333-8.832 1.792-1.194667 0.298667-1.536 0.512-1.578667 0.512-12.8 5.802667-29.312 15.573333-40.405333 24.021333-23.466667 17.792-34.773333 26.026667-61.952 52.48a1269.76 1269.76 0 0 0-81.237333 85.76c-29.525333 34.944-54.869333 69.674667-68.309334 91.562667a282.922667 282.922667 0 0 0-21.888 43.434667c3.882667 4.608 9.258667 11.008 16.938667 19.925333 18.090667 20.992 50.56 57.941333 66.304 76.373333 17.664 20.608 21.76 26.624 42.069333 41.728 16.341333 12.202667 42.837333 30.293333 72.96 47.189334 30.293333 16.981333 63.488 32.426667 87.893334 42.026666 23.04 9.130667 36.48 12.501333 57.216 15.189334 22.698667 2.944 51.968 4.778667 71.594666 4.864 16.64 0.042667 24.021333-0.938667 44.8-7.082667 23.082667-6.826667 56.874667-18.346667 82.773334-29.909333 25.344-11.349333 43.178667-22.741333 57.344-31.402667 21.76-13.44 32.853333-20.266667 41.045333-26.624 12.032-9.301333 18.773333-15.36 41.642667-42.24 13.909333-16.384 33.322667-38.4 45.226666-53.248 6.613333-8.32 12.928-15.573333 18.218667-21.717333 5.546667-6.4 9.557333-10.965333 12.714667-14.976 0.512-0.64 0.853333-1.28 1.237333-1.749334a458.496 458.496 0 0 0-9.088-44.501333c-8.106667-31.829333-13.354667-49.28-21.034667-62.464a304.853333 304.853333 0 0 0-34.56-47.061333 857.301333 857.301333 0 0 0-73.813333-74.666667c-25.216-22.272-46.293333-37.205333-65.962667-48.384-19.285333-10.965333-37.333333-18.474667-64.213333-26.24a646.528 646.528 0 0 0-90.88-19.114667c-29.013333-3.626667-49.365333-4.010667-64.170667-2.304z m61.098667 105.728l3.712 0.682667c13.994667 2.56 35.498667 6.016 56.32 17.322667 13.013333 7.04 27.605333 16.426667 40.661333 27.221333 12.245333 10.112 26.88 24.576 35.157334 42.624 6.442667 13.994667 21.034667 48.725333 17.92 99.072-1.109333 17.749333-4.565333 34.986667-14.08 55.765333-9.088 19.968-21.376 45.653333-37.12 63.232-8.405333 9.429333-22.272 24.746667-42.112 35.498667a146.56 146.56 0 0 1-43.306667 15.957333c-18.346667 3.626667-40.021333 4.565333-68.010667 2.602667a353.450667 353.450667 0 0 1-31.189333-3.114667 88.149333 88.149333 0 0 1-31.616-10.666666 198.826667 198.826667 0 0 1-49.962667-42.069334c-10.410667-12.586667-26.624-32.426667-33.706666-64.981333-6.144-28.16-11.733333-58.197333-9.472-80.981333 1.664-16.64 4.266667-50.048 23.125333-78.293334 11.093333-16.554667 25.088-35.882667 44.629333-47.36 17.877333-10.496 45.226667-18.773333 76.330667-25.770666 2.773333-1.024 5.717333-1.834667 8.746667-2.304l4.992-0.682667 3.968-0.853333c2.517333-0.512 4.992-0.725333 7.466666-0.768l0.170667-0.042667 0.426667-0.042667c9.642667-0.896 21.973333-2.133333 33.152-2.090666h3.797333z m-28.16 86.912c-2.133333 0.256-3.2 0.426667-5.589333 0.853334-34.944 7.210667-54.912 14.08-62.165334 18.346666a29.098667 29.098667 0 0 0-4.437333 4.394667 166.826667 166.826667 0 0 0-12.416 16.768 44.8 44.8 0 0 0-5.76 14.933333 202.197333 202.197333 0 0 0-3.370667 24.405334c-0.682667 7.168 1.28 23.978667 7.936 54.4 2.517333 11.562667 7.424 18.218667 16.085334 28.672 7.424 8.96 17.493333 16.725333 26.624 22.357333a39.765333 39.765333 0 0 0 2.901333 0.597333c4.949333 0.768 12.032 1.450667 23.381333 2.218667 23.466667 1.621333 37.12 0.469333 45.568-1.194667a61.866667 61.866667 0 0 0 19.242667-7.253333c5.546667-2.986667 10.88-8.064 19.157333-17.322667 5.76-6.442667 13.226667-20.224 23.04-41.770666 4.778667-10.453333 6.058667-17.28 6.570667-25.642667 1.877333-30.72-6.826667-50.645333-10.282667-58.197333a22.272 22.272 0 0 0-2.901333-3.84 80.170667 80.170667 0 0 0-9.088-8.704 174.464 174.464 0 0 0-27.008-17.92c-6.186667-3.370667-13.013333-5.034667-26.709333-7.594667a337.408 337.408 0 0 0-20.778667 1.493333z"  /></svg>