<?xml version="1.0" standalone="no"?><!DOCTYPE svg PUBLIC "-//W3C//DTD SVG 1.1//EN" "http://www.w3.org/Graphics/SVG/1.1/DTD/svg11.dtd"><svg class="icon" width="32px" height="32.00px" viewBox="0 0 1024 1024" version="1.1" xmlns="http://www.w3.org/2000/svg"><path fill="#000000" d="M481.706667 46.250667c20.48 0.298667 37.333333 0.768 49.493333 1.194666l14.933333 0.725334c2.005333 0.128 7.850667 0.426667 12.330667 1.322666a42.581333 42.581333 0 0 1 33.493333 48.042667c13.994667 13.226667 37.717333 35.242667 51.797334 48.341333 7.466667 6.954667 11.093333 10.282667 13.994666 12.8 2.218667 1.877333 3.882667 3.157333 7.082667 5.205334 7.978667 5.12 24.448 14.549333 50.517333 34.474666 24.576 18.858667 59.946667 48.768 81.322667 65.962667 22.613333 18.261333 32.981333 25.258667 44.672 34.176 4.693333 3.626667 9.941333 7.594667 14.378667 11.221333 4.053333 3.328 9.813333 8.277333 14.549333 14.08 18.176 22.314667 20.437333 49.792 22.613333 86.442667 1.792 30.72 4.864 88.277333 5.632 149.717333a3386.069333 3386.069333 0 0 1-1.834666 158.378667c-1.450667 36.266667-1.749333 45.354667-2.517334 52.224-0.256 2.389333-0.426667 4.437333-0.853333 9.856-0.426667 4.992-0.981333 11.434667-2.005333 20.693333-1.578667 13.909333-4.48 41.514667-7.04 57.728-2.56 15.829333-5.546667 32.597333-10.154667 46.677334-3.968 12.032-12.757333 34.090667-34.944 45.397333-5.802667 2.986667-30.506667 20.48-66.858667 24.106667-3.029333 0.256-6.485333 1.024-18.261333 2.773333-9.941333 1.450667-22.741333 3.072-37.930667 3.968-19.285333 1.109333-32.469333 2.261333-70.954666 2.986667-33.28 0.554667-94.122667 1.194667-135.381334 0.298666-41.386667-0.853333-63.658667-3.285333-90.368-4.864-13.653333-0.853333-29.184-1.365333-44.8-1.962666a1661.653333 1661.653333 0 0 1-43.562666-2.048c-35.84-2.389333-52.394667-3.498667-60.202667-4.096-6.101333-0.426667-26.88-0.768-47.146667-6.229334-0.597333-0.170667-12.672-2.986667-19.626666-5.248-6.314667-2.090667-25.002667-8.32-36.565334-25.429333a163.498667 163.498667 0 0 1-17.493333-34.133333c-8.661333-22.954667-12.586667-35.456-13.994667-54.357334-0.554667-7.850667-2.389333-19.968-4.778666-73.770666a3507.370667 3507.370667 0 0 1-2.901334-204.714667c1.152-102.144 5.76-237.653333 8.021334-306.218667 1.152-33.92 1.664-52.266667 2.048-62.464 0.426667-10.410667 0.768-16 2.432-23.466666 7.594667-34.261333 12.970667-51.456 18.005333-62.506667-0.341333 0.725333-0.426667 0.896 0.682667-2.261333 0.810667-2.261333 2.133333-6.101333 3.84-10.154667 2.858667-6.954667 9.642667-21.674667 24.32-32l3.882666-2.645333c4.352-2.730667 10.154667-5.76 18.048-8.064 8.96-2.602667 19.157333-3.925333 31.018667-4.693334 19.285333-1.152 54.186667-2.773333 72.618667-3.498666 8.32-0.341333 12.202667-0.938667 21.973333-1.877334 9.642667-0.938667 21.461333-1.792 41.386667-1.962666 27.733333-0.256 78.378667-0.512 105.045333-0.128zM377.344 131.712c-17.536 0.170667-26.88 0.853333-33.877333 1.536-6.869333 0.682667-15.36 1.792-26.922667 2.261333a4275.2 4275.2 0 0 0-70.826667 3.413334c-2.176 0.128-4.053333 0.341333-5.632 0.512l-1.322666 3.712c-0.554667 1.450667-1.28 3.584-2.346667 5.845333-1.066667 2.304-4.864 11.946667-12.288 45.568-0.085333 0.341333-0.085333 0.042667-0.085333 0.256-0.085333 0.981333-0.213333 3.029333-0.426667 8.021333-0.384 9.941333-0.853333 27.221333-2.005333 61.952-2.261333 68.864-6.826667 203.349333-7.978667 304.384a3424.298667 3424.298667 0 0 0 2.816 199.936c2.346667 52.181333 3.925333 61.013333 4.693333 71.253334 0.298667 4.096 0.682667 6.570667 1.578667 9.813333 1.066667 4.138667 2.986667 9.898667 7.125333 20.736 1.365333 3.669333 2.773333 6.826667 4.138667 9.514667l2.858667 0.768 4.138666 1.024c1.450667 0.341333 3.2 0.768 4.949334 1.28 10.026667 2.688 18.048 2.517333 31.232 3.498666 7.381333 0.554667 23.594667 1.664 59.52 4.053334 11.221333 0.725333 25.514667 1.28 41.130666 1.877333 15.36 0.554667 31.914667 1.194667 46.634667 2.090667 30.08 1.749333 47.786667 3.84 87.125333 4.693333 39.509333 0.853333 99.029333 0.298667 132.053334-0.298667 36.437333-0.64 47.786667-1.706667 67.498666-2.816 11.904-0.725333 22.058667-2.005333 30.421334-3.2 4.266667-0.64 7.893333-1.28 11.52-1.877333 3.2-0.469333 7.253333-1.066667 10.837333-1.450667 12.970667-1.28 17.152-4.565333 29.013333-11.136l0.085334-0.085333c2.218667-6.826667 4.394667-17.408 6.912-33.365333 2.176-13.738667 4.778667-38.314667 6.528-53.973334 0.938667-8.277333 1.450667-13.824 1.792-18.090666 0.341333-3.84 0.64-8.277333 1.109333-12.373334 0.298667-2.816 0.426667-6.784 2.048-46.122666 1.28-32.64 2.474667-94.208 1.706667-153.941334a3059.285333 3059.285333 0 0 0-4.608-128c-5.205333 0.853333-9.813333 1.152-12.288 1.28a11538.261333 11538.261333 0 0 1-204.8 5.504c-9.173333 0.085333-19.157333 0.213333-27.733334-0.682666-8.149333-0.853333-22.4-3.157333-34.986666-13.44a59.178667 59.178667 0 0 1-20.096-35.2 176.938667 176.938667 0 0 1-2.474667-26.410667c-1.365333-34.688-2.261333-100.266667-2.858667-138.325333-0.597333-39.68-0.682667-49.322667-1.194666-56.064a791.68 791.68 0 0 1-1.450667-37.589334 1614.933333 1614.933333 0 0 0-20.266667-0.469333c-25.514667-0.384-75.178667-0.128-102.997333 0.128z m211.2 92.714667c0.597333 36.522667 1.450667 95.36 2.645333 129.962666 38.826667-0.512 113.749333-2.645333 154.453334-3.84 9.045333-0.256 16.213333-0.597333 21.930666-0.768-6.784-5.12-14.933333-11.264-24.448-18.944-24.661333-19.882667-55.808-46.421333-79.701333-64.725333-22.442667-17.152-34.432-23.808-44.8-30.506667-11.989333-7.68-18.346667-13.696-30.250667-24.746666l0.213334 13.568z"  /></svg>