<?xml version="1.0" standalone="no"?><!DOCTYPE svg PUBLIC "-//W3C//DTD SVG 1.1//EN" "http://www.w3.org/Graphics/SVG/1.1/DTD/svg11.dtd"><svg class="icon" width="32px" height="32.00px" viewBox="0 0 1024 1024" version="1.1" xmlns="http://www.w3.org/2000/svg"><path fill="#000000" d="M187.178667 80.64c24.32-0.213333 36.864 2.218667 45.013333 3.712l11.946667 1.92h0.042666l9.813334 0.426667c21.845333 0.938667 51.882667 2.261333 86.314666 4.181333 34.389333 1.962667 58.282667 15.018667 74.752 33.066667 7.381333 8.021333 12.373333 16.128 15.402667 21.333333 4.224 6.997333 3.84 6.4 3.328 5.717333 19.114667 22.272 27.818667 39.082667 35.072 53.504 1.109333 2.218667 3.242667 5.930667 6.4 10.922667l1.621333 0.384c9.173333 1.706667 23.04 3.072 41.258667 3.669333 17.194667 0.554667 33.194667-0.298667 51.498667-1.322666 18.005333-1.066667 38.272-2.304 61.312-2.133334 39.808 0.384 115.626667 2.858667 156.8 3.968 57.6 1.536 74.581333 3.541333 99.626666 11.093334 1.408 0.426667 12.373333 3.072 22.570667 9.514666l4.266667 2.986667 4.821333 4.053333c10.581333 9.642667 16.981333 20.608 21.418667 29.994667 4.224 9.045333 8.533333 21.546667 11.008 27.989333 10.794667 27.861333 12.288 63.573333 13.482666 86.4 0.512 9.984 1.749333 17.92 3.114667 76.074667 1.365333 57.6 3.029333 165.461333 3.754667 222.464 0.938667 75.221333-1.834667 107.648-4.053334 128.682667-1.578667 15.146667-4.266667 29.184-9.813333 46.805333-2.986667 9.813333-11.093333 41.685333-37.973333 61.184-14.762667 10.666667-32.170667 10.666667-40.277334 10.922667-11.52 0.384-30.293333 0.213333-60.074666 0.128-61.397333-0.213333-175.146667-1.877333-243.584-2.901334-68.608-0.981333-89.258667-1.28-147.754667-3.2-58.197333-1.962667-153.557333-5.546667-206.08-7.552-68.736-2.56-82.090667-3.84-92.245333-5.717333-28.16-5.162667-41.386667-29.44-45.781334-37.674667-5.333333-10.112-11.52-25.642667-14.805333-33.066666-7.637333-17.066667-10.666667-36.693333-14.165333-78.805334-3.157333-37.12-3.285333-102.314667-3.84-134.4-0.725333-45.781333 0.938667-63.530667 1.664-84.565333 2.005333-59.306667 3.626667-76.544 4.821333-121.6 1.792-66.304-0.853333-79.573333-2.005333-92.288-1.536-16.512-2.346667-51.242667-3.072-122.496a168.405333 168.405333 0 0 1 9.472-60.885333l2.133333-5.76c5.589333-12.928 14.421333-22.570667 22.314667-29.354667 9.173333-7.893333 19.626667-14.122667 29.098666-19.072 22.186667-11.52 50.346667-15.701333 65.706667-17.92l2.858667-0.341333 2.816-0.042667z m3.413333 85.333333c-16.042667 2.432-28.629333 5.12-35.413333 8.661334a70.741333 70.741333 0 0 0-12.8 8.021333 87.466667 87.466667 0 0 0-2.986667 11.349333 100.138667 100.138667 0 0 0-1.322667 19.114667c0.725333 72.874667 1.621333 103.381333 2.730667 115.498667 1.365333 14.762667 4.266667 31.616 2.346667 102.4-1.152 43.221333-2.986667 68.437333-4.821334 122.282666-0.853333 23.637333-2.346667 37.376-1.621333 80.213334 0.554667 35.242667 0.725333 95.445333 3.541333 128.768 3.669333 43.861333 6.229333 49.237333 7.082667 51.157333 2.56 5.802667 5.248 12.245333 7.168 16.682667 0.981333 2.346667 1.92 4.266667 2.688 5.973333 10.197333 0.725333 29.653333 1.834667 68.266667 3.285333 52.650667 2.005333 147.712 5.546667 205.653333 7.509334 57.642667 1.92 77.653333 2.133333 146.218667 3.157333 68.693333 1.024 181.802667 2.730667 242.517333 2.901333 26.538667 0.042667 42.410667 0.042667 52.48-0.128 1.194667-2.986667 2.474667-6.613333 4.224-12.16 3.754667-12.117333 5.333333-20.693333 6.357333-30.378666 1.834667-17.237333 4.48-46.250667 3.584-118.613334a25777.749333 25777.749333 0 0 0-3.754666-221.568c-1.322667-56.533333-2.389333-62.165333-2.986667-73.642666-1.450667-27.178667-2.986667-47.616-7.850667-60.074667-1.877333-4.864-3.882667-10.410667-5.162666-13.781333a123.818667 123.818667 0 0 0-3.584-8.789334l-0.64-1.109333c-13.269333-4.010667-20.650667-5.930667-77.013334-7.424-42.325333-1.152-116.48-3.541333-155.306666-3.882667-19.712-0.170667-37.12 0.853333-55.637334 1.962667-18.218667 1.024-37.717333 2.133333-59.178666 1.408a368.042667 368.042667 0 0 1-54.314667-5.12 122.88 122.88 0 0 1-23.424-6.613333 59.989333 59.989333 0 0 1-26.965333-20.650667A253.610667 253.610667 0 0 1 392.533333 242.773333a152.746667 152.746667 0 0 0-23.509333-36.138666 84.778667 84.778667 0 0 1-7.594667-10.496c-1.493333-2.432-3.413333-5.717333-4.266666-7.210667a45.44 45.44 0 0 0-5.12-7.466667 11.264 11.264 0 0 0-3.84-2.773333 34.858667 34.858667 0 0 0-12.714667-2.56c-33.834667-1.962667-63.36-3.2-85.162667-4.138667-10.837333-0.469333-20.053333-0.853333-26.752-1.237333a365.653333 365.653333 0 0 1-8.96-0.512c-0.768-0.085333-6.272-0.426667-11.306666-1.749333a42.794667 42.794667 0 0 1-6.485334-2.389334 217.429333 217.429333 0 0 0-6.314666-0.085333z"  /></svg>