<?xml version="1.0" standalone="no"?><!DOCTYPE svg PUBLIC "-//W3C//DTD SVG 1.1//EN" "http://www.w3.org/Graphics/SVG/1.1/DTD/svg11.dtd"><svg class="icon" width="32px" height="32.00px" viewBox="0 0 1024 1024" version="1.1" xmlns="http://www.w3.org/2000/svg"><path fill="#000000" d="M161.152 264.234667c3.584 0.128 4.992 0.384 85.802667 0.725333 80.768 0.341333 240.896 0.810667 324.010666 1.408 41.386667 0.298667 63.146667 0.64 74.709334 1.109333 5.290667 0.170667 10.368 0.469333 14.506666 1.109334a44.202667 44.202667 0 0 1 26.752 13.653333c9.130667 9.6 12.16 21.077333 13.525334 25.813333 3.669333 12.373333 6.485333 29.013333 8.32 102.741334 1.92 74.88 2.688 213.504 3.84 301.866666 1.109333 88.661333 2.56 124.288 3.114666 144.128 0.213333 9.557333 0.298667 16.64-0.042666 21.930667a60.373333 60.373333 0 0 1-1.706667 11.050667 48.938667 48.938667 0 0 1-4.522667 11.477333 60.8 60.8 0 0 1-34.56 28.074667c-9.728 3.413333-21.333333 5.376-31.488 7.04-20.394667 3.370667-53.248 6.101333-114.816 7.381333-62.08 1.28-154.026667 0.512-218.197333-0.981333a2368.085333 2368.085333 0 0 1-118.741333-5.162667 236.288 236.288 0 0 1-55.68-9.685333c-20.693333-6.101333-32.085333-21.461333-37.845334-32.256a112.810667 112.810667 0 0 1-10.496-31.189334 226.218667 226.218667 0 0 1-3.157333-23.893333l-0.597333-7.253333v-0.469334c0-0.170667-0.085333-0.298667-0.128-0.426666a118.784 118.784 0 0 1-0.938667-5.376 1365.248 1365.248 0 0 1-10.666667-119.552c-1.706667-41.386667-0.853333-84.394667 1.194667-121.173334 2.090667-36.906667 5.418667-66.517333 7.893333-85.205333 3.370667-25.685333 5.845333-36.352 7.082667-43.264 5.461333-30.72 6.869333-33.706667 8.789333-52.224 0.682667-6.784 1.152-25.728 1.578667-48.042667 0.341333-20.352 0.682667-43.221333 1.322667-53.504l0.085333-0.725333 0.298667-2.56 0.341333-1.792 0.426667-2.304 0.469333-1.664a42.538667 42.538667 0 0 1 1.322667-3.968l1.237333-2.645333 0.512-1.152a42.837333 42.837333 0 0 1 3.328-5.504l1.28-1.578667 1.28-1.493333 1.322667-1.493334a43.392 43.392 0 0 1 10.026666-7.68l0.298667-0.213333 2.432-1.237333h0.170667a42.538667 42.538667 0 0 1 2.858666-1.28l1.365334-0.426667c0.725333-0.256 1.493333-0.426667 2.261333-0.64l1.92-0.512a43.52 43.52 0 0 1 6.741333-0.981333h1.578667l1.024-0.128c6.229333 0 13.525333 0 18.56 0.128z m22.869333 94.933333a902.826667 902.826667 0 0 1-2.005333 55.125333c-2.304 22.656-5.162667 33.152-9.685333 58.538667-1.664 9.386667-3.413333 16.256-6.485334 39.424a1077.077333 1077.077333 0 0 0-7.338666 78.933333c-1.962667 34.517333-2.688 74.666667-1.109334 112.810667a1280.426667 1280.426667 0 0 0 9.685334 109.781333l0.213333 1.237334 0.042667 0.170666v0.085334l0.213333 0.810666c0.64 2.816 0.938667 5.376 1.024 6.4 0.170667 1.28 0.256 2.688 0.341333 3.754667l0.597334 7.082667a142.933333 142.933333 0 0 0 2.090666 15.658666c6.442667 1.408 14.250667 2.645333 26.112 3.498667 18.602667 1.28 51.626667 3.498667 114.730667 4.992 63.445333 1.493333 154.026667 2.218667 214.357333 0.938667 60.757333-1.28 88.618667-3.925333 102.826667-6.229334l0.597333-0.128c-0.64-20.821333-1.962667-58.666667-2.986666-138.282666-1.152-89.728-1.877333-226.645333-3.754667-300.842667a1322.624 1322.624 0 0 0-2.645333-60.672c-11.818667-0.213333-28.117333-0.384-50.517334-0.554667-82.944-0.597333-242.688-1.066667-323.712-1.408-30.634667-0.128-50.005333-0.256-62.464-0.384-0.085333 2.986667-0.085333 6.101333-0.128 9.258667z m98.645334 294.570667c3.285333 0.213333 6.826667 0.512 47.274666 0.512 40.277333 0 115.968-0.256 156.458667-0.341334 39.850667-0.085333 43.52-0.042667 47.232 0.085334a42.666667 42.666667 0 0 1-3.029333 85.333333c-1.664-0.085333-3.370667-0.170667-44.032-0.085333-40.277333 0.085333-116.224 0.341333-156.629334 0.341333-40.192 0-46.208-0.298667-52.437333-0.682667a42.666667 42.666667 0 0 1 5.162667-85.162666zM491.690667 120.746667c50.048 0.896 150.229333 2.688 203.861333 3.84 53.290667 1.237333 58.538667 1.749333 63.189333 2.133333 6.869333 0.64 24.618667 2.858667 47.36 6.741333 2.133333 0.341333 16.853333 2.090667 28.842667 12.672 9.429333 8.32 13.568 18.858667 15.232 24.362667l0.981333 3.541333 2.261334 10.368c2.261333 12.416 4.394667 32.512 6.869333 74.026667 3.370667 56.064 7.253333 153.898667 8.96 209.792 1.706667 56.32 1.109333 68.394667 0.682667 79.232-0.384 8.96-0.469333 16.256-0.597334 24.32a42.666667 42.666667 0 0 1-85.333333-1.109333c0.128-8.064 0.213333-16.426667 0.64-26.666667 0.341333-8.32 0.981333-18.304-0.682667-73.216-1.706667-55.424-5.546667-152.32-8.832-207.274667a1109.76 1109.76 0 0 0-3.84-49.152 454.272 454.272 0 0 0-19.84-2.56c-1.536-0.128-4.138667-0.64-57.813333-1.834666-53.418667-1.194667-153.344-2.986667-203.52-3.925334l-43.904-0.725333-5.504-0.128h-0.128a42.666667 42.666667 0 0 1 0-85.333333l51.114667 0.896z m-230.869334 338.346666l-0.341333-0.042666a30.592 30.592 0 0 0-1.365333-0.128l-0.256-0.042667h0.810666l2.688 0.128 34.218667 0.768 158.08 3.456c40.576 0.938667 42.837333 1.109333 48.256 1.450667l18.986667 1.024a42.666667 42.666667 0 0 1-4.48 85.205333c-7.509333-0.426667-15.232-0.768-19.925334-1.066667-3.328-0.213333-3.754667-0.384-44.8-1.28-40.874667-0.938667-118.656-2.56-157.994666-3.413333-19.541333-0.426667-29.568-0.725333-34.773334-0.853333l-5.461333-0.170667a42.666667 42.666667 0 0 1 6.314667-84.992z m5.12 0.896l-0.768-0.170666-1.706666-0.341334-0.938667-0.128c1.109333 0.170667 2.304 0.384 3.413333 0.64z"  /></svg>