<?xml version="1.0" standalone="no"?><!DOCTYPE svg PUBLIC "-//W3C//DTD SVG 1.1//EN" "http://www.w3.org/Graphics/SVG/1.1/DTD/svg11.dtd"><svg class="icon" width="32px" height="32.00px" viewBox="0 0 1024 1024" version="1.1" xmlns="http://www.w3.org/2000/svg"><path fill="#000000" d="M129.066667 646.826667a42.666667 42.666667 0 0 1 42.666666 42.666666c0 1.450667-0.042667 3.413333-0.896 23.04-0.853333 20.864-2.602667 61.312-2.858666 92.416-0.128 15.530667 0.085333 27.648 0.768 36.864l0.042666 0.682667c4.181333 0.298667 9.258667 0.682667 15.36 0.938667 40.106667 1.749333 113.749333 3.413333 190.421334 5.077333a42.666667 42.666667 0 0 1-1.877334 85.333333c-76.16-1.706667-150.997333-3.370667-192.256-5.162666-18.56-0.853333-36.48-1.706667-50.005333-5.76a60.714667 60.714667 0 0 1-26.24-15.36 61.056 61.056 0 0 1-14.08-23.338667 146.645333 146.645333 0 0 1-6.442667-36.138667 549.333333 549.333333 0 0 1-1.024-43.818666c0.256-32.896 2.048-74.88 2.944-95.445334l0.768-18.176 0.042667-1.536v-0.554666l0.042667-0.128a42.666667 42.666667 0 0 1 42.666666-41.6z m753.664-4.48a42.666667 42.666667 0 0 1 42.666666 42.666666c0 3.370667-0.426667 7.466667-2.645333 29.568-2.389333 24.234667-7.253333 72.448-10.325333 100.010667-3.413333 30.592-6.229333 46.72-12.928 59.050667-9.898667 18.218667-27.477333 23.253333-32.853334 24.746666-6.613333 1.962667-15.914667 3.754667-26.197333 5.802667-20.309333 3.968-57.6 10.453333-84.48 14.208-28.032 3.84-44.117333 4.437333-56.490667 4.906667-11.648 0.426667-19.456 0.682667-28.757333 1.322666a42.666667 42.666667 0 1 1-5.76-85.12c10.794667-0.725333 19.754667-1.066667 31.402667-1.493333 10.965333-0.426667 23.893333-0.810667 47.829333-4.138667a1718.442667 1718.442667 0 0 0 79.786667-13.397333l1.706666-0.426667c0.554667-4.010667 1.28-8.96 1.962667-14.933333a10891.648 10891.648 0 0 0 12.288-120.277333l0.128-1.706667v1.877333a42.666667 42.666667 0 0 1 42.666667-42.666666zM247.765333 101.077333c31.36-3.925333 61.738667-2.56 79.616-1.706666l32.384 1.450666c2.218667 0.128 8.277333 0.256 13.909334 1.749334a42.666667 42.666667 0 1 1-15.786667 83.584h-0.512 0.426667l-0.768-0.042667h0.341333l-2.261333-0.042667a4323.84 4323.84 0 0 0-31.530667-1.493333c-18.261333-0.810667-41.898667-1.749333-65.152 1.194667-24.064 2.986667-41.386667 9.472-51.285333 18.432-9.344 8.405333-17.749333 24.704-23.594667 53.973333-5.76 28.8-7.850667 63.061333-10.069333 101.845333a42.666667 42.666667 0 1 1-85.162667-4.906666c2.133333-37.162667 4.352-77.824 11.52-113.706667 7.082667-35.370667 20.352-73.6 50.090667-100.48 29.141333-26.325333 67.242667-35.968 97.834666-39.850667z m351.317334 32.426667a42.624 42.624 0 0 1 52.352-26.538667l1.706666 0.256c4.224 0.597333 12.629333 1.664 29.781334 3.413334 32.725333 3.413333 101.717333 9.813333 135.68 13.397333 16.896 1.792 28.202667 3.157333 35.584 4.650667 3.413333 0.682667 9.898667 2.133333 16.512 5.717333 7.04 3.754667 11.605333 8.490667 14.421333 11.946667l2.261333 3.072 4.138667 6.826666c3.669333 6.997333 6.058667 14.336 7.893333 20.821334 1.28 4.565333 2.56 9.685333 3.797334 15.36l3.712 18.901333 0.256 1.365333c2.986667 19.754667 6.613333 50.389333 8.490666 76.544 1.92 26.666667 1.92 47.573333 1.92 67.712a42.666667 42.666667 0 0 1-85.333333 0c0-20.053333 0-38.272-1.706667-61.525333-1.706667-23.722667-5.12-52.138667-7.808-70.058667-1.152-6.101333-2.133333-11.178667-3.072-15.317333l-9.941333-1.109333c-35.84-3.754667-99.456-9.728-135.552-13.44-32.085333-3.285333-40.789333-4.522667-49.152-7.509334a42.666667 42.666667 0 0 1-25.941333-54.485333zM353.450667 185.514667l1.834666 0.341333a43.264 43.264 0 0 1-3.413333-0.768l1.578667 0.426667z m300.117333-77.909334l-0.725333-0.256-0.853334-0.213333 1.578667 0.426667z"  /></svg>