<?xml version="1.0" standalone="no"?><!DOCTYPE svg PUBLIC "-//W3C//DTD SVG 1.1//EN" "http://www.w3.org/Graphics/SVG/1.1/DTD/svg11.dtd"><svg class="icon" width="32px" height="32.00px" viewBox="0 0 1024 1024" version="1.1" xmlns="http://www.w3.org/2000/svg"><path fill="#000000" d="M886.656 644.992a42.666667 42.666667 0 0 1 46.762667 38.186667c0.256 2.56 0.512 5.290667 3.541333 44.8 1.493333 19.754667 3.925333 51.114667 3.242667 82.816-0.64 29.994667-4.096 67.797333-18.816 96.682666-17.152 33.536-45.952 48.896-71.765334 55.338667-24.234667 6.058667-48.64 4.992-61.866666 4.565333-27.733333-0.938667-36.053333-1.109333-44.501334-1.28a42.709333 42.709333 0 0 1 2.005334-85.333333c8.746667 0.213333 17.28 0.384 45.354666 1.28 14.805333 0.512 27.477333 0.768 38.314667-1.962667 9.258667-2.304 13.568-5.802667 16.469333-11.477333 5.248-10.325333 8.832-31.061333 9.472-59.690667a765.994667 765.994667 0 0 0-2.986666-74.453333c-3.072-40.192-3.242667-41.429333-3.413334-42.709333-2.346667-23.466667 14.762667-44.373333 38.186667-46.762667z m-750.421333-1.92a42.666667 42.666667 0 0 1 42.666666 42.666667v-0.469334-0.938666l-0.085333-1.152 0.256 2.986666 2.432 27.008c2.730667 30.848 8.192 91.989333 11.776 128.554667 1.408 13.909333 2.602667 24.874667 3.626667 33.493333l4.266666-0.298666c35.370667-2.986667 100.949333-9.173333 168.917334-15.530667a42.666667 42.666667 0 0 1 7.978666 84.906667c-67.712 6.4-133.845333 12.629333-169.685333 15.658666-17.237333 1.450667-29.568 2.346667-37.973333 2.304-6.954667-0.042667-25.386667-0.298667-39.893334-15.36l-6.101333-6.314666-3.072-8.192a146.090667 146.090667 0 0 1-6.912-29.866667 1135.36 1135.36 0 0 1-6.058667-52.394667c-3.669333-37.034667-9.130667-98.688-11.861333-129.408l-2.432-27.136c-0.170667-2.133333-0.512-5.290667-0.512-7.850666a42.666667 42.666667 0 0 1 42.666667-42.666667z m674.816-191.872a42.666667 42.666667 0 0 1 3.370666 85.248c-10.325333 0.426667-13.738667 0.853333-105.045333 3.584-91.221333 2.773333-265.173333 7.808-361.984 10.325333-96.853333 2.474667-116.309333 2.474667-135.808 2.474667a42.666667 42.666667 0 0 1 0-85.333333c18.432 0 37.034667 0 133.546667-2.517334 96.682667-2.474667 270.506667-7.466667 361.642666-10.24 90.922667-2.730667 93.952-3.114667 104.277334-3.541333zM338.602667 94.592a42.666667 42.666667 0 0 1-2.645334 85.290667c-5.717333-0.170667-11.477333-0.426667-40.618666-0.128-27.818667 0.256-74.88 0.853333-101.845334 1.408-1.706667 8.021333-3.584 17.493333-5.290666 28.032-3.413333 20.906667-6.058667 45.397333-7.082667 68.949333a768.469333 768.469333 0 0 0 0.426667 69.290667c0 0.341333 0.085333 0.554667 0.085333 0.64l-0.042667-0.213334a42.666667 42.666667 0 0 1-84.48 12.16 184.490667 184.490667 0 0 1-1.28-20.48c-0.426667-13.098667-1.152-38.144 0.042667-65.109333a669.781333 669.781333 0 0 1 22.058667-143.616c0.853333-2.816 3.370667-11.306667 10.666666-19.285333l3.754667-3.584a44.373333 44.373333 0 0 1 17.621333-9.216c4.693333-1.28 9.173333-1.706667 11.221334-1.834667 5.12-0.426667 13.184-0.64 26.026666-0.938667 26.410667-0.554667 77.738667-1.28 107.349334-1.536 29.781333-0.256 36.693333-0.042667 44.032 0.170667z m396.117333 3.072c30.165333 1.28 87.594667 2.133333 119.466667 2.901333 15.104 0.426667 24.234667 0.682667 29.738666 1.066667 2.304 0.170667 6.698667 0.469333 11.264 1.578667a45.397333 45.397333 0 0 1 32.469334 29.141333c1.706667 4.778667 2.56 9.472 2.986666 12.373333 1.024 6.4 2.133333 16.512 3.498667 32.853334 2.901333 33.152 7.722667 97.493333 12.885333 163.797333a42.666667 42.666667 0 0 1-85.077333 6.613333c-5.162667-66.346667-9.898667-129.28-12.757333-162.133333-30.72-0.768-87.978667-1.621333-118.058667-2.901333-32.981333-1.408-42.368-2.261333-49.706667-2.602667a42.666667 42.666667 0 0 1 4.309334-85.248c10.581333 0.512 15.616 1.152 48.981333 2.56z"  /></svg>