<?xml version="1.0" standalone="no"?><!DOCTYPE svg PUBLIC "-//W3C//DTD SVG 1.1//EN" "http://www.w3.org/Graphics/SVG/1.1/DTD/svg11.dtd"><svg class="icon" width="32px" height="32.00px" viewBox="0 0 1024 1024" version="1.1" xmlns="http://www.w3.org/2000/svg"><path fill="#000000" d="M593.578667 46.293333c12.416 0.256 25.002667 0.426667 35.029333 1.621334 8.149333 0.981333 26.922667 3.584 41.002667 18.432 16.213333 17.066667 15.36 37.973333 14.250666 47.701333-1.152 10.24-4.309333 22.101333-7.082666 32.512-12.202667 45.653333-38.229333 136.490667-51.669334 183.936l-3.029333 10.922667c15.402667-2.389333 29.866667-2.602667 38.826667-3.413334 15.274667-1.322667 38.613333-4.010667 72.533333-6.613333 33.536-2.56 82.901333-5.461333 107.776-4.352 4.266667 0.213333 16.597333 0.554667 27.648 5.717333 6.954667 3.242667 17.749333 10.325333 23.594667 24.234667 5.674667 13.610667 3.328 25.856 1.237333 32.469333-3.498667 11.093333-10.88 20.309333-13.994667 24.277334-4.394667 5.504-10.24 12.245333-16.341333 19.328-25.642667 29.738667-72.106667 84.053333-101.888 120.405333-29.653333 36.266667-40.704 52.181333-81.834667 105.301333-40.362667 52.138667-108.8 138.837333-146.090666 186.453334-37.290667 47.786667-41.813333 54.357333-44.672 58.282666-10.922667 15.104-22.357333 30.549333-27.648 38.4a68.821333 68.821333 0 0 0-4.736 8.32l-1.834667 3.925334c-0.298667 0.597333-0.725333 1.664-1.28 2.688-0.256 0.554667-1.706667 3.413333-3.84 6.485333a42.752 42.752 0 0 1-77.568-26.282667c0-2.261333 0.256-5.034667 0.469333-8.149333 0.512-6.741333 1.621333-19.242667 3.925334-42.496 4.565333-46.506667 13.866667-138.154667 21.077333-198.826667 3.626667-30.464 6.613333-52.48 8.874667-68.48l0.128-1.066666c-1.194667 0-2.432-0.128-3.712-0.128-46.208-0.853333-140.970667-1.28-188.330667-2.901334-22.826667-0.768-38.613333-1.877333-48.853333-4.266666a57.429333 57.429333 0 0 1-11.861334-4.096 44.245333 44.245333 0 0 1-22.954666-55.68c0.512-1.450667 1.109333-2.688 1.152-2.858667l6.4-13.44c1.450667-2.730667 4.437333-7.68 30.165333-72.618667 12.373333-31.146667 40.149333-111.317333 65.28-184.96 12.373333-36.48 24.064-70.997333 32.597333-96.426666l10.154667-30.293334 2.816-8.405333 0.512-1.578667 0.426667-1.706666a167.808 167.808 0 0 1 17.408-41.813334C311.04 74.410667 339.072 41.941333 387.2 42.666667c51.285333 0.853333 153.045333 2.602667 206.378667 3.626666zM385.792 128c-3.2 0-8.021333 1.109333-14.72 12.373333a82.645333 82.645333 0 0 0-8.362667 20.224l-0.256 0.981334-0.469333 2.176-0.810667 2.304v0.213333l-0.213333 0.554667-0.725333 2.176-2.816 8.448A25947.008 25947.008 0 0 1 314.453333 304.64c-24.789333 72.746667-53.333333 155.264-66.688 188.885333-5.930667 14.933333-10.794667 26.922667-14.677333 36.565334 49.408 1.194667 127.018667 1.621333 171.264 2.474666 11.904 0.213333 22.058667 0.512 30.208 1.066667 7.338667 0.512 17.024 1.450667 26.026667 4.608 10.965333 3.84 24.789333 12.373333 31.530666 29.696 4.864 12.501333 3.498667 24.746667 3.285334 27.306667-0.682667 8.789333-2.474667 20.736-4.565334 35.669333-2.218667 15.744-5.12 37.077333-8.704 66.730667-2.986667 25.344-6.357333 56.32-9.6 87.125333 38.613333-49.28 101.504-128.981333 139.605334-178.261333 39.509333-50.986667 52.736-69.717333 83.328-107.093334 20.224-24.618667 47.658667-57.045333 71.338666-84.821333-9.173333 0.597333-18.346667 1.28-26.88 1.92-34.261333 2.602667-52.48 4.821333-71.594666 6.485333-22.613333 2.005333-28.245333 1.152-39.637334 4.096-16.213333 4.181333-29.44 8.32-39.082666 11.349334-4.437333 1.365333-9.344 2.944-13.056 3.882666-1.493333 0.426667-5.12 1.365333-9.216 1.792-1.450667 0.170667-7.253333 0.853333-14.250667-0.64a43.264 43.264 0 0 1-33.92-37.717333c-0.64-6.058667 0.256-11.093333 0.426667-11.989333a69.973333 69.973333 0 0 1 0.853333-4.778667c0.597333-2.346667 1.28-5.034667 1.962667-7.338667 1.536-5.546667 2.944-10.325333 4.906666-17.664 1.493333-5.546667 2.090667-8.618667 15.701334-56.746666 12.970667-45.738667 36.736-128.981333 49.322666-175.658667h-0.426666C538.752 130.56 437.12 128.853333 385.792 128z"  /></svg>