<?xml version="1.0" standalone="no"?><!DOCTYPE svg PUBLIC "-//W3C//DTD SVG 1.1//EN" "http://www.w3.org/Graphics/SVG/1.1/DTD/svg11.dtd"><svg class="icon" width="32px" height="32.00px" viewBox="0 0 1024 1024" version="1.1" xmlns="http://www.w3.org/2000/svg"><path fill="#000000" d="M444.458667 214.698667c61.098667-0.256 68.693333 0.469333 122.581333 3.242666 53.546667 2.773333 153.6 7.552 210.090667 9.557334 56.874667 2.005333 64.426667 0.938667 67.712 0.597333 4.778667-0.554667 9.984-1.365333 20.266666-2.133333 9.941333-0.682667 26.453333-1.536 42.538667-2.346667a42.666667 42.666667 0 1 1 4.352 85.205333l-30.976 1.706667c-1.834667 32.426667-3.754667 64.384-6.656 91.733333-3.242667 30.72-8.234667 59.904-12.714667 96.128-4.693333 38.4-10.282667 94.677333-18.944 155.306667-8.618667 60.245333-19.370667 126.208-27.648 162.56-4.352 19.328-8.533333 36.352-15.232 51.029333-7.637333 16.64-17.493333 28.288-29.610666 39.68-1.962667 1.877333-7.04 6.698667-15.232 10.496-7.04 3.242667-14.037333 4.693333-19.797334 5.546667-11.008 1.706667-27.733333 2.474667-53.802666 3.029333-52.992 1.109333-154.026667 2.346667-208.597334 0.725334a811.392 811.392 0 0 1-61.013333-3.328 99.882667 99.882667 0 0 1-18.901333-3.669334 51.541333 51.541333 0 0 1-23.04-14.677333 107.392 107.392 0 0 1-11.776-16.384c-3.029333-4.992-3.712-6.314667-5.034667-8.149333-5.546667-8.064-13.226667-18.858667-24.277333-45.610667-7.04-17.024-20.608-49.792-28.970667-72.533333a378.624 378.624 0 0 1-15.232-50.816c-3.072-13.098667-6.272-27.306667-10.282667-48.128a1447.936 1447.936 0 0 1-11.52-65.706667c-4.266667-30.592-4.906667-38.826667-6.741333-44.8-4.096-13.354667-10.666667-44.714667-17.706667-76.032-1.28-5.845333-2.304-9.813333-3.712-15.573333a1025.706667 1025.706667 0 0 1-5.76-24.32c-5.461333-24.405333-12.501333-59.648-17.450666-80.64a928.085333 928.085333 0 0 1-11.050667-54.186667c-36.736 0.426667-38.272 0.512-39.765333 0.512a42.666667 42.666667 0 0 1 0-85.333333l58.069333-0.597334c55.637333-0.597333 165.717333-1.834667 225.834667-2.090666z m0.384 85.333333c-40.533333 0.170667-103.936 0.853333-157.952 1.408 2.261333 11.818667 4.565333 22.613333 7.552 35.413333 4.778667 20.266667 13.226667 61.610667 17.664 81.493334 2.432 10.666667 3.968 17.152 5.290666 22.528 1.365333 5.418667 2.602667 10.368 4.181334 17.365333 7.936 35.456 13.141333 60.544 15.957333 69.674667 4.522667 14.72 6.570667 35.029333 9.770667 58.112 2.261333 16.384 6.826667 41.002667 10.752 61.312 3.712 19.370667 6.698667 32.426667 9.557333 44.8 2.730667 11.562667 5.077333 21.12 12.288 40.832 7.68 20.821333 20.48 51.882667 27.733333 69.461333 4.224 10.24 7.296 16.341333 9.472 20.181333 2.133333 3.754667 3.626667 5.802667 6.058667 9.301334 1.834667 2.645333 3.413333 5.162667 4.608 7.210666 9.173333 0.725333 23.893333 1.621333 47.573333 2.346667 52.096 1.536 151.210667 0.341333 204.245334-0.768 19.882667-0.426667 31.232-1.109333 37.717333-1.664a28.16 28.16 0 0 0 4.992-7.338667c2.474667-5.418667 4.949333-13.909333 9.557333-34.304 7.424-32.682667 17.792-95.658667 26.410667-155.818666 8.533333-59.861333 13.610667-112.170667 18.730667-153.685334 5.376-43.690667 9.130667-62.592 12.501333-94.592 2.432-23.253333 4.181333-50.56 5.888-79.957333-6.314667-0.213333-13.397333-0.298667-21.248-0.597333-57.216-2.048-157.866667-6.826667-211.456-9.6-53.290667-2.730667-59.050667-3.370667-117.845333-3.114667z m211.285333 61.312a42.666667 42.666667 0 0 1 42.666667 42.666667c0 8.96 0 17.834667-0.725334 48.426666-0.682667 29.994667-2.090667 82.602667-2.901333 117.333334-0.853333 35.072-1.066667 52.181333-1.28 69.845333a42.666667 42.666667 0 0 1-85.333333-1.109333c0.213333-17.834667 0.469333-35.242667 1.28-70.698667 0.853333-35.84 2.261333-86.784 2.986666-117.333333 0.682667-30.037333 0.64-38.272 0.64-46.506667a42.666667 42.666667 0 0 1 42.666667-42.666667z m-174.933333-2.901333a42.666667 42.666667 0 0 1 42.666666 42.666666l0.085334 37.162667 0.426666 182.272a42.666667 42.666667 0 1 1-85.333333 0.213333l-0.426667-182.272-0.085333-37.376a42.666667 42.666667 0 0 1 42.666667-42.666666zM391.552 107.221333a42.666667 42.666667 0 0 1 50.816-32.512c3.157333 0.682667 5.546667 1.194667 9.301333 1.792 3.968 0.597333 9.984 1.28 19.712 2.048 14.464 1.109333 42.154667 0.938667 63.402667 0.426667 21.333333-0.426667 27.733333-1.536 50.176-2.56a2457.6 2457.6 0 0 1 72.106667-1.365333 42.666667 42.666667 0 0 1 0.853333 85.333333c-26.624 0.256-51.456 0.554667-69.248 1.322667-14.933333 0.64-31.36 2.133333-51.968 2.645333-20.693333 0.426667-52.48 0.768-71.850667-0.725333a255.658667 255.658667 0 0 1-40.832-5.589334 42.666667 42.666667 0 0 1-32.469333-50.816z"  /></svg>