<?xml version="1.0" standalone="no"?><!DOCTYPE svg PUBLIC "-//W3C//DTD SVG 1.1//EN" "http://www.w3.org/Graphics/SVG/1.1/DTD/svg11.dtd"><svg class="icon" width="32px" height="32.00px" viewBox="0 0 1024 1024" version="1.1" xmlns="http://www.w3.org/2000/svg"><path fill="#000000" d="M788.906667 830.72l5.973333 0.298667 0.64 0.085333 0.64 0.085333 21.418667 1.621334h0.597333c5.632 0.426667 9.045333 0.853333 11.861333 1.237333a42.666667 42.666667 0 0 1-11.52 84.565333l-2.773333-0.384a90.112 90.112 0 0 0-3.370667-0.256c-9.856-0.554667-18.773333-1.28-25.173333-2.005333-0.256 0-2.602667-0.213333-106.282667 0.512-103.978667 0.682667-302.378667 2.133333-403.072 3.072a13903.146667 13903.146667 0 0 0-101.248 1.28h-0.853333 0.298667c-1.28 0.085333-3.370667 0.298667-5.674667 0.298667a42.666667 42.666667 0 0 1-2.688-85.162667c0.64-0.042667 1.28-0.128 2.005333-0.128h-0.853333c4.864-0.426667 17.92-0.810667 108.202667-1.621333 100.778667-0.938667 299.306667-2.389333 403.285333-3.072 76.416-0.512 99.456-0.64 108.586667-0.426667z m-621.866667 5.248l0.213333-0.042667h0.170667-0.384z m1.493333-0.085333l0.170667-0.042667h0.128-0.298667z m320.725334-761.088c4.906667 0.512 8.789333 1.706667 10.922666 2.389333 3.370667 1.066667 6.485333 2.432 9.045334 3.584 4.992 2.304 10.709333 5.333333 16.64 8.661333 11.946667 6.613333 29.098667 16.768 51.285333 29.653334 27.989333 16.213333 62.805333 33.621333 100.096 54.272 34.986667 19.328 65.109333 37.205333 85.632 50.346666 20.906667 13.269333 31.317333 21.418667 38.485333 26.538667 4.736 3.413333 15.445333 10.453333 22.442667 15.829333a42.666667 42.666667 0 0 1-52.096 67.626667c-6.485333-4.992-8.96-6.144-20.053333-14.08-8.661333-6.272-16.341333-12.288-34.645334-23.978667a1608.917333 1608.917333 0 0 0-81.066666-47.658666c-30.08-16.64-70.058667-37.12-97.621334-52.906667 0.64 14.634667 1.493333 33.706667 2.432 59.050667 3.370667 90.197333 8.96 260.48 14.762667 435.754666a42.666667 42.666667 0 0 1-85.333333 2.816c-5.76-175.36-11.306667-345.472-14.677334-435.413333-0.682667-18.133333-1.322667-32.981333-1.834666-45.141333-2.858667 3.2-5.845333 6.613333-9.045334 10.112-32.853333 36.010667-89.685333 95.829333-117.845333 125.525333-14.165333 14.933333-21.162667 22.442667-24.618667 26.154667l-1.877333 2.005333-0.554667 0.597333 0.426667-0.426666 0.341333-0.512a42.666667 42.666667 0 0 1-71.594666-45.44c2.858667-5.76 6.570667-9.813333 6.869333-10.112l3.968-4.352 25.088-26.581334c28.458667-30.037333 84.565333-89.088 116.736-124.373333 24.618667-26.965333 37.461333-42.965333 45.056-52.778667 3.285333-4.266667 7.253333-9.557333 9.856-12.8 3.2-4.010667 7.552-9.002667 13.653333-13.696l5.248-3.584c12.330667-7.253333 24.576-7.381333 28.586667-7.381333l5.290667 0.298667zM303.658667 371.2z"  /></svg>