<?xml version="1.0" standalone="no"?><!DOCTYPE svg PUBLIC "-//W3C//DTD SVG 1.1//EN" "http://www.w3.org/Graphics/SVG/1.1/DTD/svg11.dtd"><svg class="icon" width="32px" height="32.00px" viewBox="0 0 1024 1024" version="1.1" xmlns="http://www.w3.org/2000/svg"><path fill="#000000" d="M475.392 85.76c26.112-0.682667 66.986667-1.109333 96.938667 3.242667 20.693333 2.986667 35.114667 5.504 44.629333 7.253333a368.64 368.64 0 0 1 14.421333 3.072l1.877334 0.512 1.664 0.512 1.706666 0.554667 4.266667 1.877333 3.754667 2.133333a42.666667 42.666667 0 0 1 6.912 5.504c6.357333 3.157333 10.24 5.162667 14.08 7.509334l4.394666 2.773333 2.133334 1.365333c14.592 8.362667 24.832 14.933333 39.125333 20.906667 10.88 4.522667 23.296 9.941333 34.816 16.213333 11.136 5.973333 24.192 14.165333 34.645333 25.173334a201.514667 201.514667 0 0 1 47.232 79.658666c4.096 13.226667 10.794667 36.266667 15.104 66.176 4.181333 29.44 5.888 63.701333 5.333334 94.293334-0.554667 30.805333-3.285333 58.026667-7.68 82.304a337.322667 337.322667 0 0 1-18.432 65.024 280.490667 280.490667 0 0 1-31.402667 58.410666c-13.482667 19.413333-30.549333 39.850667-45.056 55.552a406.613333 406.613333 0 0 1-33.408 32.384c2.474667 2.944 5.290667 6.357333 8.661333 10.24 13.482667 15.189333 34.858667 38.144 61.397334 63.914667a3264 3264 0 0 0 94.08 86.528 42.666667 42.666667 0 0 1-56.96 63.530667 3334.186667 3334.186667 0 0 1-96.597334-88.832 1305.301333 1305.301333 0 0 1-65.834666-68.608c-7.381333-8.405333-12.8-14.848-17.152-20.266667a1096.96 1096.96 0 0 1-69.034667 31.786667c-27.178667 11.093333-42.88 14.72-69.802667 16.213333-23.850667 1.322667-57.557333 1.28-94.378666-1.962667a946.133333 946.133333 0 0 1-97.877334-13.525333c-26.026667-5.461333-46.336-9.6-67.114666-18.048-11.349333-4.650667-22.442667-9.130667-31.658667-13.141333a182.058667 182.058667 0 0 1-26.026667-13.226667c-8.96-5.888-27.306667-17.28-39.722666-33.536-9.770667-12.757333-22.528-33.066667-34.133334-65.664a660.48 660.48 0 0 1-15.616-52.096 205.056 205.056 0 0 1-6.826666-43.306667c-1.450667-18.986667-3.413333-51.2-2.005334-88.618666 1.408-37.12 5.973333-78.421333 13.696-113.109334 7.637333-34.432 17.493333-61.44 24.917334-77.610666 10.666667-23.296 28.714667-45.610667 53.077333-69.12 12.970667-12.544 22.4-18.688 40.533333-29.141334a1440.341333 1440.341333 0 0 1 72.192-38.741333 927.488 927.488 0 0 1 72.277334-32.341333 355.157333 355.157333 0 0 1 49.962666-15.957334c16.213333-3.84 33.408-6.912 62.890667-7.722666z m2.304 85.333333c-23.168 0.64-34.56 2.858667-45.354667 5.461334a270.208 270.208 0 0 0-38.698666 12.373333c-17.28 6.784-40.448 16.938667-65.408 29.312-25.002667 12.458667-51.2 26.88-67.626667 36.266667-15.616 9.045333-18.133333 11.093333-23.765333 16.554666-20.906667 20.138667-30.464 33.834667-34.816 43.306667-4.736 10.368-12.8 31.658667-19.2 60.586667a578.730667 578.730667 0 0 0-11.733334 97.792c-1.28 32.810667 0.512 61.397333 1.877334 78.848a119.04 119.04 0 0 0 4.352 28.586666c3.072 12.032 8.234667 30.464 13.354666 44.8 8.533333 23.978667 16.981333 36.48 21.546667 42.453334 1.792 2.346667 6.101333 5.632 18.816 14.037333a38.912 38.912 0 0 0 3.541333 1.92c2.432 1.194667 5.632 2.645333 9.642667 4.352 8.021333 3.498667 17.962667 7.552 29.781333 12.373333 12.245333 4.949333 24.533333 7.68 52.352 13.525334 19.2 3.968 54.442667 9.130667 87.978667 12.074666 32.725333 2.858667 62.293333 2.858667 82.133333 1.706667 16.725333-0.896 23.168-2.133333 42.24-9.984 21.76-8.874667 55.338667-24.661333 77.098667-36.181333 20.266667-10.794667 27.818667-16.64 36.266667-23.637334 9.344-7.808 18.986667-16.64 31.146666-29.781333 12.501333-13.525333 26.88-30.890667 37.546667-46.293333 10.197333-14.677333 16.64-27.136 22.272-41.216a252.586667 252.586667 0 0 0 13.696-48.896c3.541333-19.285333 5.888-41.813333 6.357333-68.522667a533.461333 533.461333 0 0 0-4.48-80.597333 339.84 339.84 0 0 0-12.16-53.162667 116.224 116.224 0 0 0-27.52-46.037333 59.477333 59.477333 0 0 0-13.354666-8.874667 310.4 310.4 0 0 0-27.178667-12.544c-20.821333-8.661333-37.802667-19.370667-49.024-25.813333l-0.597333-0.341334-4.778667-2.986666-2.688-1.706667a117.333333 117.333333 0 0 0-9.002667-4.693333 43.050667 43.050667 0 0 1-8.32-5.461334l-2.986666-0.554666c-8.021333-1.536-21.205333-3.84-40.917334-6.698667-21.802667-3.157333-55.893333-3.072-82.346666-2.346667z m7.253333 104.533334a42.666667 42.666667 0 0 1 55.04-24.661334c7.381333 2.773333 18.730667 8.234667 26.197334 11.776 14.805333 7.04 36.266667 23.338667 57.301333 40.832 17.92 14.890667 29.44 29.44 36.864 43.904 3.498667 6.741333 5.973333 13.482667 7.552 18.730667l2.645333 9.685333 0.085334 0.341334 0.128 0.341333c1.536 5.930667 2.645333 11.178667 3.413333 16.512l2.005333 17.237333v0.64l0.085334 0.597334c0.597333 10.154667 1.28 27.904 1.962666 45.312a42.666667 42.666667 0 0 1-85.248 3.328c-0.725333-17.450667-1.365333-33.706667-1.877333-42.922667a98.346667 98.346667 0 0 0-2.858667-18.858667v-0.042666c-2.261333-8.064-1.962667-8.448-3.754666-11.946667-1.365333-2.688-5.034667-8.533333-15.488-17.194667a547.882667 547.882667 0 0 0-26.709334-20.992 191.232 191.232 0 0 0-8.96-6.186666c-1.152-0.768-2.133333-1.28-2.773333-1.706667a402.346667 402.346667 0 0 0-20.906667-9.685333 42.666667 42.666667 0 0 1-24.704-55.04z"  /></svg>