<?xml version="1.0" standalone="no"?><!DOCTYPE svg PUBLIC "-//W3C//DTD SVG 1.1//EN" "http://www.w3.org/Graphics/SVG/1.1/DTD/svg11.dtd"><svg class="icon" width="32px" height="32.00px" viewBox="0 0 1024 1024" version="1.1" xmlns="http://www.w3.org/2000/svg"><path fill="#000000" d="M509.525333 115.072c14.677333 0.810667 37.802667-2.176 72.106667 10.837333 27.52 10.453333 63.786667 26.624 83.754667 40.32 16.64 11.434667 30.72 21.461333 41.642666 30.634667 10.666667 8.917333 21.418667 19.413333 28.714667 32.426667 1.450667 2.56 4.266667 6.912 10.026667 16.085333 5.077333 8.106667 11.392 18.474667 17.493333 29.781333 10.666667 19.626667 24.746667 49.450667 25.856 78.848 3.328 27.008 8.917333 61.397333 11.349333 85.888 2.602667 26.538667 3.669333 56.832-6.058666 84.096-11.093333 31.146667-31.786667 89.472-45.568 124.16-4.522667 11.349333-8.533333 21.077333-12.117334 29.525334l1.024 0.682666c18.517333 11.989333 55.04 34.858667 81.792 53.76 27.349333 19.370667 44.885333 34.986667 58.88 46.378667 14.549333 11.861333 28.16 21.674667 47.957334 36.693333a42.666667 42.666667 0 0 1-51.498667 68.010667c-18.090667-13.696-34.176-25.386667-50.346667-38.528-16.725333-13.653333-30.08-25.770667-54.272-42.88-24.832-17.578667-58.410667-38.528-78.890666-51.797333l-0.853334-0.597334c-1.194667 1.152-2.304 2.346667-3.498666 3.413334-11.989333 10.581333-27.904 20.693333-52.138667 32.682666-22.442667 11.093333-47.829333 20.522667-81.194667 25.728-28.629333 4.437333-51.797333 8.618667-63.232 10.112-18.730667 2.432-49.92 3.072-80.512 2.005334-16.426667-0.597333-32.554667-3.413333-50.346666-6.869334-13.738667-2.688-36.522667-5.632-58.922667-12.544-17.450667-5.376-45.781333-14.976-70.528-29.098666a371.84 371.84 0 0 0-10.069333-5.418667c-4.053333-2.133333-8.917333-4.693333-13.824-7.424a194.986667 194.986667 0 0 1-31.957334-21.333333 351.402667 351.402667 0 0 1-28.8-28.8c-9.941333-11.093333-22.485333-26.24-30.037333-40.533334a239.189333 239.189333 0 0 1-20.736-53.12c-0.298667-1.194667-3.925333-13.226667-5.802667-24.618666-2.133333-12.970667-3.413333-29.866667-3.328-55.424 0.042667-25.130667 0.853333-63.744 2.218667-86.997334 0.597333-10.752 0.725333-25.6 2.304-38.784 1.834667-15.36 5.632-31.36 13.141333-53.290666 9.728-28.373333 18.261333-48.341333 23.04-58.368 3.498667-7.338667 12.544-25.045333 26.24-46.634667 7.381333-11.605333 18.432-27.776 42.069334-47.616 19.114667-16.042667 44.501333-37.632 72.021333-46.805333 29.781333-9.898667 42.666667-15.061333 73.472-22.101334a1202.517333 1202.517333 0 0 1 93.098667-17.92c32.597333-4.48 58.197333-5.546667 76.373333-4.565333z m-4.565333 85.205333c-11.349333-0.597333-31.274667-0.085333-60.032 3.882667s-65.28 11.861333-85.845333 16.554667c-25.685333 5.845333-33.408 9.216-65.536 19.925333-8.96 2.986667-21.418667 12.117333-44.117334 31.189333-14.933333 12.501333-20.522667 21.12-24.832 27.904a390.954667 390.954667 0 0 0-21.248 37.632c-3.2 6.698667-10.538667 23.68-19.370666 49.408-6.144 17.92-8.192 27.904-9.130667 35.754667-1.194667 10.026667-0.853333 15.658667-1.877333 33.450667a1857.493333 1857.493333 0 0 0-2.048 82.389333c-0.042667 22.954667 1.109333 34.688 2.218666 41.344 1.322667 8.192 1.706667 6.912 4.522667 18.474667 2.56 10.581333 7.893333 23.125333 13.226667 33.28 2.346667 4.394667 8.789333 13.013333 18.048 23.338666 8.789333 9.770667 17.237333 17.92 20.906666 21.034667 3.584 3.072 9.514667 6.912 17.834667 11.52 3.968 2.218667 7.978667 4.352 12.202667 6.570667 3.968 2.090667 8.448 4.48 12.458666 6.741333 16.469333 9.386667 37.546667 16.810667 53.418667 21.717333 16.768 5.12 28.586667 6.101333 50.218667 10.325334 17.493333 3.413333 27.904 5.034667 36.992 5.376 29.013333 1.024 54.656 0.170667 66.432-1.365334 10.624-1.408 28.117333-4.693333 61.141333-9.813333a185.344 185.344 0 0 0 56.448-17.877333c20.949333-10.368 29.44-16.64 33.536-20.181334 5.205333-4.608 4.010667-4.565333 13.738667-15.872 0.085333-0.128 1.962667-2.346667 6.272-11.349333 4.352-9.130667 10.24-22.997333 19.029333-45.056 13.098667-32.853333 33.066667-89.301333 44.416-121.258667 2.986667-8.277333 4.010667-22.357333 1.536-47.018666-2.56-26.325333-6.912-49.408-11.264-85.376l-0.341333-2.645334v-2.56c0-7.125333-4.821333-21.888-15.701334-42.026666-4.864-8.96-10.069333-17.493333-14.805333-25.088-4.053333-6.485333-9.386667-14.677333-12.16-19.626667-0.341333-0.469333-2.346667-3.157333-8.917333-8.661333-7.637333-6.4-18.773333-14.464-35.242667-25.728-11.050667-7.594667-39.168-20.778667-65.749333-30.890667-17.834667-6.784-18.218667-3.882667-46.378667-5.418667z m59.733333 202.325334a42.666667 42.666667 0 0 1 0 85.333333c-20.992 0-40.277333 0-70.144 2.474667-15.274667 1.28-33.066667 3.157333-51.328 5.12-18.005333 1.877333-36.565333 3.84-52.437333 5.162666l-1.322667 0.085334c-50.218667 2.56-70.229333 2.645333-71.424 2.645333a42.666667 42.666667 0 0 1 0-85.333333h0.682667l2.602667-0.042667c2.432-0.042667 6.229333-0.085333 11.52-0.256 10.581333-0.298667 27.264-0.938667 51.328-2.133333 14.592-1.28 31.914667-3.114667 50.048-5.034667 18.005333-1.92 36.821333-3.882667 53.248-5.248a836.096 836.096 0 0 1 77.226666-2.773333z"  /></svg>