<?xml version="1.0" standalone="no"?><!DOCTYPE svg PUBLIC "-//W3C//DTD SVG 1.1//EN" "http://www.w3.org/Graphics/SVG/1.1/DTD/svg11.dtd"><svg class="icon" width="32px" height="32.00px" viewBox="0 0 1024 1024" version="1.1" xmlns="http://www.w3.org/2000/svg"><path fill="#000000" d="M545.066667 119.594667a42.666667 42.666667 0 0 1 37.418666 47.36c-0.085333 0.64-0.170667 1.237333-3.712 41.728-3.413333 39.765333-10.24 119.210667-19.328 185.728-2.133333 15.786667-4.48 30.72-6.784 44.970666l115.242667 0.512c86.784 0.426667 91.136 0.853333 104.448 1.237334 12.544 0.341333 34.005333 0.64 56.704 0.896a42.666667 42.666667 0 1 1-1.066667 85.333333c-22.314667-0.298667-44.586667-0.512-58.026666-0.896-12.586667-0.341333-16.213333-0.810667-102.442667-1.28l-129.066667-0.554667c-2.048 12.970667-3.882667 25.770667-5.546666 38.741334a1518.762667 1518.762667 0 0 0-10.026667 138.666666c-0.597333 20.949333 0.213333 33.237333 1.152 41.002667 1.152 9.472 1.92 10.282667 3.84 21.077333l0.384 2.261334 0.128 2.261333c0.682667 10.666667 0.896 15.957333 1.322667 21.290667 0.170667 1.493333 0.554667 5.034667 0.810666 8.448a42.666667 42.666667 0 0 1-85.12 6.314666l-0.298666-3.498666-0.426667-3.968v-0.341334l-0.042667-0.341333c-0.341333-4.394667-0.810667-13.013333-1.194666-19.669333-0.896-4.309333-2.986667-14.08-4.096-23.466667a356.522667 356.522667 0 0 1-1.749334-53.845333c0.938667-32.512 3.541333-90.837333 10.666667-146.901334 1.194667-9.6 2.56-19.029333 3.968-28.416-47.104-0.170667-91.818667-0.298667-126.037333-0.512-90.709333-0.554667-107.861333-1.28-125.141334-2.048a42.666667 42.666667 0 0 1 3.669334-85.248c15.744 0.682667 31.658667 1.408 122.026666 1.962667 37.546667 0.256 87.594667 0.426667 139.52 0.597333 2.986667-17.749333 5.888-36.181333 8.618667-56.064 8.704-64.128 15.402667-141.525333 18.901333-181.674666 3.413333-39.338667 3.669333-41.898667 3.968-44.245334a42.666667 42.666667 0 0 1 47.36-37.418666z"  /></svg>