<?xml version="1.0" standalone="no"?><!DOCTYPE svg PUBLIC "-//W3C//DTD SVG 1.1//EN" "http://www.w3.org/Graphics/SVG/1.1/DTD/svg11.dtd"><svg class="icon" width="32px" height="32.00px" viewBox="0 0 1024 1024" version="1.1" xmlns="http://www.w3.org/2000/svg"><path fill="#000000" d="M832.384 859.221333a42.666667 42.666667 0 0 1 3.84 85.248c-16.213333 0.725333-27.050667 0.426667-135.68 1.066667-109.738667 0.64-314.112 2.218667-418.346667 2.986667-103.893333 0.768-108.202667 0.768-112.298666 0.768a42.666667 42.666667 0 1 1 0-85.333334c3.669333 0 7.552 0 111.701333-0.768 104.192-0.768 308.650667-2.346667 418.474667-2.986666 110.976-0.64 118.272-0.341333 132.266666-0.981334zM510.72 91.050667a42.666667 42.666667 0 0 1 42.666667 42.666666l0.085333 115.626667c0.085333 78.08 0.256 214.016 0.853333 362.752 23.509333-16.298667 42.24-25.642667 50.688-30.336 2.133333-1.194667 7.637333-4.778667 28.117334-24.405333 19.626667-18.773333 50.346667-50.304 67.584-68.309334 17.322667-18.133333 17.92-19.328 18.901333-20.778666a42.666667 42.666667 0 0 1 69.546667 49.408c-5.034667 7.082667-9.514667 12.330667-26.794667 30.378666a2718.549333 2718.549333 0 0 1-70.229333 70.997334c-20.266667 19.370667-32.768 30.08-45.525334 37.205333-13.568 7.594667-33.962667 17.365333-60.373333 38.229333-12.16 9.642667-22.997333 18.133333-31.701333 24.277334a140.458667 140.458667 0 0 1-14.08 8.917333c-4.266667 2.261333-11.946667 6.058667-21.504 7.253333-24.32 3.157333-46.634667-8.448-61.653334-22.101333 0.768 0.682667 0.213333 0.170667-5.12-3.541333-4.266667-2.944-10.368-7.210667-17.493333-12.288-14.378667-10.368-33.365333-24.746667-54.997333-44.032a1255.722667 1255.722667 0 0 1-86.698667-86.528 42.666667 42.666667 0 0 1 62.592-57.984c26.069333 28.16 51.2 54.272 80.938667 80.853333 11.861333 10.538667 22.912 19.328 32.512 26.752-0.597333-150.272-0.853333-287.872-0.896-366.592-0.128-89.258667-0.085333-102.528-0.085334-115.754667a42.666667 42.666667 0 0 1 42.666667-42.666666z"  /></svg>