<?xml version="1.0" standalone="no"?><!DOCTYPE svg PUBLIC "-//W3C//DTD SVG 1.1//EN" "http://www.w3.org/Graphics/SVG/1.1/DTD/svg11.dtd"><svg class="icon" width="32px" height="32.00px" viewBox="0 0 1024 1024" version="1.1" xmlns="http://www.w3.org/2000/svg"><path fill="#000000" d="M477.952 32.768a43.648 43.648 0 0 1 25.429333 11.306667l1.834667 1.706666 3.584 3.882667 3.285333 3.626667c2.56 2.816 6.442667 7.04 12.416 13.056 9.002667 8.618667 23.509333 21.973333 39.850667 36.053333 16.64 14.336 34.56 28.885333 54.058667 45.056a42.666667 42.666667 0 0 1-54.4 65.749333l-20.48-16.896c1.109333 19.072 2.048 53.973333 1.834666 131.072-0.042667 30.890667-0.341333 68.693333-0.725333 111.573334l179.498667 0.128c20.906667 0 38.016 0.128 52.138666 0.128-10.112-9.173333-19.626667-17.92-25.728-23.381334a1203.968 1203.968 0 0 0-8.448-7.509333 42.581333 42.581333 0 0 1 26.624-75.946667c0.597333 0 5.162667-0.085333 10.666667 1.365334 4.778667 1.194667 8.32 2.986667 10.154667 4.010666 3.114667 1.749333 5.418667 3.584 5.674666 3.84 1.194667 0.853333 2.346667 1.877333 2.901334 2.389334l9.344 8.277333c10.112 9.088 30.506667 27.392 46.677333 42.453333 16.981333 15.829333 26.24 25.173333 38.741333 35.626667 13.525333 11.349333 25.984 21.504 33.877334 28.501333 3.712 3.328 8.746667 7.893333 12.714666 12.8 1.706667 2.133333 5.845333 7.381333 8.533334 14.805334 2.858667 7.850667 6.826667 27.306667-8.192 44.373333-4.266667 4.864-9.088 9.472-12.458667 12.8a269.525333 269.525333 0 0 0-12.288 12.885333c-7.338667 8.234667-18.517333 20.48-26.88 30.122667-7.68 8.874667-11.605333 13.994667-16.085333 20.352-4.693333 6.656-9.856 14.464-16.469334 25.173333a42.709333 42.709333 0 0 1-72.661333-44.8c7.466667-12.074667 13.653333-21.376 19.456-29.610666 6.058667-8.576 11.690667-15.957333 21.162667-26.922667l5.376-6.101333c-13.866667-0.042667-42.581333-0.213333-104.917334-0.298667l-180.309333-0.128c-0.853333 81.834667-1.962667 175.146667-3.157333 271.530667 17.92-18.432 38.144-39.04 58.453333-59.733334a42.666667 42.666667 0 0 1 60.928 59.733334c-42.112 43.008-82.261333 83.925333-103.338667 106.666666a410.325333 410.325333 0 0 0-18.346666 20.778667l-2.56 3.285333c-0.085333 0.213333-0.256 0.341333-0.426667 0.597334l-0.554667 0.853333c-0.426667 0.554667-1.408 1.877333-2.688 3.413333-3.370667 3.925333-20.48 22.144-46.848 14.208a44.885333 44.885333 0 0 1-18.944-11.52c-2.773333-2.773333-4.693333-5.461333-5.205333-6.229333 0.768 1.109333 1.152 1.194667-3.413333-3.413333a11726.805333 11726.805333 0 0 1-111.104-112.042667c-0.426667-0.512-4.437333-4.352-7.338667-8.704a42.666667 42.666667 0 0 1 67.413333-51.968l1.237334 1.28c2.048 2.133333 6.229333 6.4 14.72 14.976 8.149333 8.32 20.224 20.437333 32.597333 32.938667 1.28-98.304 2.432-193.450667 3.285333-276.693334-63.061333 0-122.581333 0-165.632-0.085333-38.016 0-63.317333-0.213333-80.341333-0.256 13.696 9.088 28.416 18.986667 43.349333 29.098667a42.666667 42.666667 0 1 1-47.872 70.613333 2626.901333 2626.901333 0 0 0-87.296-57.472c-4.352-2.688-10.965333-6.613333-16.213333-10.282667a70.826667 70.826667 0 0 1-20.437333-20.992 55.893333 55.893333 0 0 1-6.826667-40.533333c2.389333-11.648 7.936-21.632 12.885333-29.184 9.728-14.933333 25.685333-33.152 40.149334-48.896 15.018667-16.341333 30.848-32.512 41.6-43.562667 21.546667-22.229333 24.704-25.941333 27.648-29.397333a42.666667 42.666667 0 0 1 64.554666 55.850667c-4.565333 5.248-9.045333 10.325333-30.976 32.938666l-6.4 6.570667c15.957333 0 37.376 0.128 66.261334 0.213333l166.4 0.042667c0.384-43.008 0.682667-80.853333 0.768-111.744 0.170667-78.549333-0.853333-110.933333-1.792-126.208l-3.413334 4.949333a579.413333 579.413333 0 0 1-14.976 18.901334 72.362667 72.362667 0 0 1-3.925333 4.138666c-0.426667 0.341333-2.56 2.432-5.632 4.48a42.666667 42.666667 0 0 1-54.826667-64.682666l1.749334-2.133334c1.962667-2.432 5.12-6.4 9.6-12.245333 8.832-11.690667 13.994667-21.504 20.522666-36.522667 4.608-10.581333 15.658667-38.101333 21.205334-50.048 2.261333-4.864 6.528-14.08 13.056-20.992 3.072-3.285333 15.744-15.957333 36.309333-14.08zM410.368 756.565333l-0.938667-1.322666-0.341333-0.426667 1.28 1.706667z m354.858667-339.029333a38.186667 38.186667 0 0 0-0.298667-0.042667l0.298667 0.042667z m-7.168-1.237333l0.384 0.042666-0.682667-0.170666 0.298667 0.128z m-10.026667-4.010667l0.128 0.042667-0.682667-0.426667 0.554667 0.426667z m-369.066667-246.869333l-1.578666 1.450666-0.426667 0.469334a43.093333 43.093333 0 0 1 2.005333-1.92z"  /></svg>