<?xml version="1.0" standalone="no"?><!DOCTYPE svg PUBLIC "-//W3C//DTD SVG 1.1//EN" "http://www.w3.org/Graphics/SVG/1.1/DTD/svg11.dtd"><svg class="icon" width="32px" height="32.00px" viewBox="0 0 1024 1024" version="1.1" xmlns="http://www.w3.org/2000/svg"><path fill="#000000" d="M502.741333 86.613333a42.496 42.496 0 0 1 48.128 29.269334 43.392 43.392 0 0 1 0.512 24.32c-1.28 4.864-3.328 8.96-3.882666 10.112a285.866667 285.866667 0 0 1-7.850667 14.592c-6.656 11.818667-17.877333 30.976-34.986667 60.245333-12.672 24.96-19.029333 39.978667-19.626666 60.458667-0.426667 14.293333-1.066667 35.413333 7.338666 69.077333 5.248 20.906667 14.165333 47.658667 21.290667 65.28 6.229333 15.36 10.24 22.016 20.992 36.608 11.861333 16.042667 29.184 37.802667 46.933333 56.405333 17.408 18.218667 35.242667 33.536 58.581334 50.773334 23.765333 17.493333 51.2 35.584 75.008 48.64 25.386667 13.952 43.349333 21.674667 53.674666 24.32 24.618667 6.272 31.146667 7.68 42.410667 7.338666 20.010667-0.597333 38.698667-1.024 52.352-0.810666 6.528 0.128 13.696 0.426667 19.797333 1.28 2.474667 0.384 8.32 1.28 14.464 3.84 2.858667 1.237333 9.813333 4.394667 16.085334 11.434666 7.850667 8.789333 13.653333 22.912 9.856 38.912a169.173333 169.173333 0 0 1-58.538667 91.946667c-18.432 14.634667-44.8 33.962667-64 50.346667-14.549333 12.458667-28.586667 25.045333-40.874667 34.304-13.226667 9.941333-27.989333 18.944-46.506666 23.893333-15.274667 4.010667-42.666667 10.709333-80.170667 14.250667-36.608 3.498667-80.981333 3.84-110.506667 2.816-28.757333-1.024-47.018667-2.901333-63.232-7.594667-17.237333-4.992-40.192-10.752-66.474666-19.968a421.802667 421.802667 0 0 1-55.765334-24.661333 1267.328 1267.328 0 0 1-71.125333-39.253334c-9.557333-5.888-20.992-12.8-31.402667-22.229333a139.264 139.264 0 0 1-28.501333-37.333333 392.448 392.448 0 0 1-30.421333-67.285334 737.621333 737.621333 0 0 1-19.925334-70.912 947.2 947.2 0 0 1-17.066666-94.378666 386.645333 386.645333 0 0 1-2.389334-71.765334 328.96 328.96 0 0 1 9.386667-62.848 583.68 583.68 0 0 1 25.386667-77.098666c10.922667-26.965333 24.192-54.528 39.381333-78.592a350.250667 350.250667 0 0 1 44.288-57.173334c20.181333-20.48 40.789333-38.826667 81.024-55.125333 23.978667-9.728 60.501333-22.485333 80.512-29.568 15.658667-5.546667 39.765333-8.874667 55.594667-10.752 8.832-1.066667 17.066667-1.877333 22.954666-2.474667l6.954667-0.725333 1.365333-0.128c1.152-0.128 0.512 0-1.024 0.213333zM428.373333 186.88c-19.754667 7.04-43.349333 15.488-59.861333 22.186667-25.856 10.538667-37.12 20.48-52.394667 36.010666a266.24 266.24 0 0 0-32.896 42.837334 417.408 417.408 0 0 0-32.426666 65.024 498.176 498.176 0 0 0-21.589334 65.536 244.053333 244.053333 0 0 0-7.125333 47.402666 302.08 302.08 0 0 0 1.962667 56.746667c2.986667 25.002667 9.045333 57.6 15.445333 85.162667 6.314667 27.221333 12.544 47.914667 17.578667 62.72 7.637333 22.4 15.786667 37.973333 24.32 53.418666 5.205333 9.386667 8.533333 13.098667 11.136 15.445334 3.498667 3.157333 7.722667 5.930667 18.901333 12.8 15.018667 9.258667 43.349333 24.661333 65.408 36.053333 20.992 10.794667 33.706667 16.042667 44.885333 19.925333 23.338667 8.192 41.258667 12.544 61.994667 18.56 5.461333 1.578667 14.848 3.285333 42.538667 4.266667 26.965333 0.938667 67.498667 0.554667 99.456-2.474667a399.36 399.36 0 0 0 66.389333-11.861333c3.754667-1.024 8.448-3.114667 16.981333-9.514667 9.472-7.125333 19.541333-16.298667 36.693334-30.976 17.493333-14.933333 43.306667-34.474667 59.306666-46.805333-20.48-0.426667-36.48-4.608-57.301333-9.941333-21.333333-5.418667-47.146667-17.664-73.6-32.170667a787.584 787.584 0 0 1-84.693333-54.869333 516.309333 516.309333 0 0 1-69.546667-60.458667 703.146667 703.146667 0 0 1-53.888-64.554667 220.288 220.288 0 0 1-31.488-55.338666c-8.533333-21.034667-18.730667-51.584-24.96-76.629334a313.344 313.344 0 0 1-9.898667-92.288c1.237333-40.618667 15.445333-70.186667 28.672-96.170666z"  /></svg>